<svg id="Layer_1" data-name="Layer 1" xmlns="http://www.w3.org/2000/svg" width="406.69" height="577.69" viewBox="0 0 406.69 577.69"><path d="M167.06,135c-.34,6.32,3.7,12.39,9.33,15.1a14.66,14.66,0,0,0,16.82-2.85,17.25,17.25,0,0,0,4.51-7.51,15.47,15.47,0,0,0,.6-4.43c0-1.29,0-3.64-1.32-4.3a23.72,23.72,0,0,0-5.18-1.52c-1.7-.38-3.41-.66-5.13-.88a49.28,49.28,0,0,0-10.79-.13,50.78,50.78,0,0,0-20.29,6.36c-5.12,2.93-13,8.78-10.36,15.74,1.21,3.11,4.18,4.76,7.17,5.8a65.09,65.09,0,0,0,10.21,2.53,81.46,81.46,0,0,0,60.06-13.29q2.17-1.53,4.24-3.2a1.5,1.5,0,0,0,0-2.12c-14.26-11.25-31.85-16.55-49.39-20.14-5.06-1-10.14-2-15.23-2.84l.9,2.2a76.21,76.21,0,0,1,49.66-30.79c3.68-.61,9-2.35,8.36-7.08s-6.64-5.92-10.44-6.64a68.56,68.56,0,0,0-29.28,1c-19.66,4.86-36.64,17.33-48.24,33.78-12.16,17.22-18.47,38.06-20.47,58.9-2.36,24.65,1.3,49.48,6.53,73.54q1,4.53,2,9c.44,1.88,3.33,1.09,2.9-.79-5.45-23.38-9.82-47.26-9.1-71.37.62-20.56,5.18-41.32,15.36-59.35,9.65-17.11,24.46-31,43-38.08a70.2,70.2,0,0,1,27.79-4.74c4.49.19,9.46.63,13.7,2.24,1.4.54,3.62,1.68,3.29,3.52s-2.81,2.44-4.3,2.81c-2.13.51-4.33.76-6.48,1.24-2.4.54-4.78,1.19-7.13,2a79.18,79.18,0,0,0-35.45,23.78c-1.51,1.79-2.93,3.64-4.28,5.55a1.5,1.5,0,0,0,.9,2.2c17.26,3,35,6.19,50.77,14.26a75.69,75.69,0,0,1,12.52,7.95v-2.12A78.09,78.09,0,0,1,174,157.08a74.62,74.62,0,0,1-13.48-1.6c-2.22-.47-4.44-1-6.62-1.73-1.87-.61-4-1.41-5.22-3.05-2.86-3.8,1.47-8.49,4.41-10.65a44.51,44.51,0,0,1,12.25-6.27,47.81,47.81,0,0,1,30.68.08L195,132.81c1.34,5.4-1.5,11.27-6.16,14.14-5.2,3.2-11.5,1.57-15.45-2.83a12.6,12.6,0,0,1-3.3-9.09c.11-1.93-2.89-1.92-3,0Z"/><path d="M124.65,249.32c-5.47-6.23-14.37-7.6-22.2-6.4-10,1.53-19,6.86-28.95,8.54a30.09,30.09,0,0,1-7.58.34c-1-.09-5.43-.34-5.39-1.9,0-.65.9-1.3,1.37-1.62a7.17,7.17,0,0,1,2.7-1.1,30.64,30.64,0,0,1,5.4-.57c7.23-.14,15,2,20,7.51,5.7,6.2,5.78,15.19,2.84,22.69-3.3,8.39-10.36,14.53-17.68,19.4-1.94,1.29-3.91,2.51-5.91,3.7A64,64,0,0,1,63,303.43c-1.83.83-4.08,1.33-5.87.12a2.62,2.62,0,0,1-.38-4.14,10.7,10.7,0,0,1,4.84-2.8A39.61,39.61,0,0,1,68.85,295a40.34,40.34,0,0,1,14.44.87c4.59,1.14,8.88,3.83,13.64,4.15s8.25-2.73,12-5.08a20.82,20.82,0,0,1,21.57.1,19.43,19.43,0,0,1,4.26,3.56c1.3,1.44,3.42-.69,2.12-2.12a23.94,23.94,0,0,0-23.42-6.75,21.83,21.83,0,0,0-5.88,2.51c-2,1.26-3.94,2.81-6.11,3.87-5,2.45-10.06-.88-14.84-2.4a42.66,42.66,0,0,0-16-1.88,43.69,43.69,0,0,0-7.87,1.31,19.52,19.52,0,0,0-6.37,2.65,7.53,7.53,0,0,0-3.4,4.78A5.48,5.48,0,0,0,55.38,306c4.38,3.13,9.45,0,13.37-2.27,8.57-5,17.29-10.57,23.11-18.83,5.27-7.5,7.87-17.83,4.25-26.57-3.23-7.78-10.77-12.53-18.84-14a36,36,0,0,0-12.63-.1c-3.28.56-9.21,3.72-6.47,7.88,1.31,2,4.24,2.35,6.39,2.64a31.27,31.27,0,0,0,8.2-.07c5.52-.73,10.74-2.61,15.94-4.52,9-3.28,19.47-7,28.71-2.51a16.26,16.26,0,0,1,5.12,3.89c1.27,1.46,3.39-.67,2.12-2.12Z"/><path d="M135.69,299.82c2.55-.2,2.79,3.76,1.6,5.28-2.4,3-7.7,2.41-11.07,2.42a192.15,192.15,0,0,0-29.92,2.41c-4.85.77-9.74,1.65-14.49,2.9-3.46.91-7.21,2.65-8.17,6.44s1.45,7,4.26,9a17.05,17.05,0,0,0,11.25,2.83c9-.51,17-5.42,23.2-11.62,6.75-6.72,12.11-14.85,17.75-22.48l37.23-50.41,37.22-50.41,4.6-6.22c1.15-1.56-1.45-3.06-2.59-1.52l-36.78,49.81L133,288.08c-5.87,7.94-11.5,16.14-17.78,23.76-5.62,6.83-12.41,13.14-21.17,15.48-3.81,1-8.42,1.45-12.14-.16C79.23,326,75.4,323,76.67,319.6c1.32-3.53,6.64-4.09,9.77-4.77q7.31-1.59,14.71-2.61t14.95-1.41c4.67-.26,9.34-.16,14-.31,3.5-.11,7.85-.8,9.88-4.05a7.12,7.12,0,0,0-.61-8.15,4.47,4.47,0,0,0-3.69-1.48c-1.91.15-1.92,3.15,0,3Z"/><path d="M208.28,192.08c8.43-43.25,8.1-89.1-2.74-131.92-4.25-16.83-11.1-34.23-24.32-46.07C167.13,1.47,147.94-1.81,129.65.87,93.09,6.22,62.57,33,43.31,63.24c-22.78,35.82-32.09,78.61-38.44,120C-1.68,226-3.49,270.76,11.48,312c6.45,17.77,15.85,34.53,28.55,48.6,12.54,13.91,29,25.92,48,28.19,20.13,2.39,39.65-7.49,55.16-19.43C158,358,170.08,343.69,180.94,328.66c21.82-30.23,38.95-64.08,66.23-90.05,13.12-12.49,28.53-22.87,46.06-27.94,9.27-2.69,19.28-4,28.8-1.91s17,7.83,22.16,15.86c5.1,7.88,8,16.94,10.52,25.92a281.71,281.71,0,0,1,6.92,32.38c3.48,22.26,4.63,44.83,5.07,67.33.21,10.87.25,21.74.28,32.61a1.5,1.5,0,0,0,3,0c-.13-43.84-.32-88.4-11.8-131-4.55-16.86-11.12-36.3-28.51-43.75-16.86-7.23-36.95-2-52.72,5.67-32.7,15.85-54.88,47-74.11,76.63-20,30.82-39.93,64.24-72.05,83.9-8.82,5.4-18.5,9.67-28.78,11.25a53.36,53.36,0,0,1-29.11-3.92c-17.44-7.45-31.5-22-41.95-37.5C8,309.94,1.44,267.89,3.25,227.45c1-22.46,4.34-44.8,8.56-66.86,4-20.85,9.08-41.56,16.82-61.35,13.58-34.75,36.6-67.36,70.31-85C115.34,5.72,134.63.63,153.14,3.9a52.13,52.13,0,0,1,25.12,11.57,65.73,65.73,0,0,1,15.58,20.74c8.61,17.26,12.17,37.11,14.65,56.07a310.13,310.13,0,0,1,1.43,66.93,307,307,0,0,1-4.53,32.07c-.37,1.88,2.52,2.69,2.89.8Z"/><path d="M367.06,381.75c.6,16.17,1.43,33-2.76,48.76-.87,3.29-2.13,6.61-4.56,9.08a15.6,15.6,0,0,1-7.92,4.05c-6.66,1.45-13.45-.1-20.08-.89a41.54,41.54,0,0,0-11-.13c-2.93.42-7.09,1.07-7.88,4.43-.62,2.67.93,5.39,3,7a7.88,7.88,0,0,0,8.23.62c3.05-1.35,5.33-4,7.25-6.61a63.21,63.21,0,0,0,5.31-8.83,79.91,79.91,0,0,0,6.62-19.62c2.86-14,2.79-28.38,1.71-42.53-1.13-14.84-3.91-30.19-12.77-42.53a44.44,44.44,0,0,0-14.94-13.43c-6.37-3.42-13.45-5.21-20.56-6.27-3.58-.53-7.17-.9-10.77-1.21a63.93,63.93,0,0,0-9.38-.36c-5.69.36-11.91,2.55-13.6,8.62-1.83,6.56,2.47,13,8.06,16a31.08,31.08,0,0,0,9.86,3.2c3.63.61,7.5.77,10.88-.92a9.33,9.33,0,0,0,5.26-7.2,9,9,0,0,0-3.79-7.74c-6.23-4.84-14.78-1.71-21.59,0l-12.62,3.11a82,82,0,0,0-10.22,2.76,14.66,14.66,0,0,0-6.8,4.68,8,8,0,0,0-1,7.53c2.15,5.4,8.78,7.49,13.94,8.61,7.9,1.72,16,3,24.13,2.54,12.86-.73,26.58-6.66,32.46-18.82,5.47-11.31,1.53-24.52-7.07-33.12-9.92-9.92-24.75-11.94-38-8.91-13.49,3.08-26.93,11.06-33.44,23.63s-6.56,27.36-7.07,41.18l-1.88,51.08c-.61,16.58-1.56,33.35,1.46,49.77,2.8,15.2,9,29.54,16.06,43.19,3.45,6.66,7.14,13.19,10.83,19.72a1.5,1.5,0,0,0,2.59-1.51c-7.15-12.65-14.35-25.36-19.72-38.89a128.71,128.71,0,0,1-6.25-20.21,124.73,124.73,0,0,1-2.53-23c-.42-15.58.64-31.23,1.21-46.8.56-15.18.83-30.41,1.75-45.58.78-12.68,2.91-26.26,12.05-35.81a49.24,49.24,0,0,1,16-10.75,51.67,51.67,0,0,1,19.73-4.4,36.58,36.58,0,0,1,18.46,4.35,31.36,31.36,0,0,1,11.8,11.9A26,26,0,0,1,311,327.41a24.58,24.58,0,0,1-7.72,14.41c-10,9.44-24.24,10.74-37.25,9-3.84-.5-7.65-1.24-11.41-2.1a23.42,23.42,0,0,1-7.32-2.84c-1.87-1.17-3.69-2.91-3.78-5.26-.1-2.53,1.7-4.35,3.75-5.54a27.85,27.85,0,0,1,7.49-2.65l11.64-2.86c3.86-.95,7.72-1.92,11.58-2.85,3.48-.83,7.3-1.69,10.82-.55,2.5.81,5,3,5.27,5.75s-2,5-4.42,5.92c-3.34,1.29-7.23.61-10.61-.19a22.41,22.41,0,0,1-8.84-3.9c-4.37-3.45-6.75-10.64-1.94-14.8,4-3.42,10.32-3,15.17-2.57,13.1,1,27.31,2.5,38,11,10.51,8.32,16,21.17,18.57,34a152.39,152.39,0,0,1,2.41,21.73,179.33,179.33,0,0,1,0,19.81c-.76,12.8-3.32,25.77-9.54,37.11a48.65,48.65,0,0,1-5.32,8.06c-1.84,2.17-4.52,4.7-7.6,4.47-2-.14-4.26-2.17-4.22-4.29,0-1.39,1.14-1.61,2.3-2a21.44,21.44,0,0,1,5-.91c6.76-.46,13.36,1.38,20.07,1.77,5.72.34,12.05-.26,16.79-3.79,5.3-3.93,7.07-10.39,8.29-16.56a131.84,131.84,0,0,0,2.24-22.85c.15-7.4-.12-14.8-.4-22.19-.07-1.93-3.07-1.94-3,0Z"/><path d="M252.13,519.78c11.52,15.6,24.66,30.4,39.52,42.91,6.84,5.75,14.43,10.95,23.09,13.51a33.38,33.38,0,0,0,22.39-.93c6.51-2.7,12.2-7.61,14.59-14.38,2.93-8.33-.54-16.92-.67-25.37a19.75,19.75,0,0,1,.86-6.4,53.25,53.25,0,0,1,2.72-5.77c1.7-3.62,2.53-8-1.25-10.67a12.33,12.33,0,0,0-5.71-1.73c-2.58-.31-5.17-.51-7.75-.65-4.92-.28-10.09-.6-15,.05-3.83.51-7.53,2.7-7.5,7,0,4.49,3.71,7.45,7.5,9.08a53.85,53.85,0,0,0,23.64,4,59.45,59.45,0,0,0,23.36-6A55.43,55.43,0,0,0,382.15,518c3.31-2.63,6.61-5.7,8.67-9.44s2.53-8.22.15-12c-2.17-3.41-5.77-5.6-9.16-7.62-7.5-4.46-17-9.37-25.85-6.13a61.57,61.57,0,0,0-5.91,3,9.27,9.27,0,0,1-6.54.77c-4.48-1.09-8.36-3.72-13-4.36-9.49-1.3-18.58,3.5-26.34,8.4-3.37,2.12-7.73,4.56-8.95,8.67-1.09,3.71,1.61,6.92,5.24,7.31s7.28-1.33,10.81-2.31A49.59,49.59,0,0,1,326,502.89c5.07.15,10.12.68,15.18,1,5.35.33,10.72.52,16.08.66,10.76.27,21.53.38,32.3.55l15.68.25c1.93,0,1.93-3,0-3-19.86-.31-39.77-.26-59.61-1.22-9.23-.45-18.61-1.9-27.85-1a42.83,42.83,0,0,0-6.64,1.12c-1.84.47-3.6,1.17-5.43,1.69-2.18.63-6.54,1.83-7.59-1.13-.61-1.72.84-3.46,2-4.58a29.68,29.68,0,0,1,5-3.65,70.65,70.65,0,0,1,11.65-6.27,27.42,27.42,0,0,1,12.5-2.21c4.33.38,8,2.67,12.05,4a13.73,13.73,0,0,0,6,.72,16.06,16.06,0,0,0,5.7-2.16,21.17,21.17,0,0,1,5.72-2.47,16.57,16.57,0,0,1,6.08-.12,37.53,37.53,0,0,1,12.08,4.58c3.37,1.84,7,3.76,9.79,6.46a8.42,8.42,0,0,1,2,10c-1.68,3.64-4.77,6.53-7.81,9a53.59,53.59,0,0,1-19.67,10.23,56,56,0,0,1-21.94,1.76,51.06,51.06,0,0,1-10.83-2.54c-3.3-1.17-8-3.08-8-7.25s5.2-4.17,8.11-4.24a143.73,143.73,0,0,1,14.82.41c2.89.24,9.47,0,9.79,4.12.14,1.83-.85,3.69-1.65,5.27a40,40,0,0,0-2.49,5.4c-2.57,7.82.59,16,.86,23.91a19.85,19.85,0,0,1-2.12,10.25,20.92,20.92,0,0,1-6.21,6.95,29.15,29.15,0,0,1-18.49,5.27c-8.08-.46-15.71-4.23-22.26-8.74-7.13-4.9-13.47-11-19.59-17a267.85,267.85,0,0,1-18.35-20.19q-4.2-5.13-8.14-10.47c-1.14-1.54-3.74,0-2.59,1.51Z"/></svg>