<svg id="Layer_1" data-name="Layer 1" xmlns="http://www.w3.org/2000/svg" width="1920" height="1080" viewBox="0 0 1920 1080"><defs><style>.cls-1{fill:#b4edff;}.cls-2{fill:#999;}.cls-3{fill:#754c24;}.cls-4{fill:#666;}.cls-5{fill:#ccc;}.cls-6{fill:gray;}.cls-7{fill:#8cc63f;}.cls-8{fill:#4d4d4d;}.cls-9{fill:#42210b;}.cls-10{fill:#b4efff;}.cls-11{fill:#c69c6d;}.cls-12{fill:#fff;}.cls-13{stroke:#000;stroke-miterlimit:10;stroke-width:4px;}</style></defs><rect class="cls-1" x="1" y="-3" width="1918" height="1086"/><rect class="cls-2" x="883.94" y="486.79" width="129.57" height="210.43"/><rect class="cls-3" x="883.94" y="637.53" width="129.57" height="7.46"/><rect class="cls-4" x="937.18" y="574.56" width="23.84" height="51.04" rx="4"/><rect class="cls-5" x="948.01" y="574.56" width="2.17" height="51.04"/><rect class="cls-5" x="937.18" y="597.92" width="23.84" height="3.79"/><rect class="cls-4" x="937.18" y="510.8" width="22.72" height="41.37" rx="4"/><rect class="cls-5" x="947.5" y="510.8" width="2.07" height="41.37"/><rect class="cls-5" x="937.18" y="530.07" width="22.72" height="2.98"/><rect class="cls-3" x="933.09" y="668.23" width="31.28" height="29"/><ellipse class="cls-3" cx="948.73" cy="666.78" rx="15.64" ry="20.3"/><rect class="cls-6" x="948.19" y="646.48" width="1.08" height="50.74"/><polygon class="cls-6" points="945.53 661.63 937.42 668.79 936.83 667.58 944.94 660.42 945.53 661.63"/><polygon class="cls-6" points="946.25 679.62 938.14 686.79 937.55 685.57 945.66 678.41 946.25 679.62"/><polygon class="cls-6" points="946.25 670.92 938.14 678.09 937.55 676.88 945.66 669.71 946.25 670.92"/><polygon class="cls-6" points="959.3 678.64 951.86 670.27 952.55 669.16 959.99 677.53 959.3 678.64"/><polygon class="cls-6" points="959.3 687.34 951.86 678.97 952.55 677.86 959.99 686.23 959.3 687.34"/><polygon class="cls-6" points="959.3 669.94 951.86 661.57 952.55 660.46 959.99 668.83 959.3 669.94"/><polygon class="cls-7" points="997.1 440.01 980.22 464.37 1013.93 464.35 997.1 440.01"/><polygon class="cls-7" points="901.35 440.05 884.46 464.41 918.17 464.39 901.35 440.05"/><polygon class="cls-7" points="997.09 464.36 901.37 464.4 901.4 440.05 997.11 440.01 997.09 464.36"/><polygon class="cls-7" points="997.11 442.04 901.4 442.08 901.53 329.45 997.24 329.41 997.11 442.04"/><path class="cls-1" d="M968,431.9l-33.7,0,.07-53.78c0-23.83,33.72-23.84,33.69,0Z"/><polygon class="cls-7" points="902.41 332.59 893.03 310.87 911.93 310.93 902.41 332.59"/><polygon class="cls-7" points="996.42 333.32 987.04 311.6 1005.94 311.66 996.42 333.32"/><rect class="cls-7" x="936.47" y="277.39" width="25.37" height="94.95" transform="translate(621.43 1273.03) rotate(-89.83)"/><polygon class="cls-7" points="921.52 345.45 898.56 292.31 944.8 292.45 921.52 345.45"/><polygon class="cls-7" points="975.96 345.55 953 292.41 999.24 292.55 975.96 345.55"/><rect class="cls-7" x="934.11" y="285.79" width="32.47" height="46.71" transform="translate(638.35 1258.56) rotate(-89.83)"/><ellipse class="cls-7" cx="950.07" cy="273.12" rx="26.89" ry="53.6" transform="translate(674.13 1222.38) rotate(-89.83)"/><rect class="cls-7" x="916.09" y="205.86" width="68.99" height="54.37" transform="translate(714.68 1182.92) rotate(-89.83)"/><rect class="cls-1" x="911.31" y="221.56" width="42.61" height="4.59" transform="translate(705.95 1155.8) rotate(-89.83)"/><rect class="cls-1" x="938.11" y="221.64" width="42.61" height="4.59" transform="translate(732.59 1182.68) rotate(-89.83)"/><rect class="cls-1" x="928.92" y="221.62" width="42.61" height="4.59" transform="translate(723.46 1173.46) rotate(-89.83)"/><rect class="cls-1" x="920.5" y="221.59" width="42.61" height="4.59" transform="translate(715.09 1165.02) rotate(-89.83)"/><rect class="cls-1" x="948.06" y="221.67" width="42.61" height="4.59" transform="translate(742.49 1192.66) rotate(-89.83)"/><polygon class="cls-7" points="950.92 124.48 923.51 198.47 977.87 198.63 950.92 124.48"/><path class="cls-7" d="M976,202.68l-51.47-.15a4.12,4.12,0,0,1-4.12-4.07h0a4.13,4.13,0,0,1,4.15-4.05l51.46.16a4.1,4.1,0,0,1,4.12,4.07h0A4.1,4.1,0,0,1,976,202.68Z"/><ellipse class="cls-7" cx="950.88" cy="138.18" rx="15.73" ry="13.4" transform="translate(809.46 1088.58) rotate(-89.8)"/><ellipse class="cls-7" cx="938.64" cy="133.97" rx="7.42" ry="10.44" transform="translate(127.07 624.22) rotate(-39.26)"/><ellipse class="cls-1" cx="938.41" cy="133.81" rx="4.38" ry="7.68" transform="translate(211.01 741.59) rotate(-48)"/><ellipse class="cls-7" cx="963.08" cy="133.72" rx="10.3" ry="7.44" transform="translate(300.93 845.73) rotate(-54.98)"/><ellipse class="cls-1" cx="962.86" cy="133.88" rx="7.53" ry="4.41" transform="translate(185.52 717.63) rotate(-44.82)"/><ellipse class="cls-7" cx="950.39" cy="122.93" rx="12.68" ry="6.28" transform="translate(817.46 1071.96) rotate(-89.4)"/><ellipse class="cls-1" cx="950.39" cy="122.57" rx="9.51" ry="3.63" transform="translate(816.75 1071.47) rotate(-89.33)"/><rect class="cls-7" x="927.03" y="119.8" width="47.72" height="2.22" transform="translate(827.12 1071.44) rotate(-89.83)"/><polygon class="cls-7" points="947.19 99.17 936.48 99 941.96 85.99 947.19 99.17"/><polygon class="cls-7" points="965.24 99.45 954.53 99.29 960.01 86.27 965.24 99.45"/><polygon class="cls-7" points="958.75 99.37 943.58 99.1 951.32 80.71 958.75 99.37"/><polygon class="cls-1" points="951.16 85.62 946.89 94.95 955.37 94.98 951.16 85.62"/><polygon class="cls-1" points="959.97 90.32 957.73 94.99 962.19 95 959.97 90.32"/><polygon class="cls-1" points="942.03 90.27 939.78 94.93 944.25 94.95 942.03 90.27"/><polygon class="cls-7" points="938.27 69.99 944.26 74.87 944.28 65.11 938.27 69.99"/><rect class="cls-7" x="943.21" y="66.46" width="8.77" height="7.4" transform="translate(874.59 1017.53) rotate(-89.83)"/><rect class="cls-7" x="935.11" y="66.68" width="32.59" height="1.24" transform="translate(881.25 1018.5) rotate(-89.83)"/><rect class="cls-7" x="950.96" y="53.64" width="0.54" height="8.4" transform="translate(890.53 1008.89) rotate(-89.83)"/><rect class="cls-3" x="883.94" y="462.91" width="129.57" height="23.88"/><rect class="cls-6" x="710.81" y="553.95" width="173.13" height="143.27"/><rect class="cls-7" x="710.81" y="492.76" width="173.13" height="61.19"/><rect class="cls-4" x="785.65" y="522.61" width="23.46" height="19.4" rx="4"/><rect class="cls-5" x="796.31" y="522.61" width="2.13" height="19.4"/><rect class="cls-5" x="785.65" y="530.93" width="23.46" height="2.77"/><rect class="cls-4" x="832.65" y="523.51" width="23.46" height="19.4" rx="4"/><rect class="cls-5" x="843.31" y="523.51" width="2.13" height="19.4"/><rect class="cls-5" x="832.65" y="531.83" width="23.46" height="2.77"/><rect class="cls-4" x="737.7" y="522.02" width="23.46" height="19.4" rx="4"/><rect class="cls-5" x="748.36" y="522.02" width="2.13" height="19.4"/><rect class="cls-5" x="737.7" y="530.33" width="23.46" height="2.77"/><rect class="cls-8" x="737.98" y="611.25" width="22.72" height="41.37" rx="4"/><rect class="cls-5" x="748.31" y="611.25" width="2.07" height="41.37"/><rect class="cls-5" x="737.98" y="630.52" width="22.72" height="2.98"/><rect class="cls-8" x="831.87" y="613.77" width="22.72" height="41.37" rx="4"/><rect class="cls-5" x="842.2" y="613.77" width="2.07" height="41.37"/><rect class="cls-5" x="831.87" y="633.04" width="22.72" height="2.98"/><rect class="cls-8" x="783.84" y="612.28" width="22.72" height="41.37" rx="4"/><rect class="cls-5" x="794.17" y="612.28" width="2.07" height="41.37"/><rect class="cls-5" x="783.84" y="631.55" width="22.72" height="2.98"/><rect class="cls-8" x="736.5" y="668.87" width="23.46" height="19.4" rx="4"/><rect class="cls-5" x="747.33" y="668.87" width="2.13" height="19.4"/><rect class="cls-5" x="736.5" y="677.97" width="23.46" height="2.77"/><rect class="cls-8" x="783" y="669.03" width="23.46" height="19.4" rx="4"/><rect class="cls-5" x="793.83" y="669.03" width="2.13" height="19.4"/><rect class="cls-5" x="783" y="678.13" width="23.46" height="2.77"/><rect class="cls-8" x="831.03" y="669.03" width="23.46" height="19.4" rx="4"/><rect class="cls-5" x="841.86" y="669.03" width="2.13" height="19.4"/><rect class="cls-5" x="831.03" y="678.13" width="23.46" height="2.77"/><rect class="cls-8" x="830.63" y="570.18" width="23.46" height="19.4" rx="4"/><rect class="cls-5" x="841.47" y="570.18" width="2.13" height="19.4"/><rect class="cls-5" x="830.63" y="579.28" width="23.46" height="2.77"/><rect class="cls-8" x="737.92" y="570.18" width="23.46" height="19.4" rx="4"/><rect class="cls-5" x="748.76" y="570.18" width="2.13" height="19.4"/><rect class="cls-5" x="737.92" y="579.28" width="23.46" height="2.77"/><rect class="cls-8" x="783.72" y="570.18" width="23.46" height="19.4" rx="4"/><rect class="cls-5" x="794.55" y="570.18" width="2.13" height="19.4"/><rect class="cls-5" x="783.72" y="579.28" width="23.46" height="2.77"/><rect class="cls-9" x="608.04" y="489.78" width="102.76" height="207.45"/><rect class="cls-2" x="283" y="489.78" width="326.16" height="207.45"/><rect class="cls-4" x="283" y="667.38" width="326.16" height="29.85"/><rect class="cls-4" x="283" y="613.65" width="427.81" height="11.94"/><rect class="cls-3" x="609.16" y="468.88" width="101.65" height="20.89"/><rect class="cls-1" x="625.56" y="471.87" width="9.18" height="13.93"/><rect class="cls-1" x="612.44" y="471.87" width="9.18" height="13.93"/><rect class="cls-1" x="685.23" y="471.87" width="9.18" height="13.93"/><rect class="cls-1" x="672.77" y="471.87" width="9.18" height="13.93"/><rect class="cls-1" x="660.97" y="471.87" width="9.18" height="13.93"/><rect class="cls-1" x="649.16" y="471.87" width="9.18" height="13.93"/><rect class="cls-1" x="637.36" y="471.87" width="9.18" height="13.93"/><rect class="cls-1" x="697.69" y="471.87" width="9.18" height="13.93"/><rect class="cls-10" x="499.91" y="671.31" width="23.46" height="19.4" rx="4"/><rect class="cls-5" x="510.57" y="671.31" width="2.13" height="19.4"/><rect class="cls-5" x="499.91" y="679.62" width="23.46" height="2.77"/><rect class="cls-10" x="367.01" y="672.56" width="23.46" height="19.4" rx="4"/><rect class="cls-5" x="377.68" y="672.56" width="2.13" height="19.4"/><rect class="cls-5" x="367.01" y="680.88" width="23.46" height="2.77"/><rect class="cls-10" x="562.49" y="672.56" width="23.46" height="19.4" rx="4"/><rect class="cls-5" x="573.15" y="672.56" width="2.13" height="19.4"/><rect class="cls-5" x="562.49" y="680.88" width="23.46" height="2.77"/><rect class="cls-10" x="434.03" y="672.56" width="23.46" height="19.4" rx="4"/><rect class="cls-5" x="444.7" y="672.56" width="2.13" height="19.4"/><rect class="cls-5" x="434.03" y="680.88" width="23.46" height="2.77"/><rect class="cls-10" x="304.46" y="672.56" width="23.46" height="19.4" rx="4"/><rect class="cls-5" x="315.12" y="672.56" width="2.13" height="19.4"/><rect class="cls-5" x="304.46" y="680.88" width="23.46" height="2.77"/><rect class="cls-10" x="648.58" y="672.03" width="23.46" height="19.4" rx="4"/><rect class="cls-5" x="659.24" y="672.03" width="2.13" height="19.4"/><rect class="cls-5" x="648.58" y="680.35" width="23.46" height="2.77"/><rect class="cls-8" x="649.6" y="552.02" width="22.72" height="41.37" rx="4"/><rect class="cls-5" x="659.93" y="552.02" width="2.07" height="41.37"/><rect class="cls-5" x="649.6" y="571.29" width="22.72" height="2.98"/><rect class="cls-8" x="649.23" y="513.75" width="23.46" height="19.4" rx="4"/><rect class="cls-5" x="660.07" y="513.75" width="2.13" height="19.4"/><rect class="cls-5" x="649.23" y="522.85" width="23.46" height="2.77"/><path class="cls-4" d="M325.45,598.73H307.57c-1.22,0-2.23-1.35-2.23-3v-38.8c0-1.64,1-3,2.23-3,0-11.54,17.88-11.54,17.88,0,1.22,0,2.23,1.35,2.23,3v38.8C327.68,597.38,326.67,598.73,325.45,598.73Z"/><rect class="cls-5" x="315.95" y="545" width="1.12" height="53.73"/><rect class="cls-5" x="305.34" y="572.61" width="22.34" height="1.49"/><path class="cls-4" d="M582.66,595.67H564.79c-1.23,0-2.24-1.35-2.24-3v-38.8c0-1.64,1-3,2.24-3,0-11.54,17.87-11.54,17.87,0,1.23,0,2.23,1.35,2.23,3v38.8C584.89,594.32,583.89,595.67,582.66,595.67Z"/><rect class="cls-5" x="573.16" y="541.94" width="1.12" height="53.73"/><rect class="cls-5" x="562.55" y="569.55" width="22.34" height="1.49"/><path class="cls-4" d="M454.2,597.16H436.33c-1.23,0-2.23-1.34-2.23-3v-38.8c0-1.64,1-3,2.23-3,0-11.55,17.87-11.55,17.87,0,1.23,0,2.24,1.34,2.24,3v38.8C456.44,595.82,455.43,597.16,454.2,597.16Z"/><rect class="cls-5" x="444.71" y="543.43" width="1.12" height="53.73"/><rect class="cls-5" x="434.1" y="571.04" width="22.34" height="1.49"/><path class="cls-4" d="M520.11,595.67H502.23c-1.23,0-2.23-1.35-2.23-3v-38.8c0-1.64,1-3,2.23-3,0-11.54,17.88-11.54,17.88,0,1.22,0,2.23,1.35,2.23,3v38.8C522.34,594.32,521.33,595.67,520.11,595.67Z"/><rect class="cls-5" x="510.61" y="541.94" width="1.12" height="53.73"/><rect class="cls-5" x="500" y="569.55" width="22.34" height="1.49"/><path class="cls-4" d="M387.18,598.65H369.31c-1.23,0-2.23-1.34-2.23-3V556.86c0-1.64,1-3,2.23-3,0-11.55,17.87-11.55,17.87,0,1.23,0,2.24,1.34,2.24,3v38.81C389.42,597.31,388.41,598.65,387.18,598.65Z"/><rect class="cls-5" x="377.69" y="544.92" width="1.12" height="53.73"/><rect class="cls-5" x="367.08" y="572.53" width="22.34" height="1.49"/><rect class="cls-8" x="304.59" y="635.57" width="23.46" height="19.4" rx="4"/><rect class="cls-5" x="315.42" y="635.57" width="2.13" height="19.4"/><rect class="cls-5" x="304.59" y="644.67" width="23.46" height="2.77"/><rect class="cls-8" x="561.02" y="637.26" width="23.46" height="19.4" rx="4"/><rect class="cls-5" x="571.85" y="637.26" width="2.13" height="19.4"/><rect class="cls-5" x="561.02" y="646.36" width="23.46" height="2.77"/><rect class="cls-8" x="498.47" y="635.77" width="23.46" height="19.4" rx="4"/><rect class="cls-5" x="509.3" y="635.77" width="2.13" height="19.4"/><rect class="cls-5" x="498.47" y="644.87" width="23.46" height="2.77"/><rect class="cls-8" x="433.68" y="637.26" width="23.46" height="19.4" rx="4"/><rect class="cls-5" x="444.51" y="637.26" width="2.13" height="19.4"/><rect class="cls-5" x="433.68" y="646.36" width="23.46" height="2.77"/><rect class="cls-8" x="366.66" y="635.77" width="23.46" height="19.4" rx="4"/><rect class="cls-5" x="377.49" y="635.77" width="2.13" height="19.4"/><rect class="cls-5" x="366.66" y="644.87" width="23.46" height="2.77"/><rect class="cls-4" x="304.5" y="505.75" width="23.46" height="19.4" rx="4"/><rect class="cls-5" x="315.17" y="505.75" width="2.13" height="19.4"/><rect class="cls-5" x="304.5" y="514.06" width="23.46" height="2.77"/><rect class="cls-4" x="561.68" y="507.32" width="23.46" height="19.4" rx="4"/><rect class="cls-5" x="572.35" y="507.32" width="2.13" height="19.4"/><rect class="cls-5" x="561.68" y="515.64" width="23.46" height="2.77"/><rect class="cls-4" x="500.25" y="507.32" width="23.46" height="19.4" rx="4"/><rect class="cls-5" x="510.91" y="507.32" width="2.13" height="19.4"/><rect class="cls-5" x="500.25" y="515.64" width="23.46" height="2.77"/><rect class="cls-4" x="433.23" y="505.83" width="23.46" height="19.4" rx="4"/><rect class="cls-5" x="443.89" y="505.83" width="2.13" height="19.4"/><rect class="cls-5" x="433.23" y="514.14" width="23.46" height="2.77"/><rect class="cls-4" x="367.33" y="505.83" width="23.46" height="19.4" rx="4"/><rect class="cls-5" x="377.99" y="505.83" width="2.13" height="19.4"/><rect class="cls-5" x="367.33" y="514.14" width="23.46" height="2.77"/><rect class="cls-8" x="648.2" y="638.85" width="23.46" height="19.4" rx="4"/><rect class="cls-5" x="659.03" y="638.85" width="2.13" height="19.4"/><rect class="cls-5" x="648.2" y="647.95" width="23.46" height="2.77"/><polygon class="cls-7" points="317.18 422.76 283.23 489.78 351.14 489.78 317.18 422.76"/><polygon class="cls-7" points="574.89 422.76 540.93 489.78 608.85 489.78 574.89 422.76"/><rect class="cls-7" x="317.63" y="422.62" width="256.91" height="67.16"/><polygon class="cls-7" points="417.85 360.22 316.51 424.11 519.18 424.11 417.85 360.22"/><polygon class="cls-7" points="475.43 360.22 374.09 424.11 576.77 424.11 475.43 360.22"/><rect class="cls-7" x="417.73" y="359.94" width="57.49" height="58.21"/><rect class="cls-6" x="1013.51" y="553.72" width="173.29" height="143.27" transform="translate(2200.32 1250.72) rotate(180)"/><rect class="cls-7" x="1013.51" y="492.53" width="173.29" height="61.19" transform="translate(2200.32 1046.25) rotate(180)"/><rect class="cls-4" x="1088.42" y="522.38" width="23.48" height="19.4" rx="4" transform="translate(2200.32 1064.16) rotate(180)"/><rect class="cls-5" x="1099.09" y="522.38" width="2.13" height="19.4" transform="translate(2200.32 1064.16) rotate(180)"/><rect class="cls-5" x="1088.42" y="530.69" width="23.48" height="2.77" transform="translate(2200.32 1064.16) rotate(180)"/><rect class="cls-4" x="1041.38" y="523.28" width="23.48" height="19.4" rx="4" transform="translate(2106.23 1065.96) rotate(180)"/><rect class="cls-5" x="1052.05" y="523.28" width="2.13" height="19.4" transform="translate(2106.23 1065.96) rotate(180)"/><rect class="cls-5" x="1041.38" y="531.59" width="23.48" height="2.77" transform="translate(2106.23 1065.96) rotate(180)"/><rect class="cls-4" x="1136.41" y="521.79" width="23.48" height="19.4" rx="4" transform="translate(2296.3 1062.98) rotate(180)"/><rect class="cls-5" x="1147.08" y="521.79" width="2.13" height="19.4" transform="translate(2296.3 1062.98) rotate(180)"/><rect class="cls-5" x="1136.41" y="530.1" width="23.48" height="2.77" transform="translate(2296.3 1062.98) rotate(180)"/><rect class="cls-8" x="1136.86" y="611.02" width="22.74" height="41.37" rx="4" transform="translate(2296.47 1263.4) rotate(180)"/><rect class="cls-5" x="1147.2" y="611.02" width="2.07" height="41.37" transform="translate(2296.47 1263.4) rotate(180)"/><rect class="cls-5" x="1136.86" y="630.29" width="22.74" height="2.98" transform="translate(2296.47 1263.57) rotate(180)"/><rect class="cls-8" x="1042.89" y="613.54" width="22.74" height="41.37" rx="4" transform="translate(2108.52 1268.44) rotate(180)"/><rect class="cls-5" x="1053.22" y="613.54" width="2.07" height="41.37" transform="translate(2108.52 1268.44) rotate(180)"/><rect class="cls-5" x="1042.89" y="632.81" width="22.74" height="2.98" transform="translate(2108.52 1268.6) rotate(180)"/><rect class="cls-8" x="1090.96" y="612.04" width="22.74" height="41.37" rx="4" transform="translate(2204.66 1265.45) rotate(180)"/><rect class="cls-5" x="1101.3" y="612.04" width="2.07" height="41.37" transform="translate(2204.66 1265.45) rotate(180)"/><rect class="cls-5" x="1090.96" y="631.32" width="22.74" height="2.98" transform="translate(2204.66 1265.62) rotate(180)"/><rect class="cls-8" x="1137.61" y="668.64" width="23.48" height="19.4" rx="4" transform="translate(2298.7 1356.68) rotate(180)"/><rect class="cls-5" x="1148.11" y="668.64" width="2.13" height="19.4" transform="translate(2298.36 1356.68) rotate(180)"/><rect class="cls-5" x="1137.61" y="677.74" width="23.48" height="2.77" transform="translate(2298.7 1358.25) rotate(180)"/><rect class="cls-8" x="1091.07" y="668.8" width="23.48" height="19.4" rx="4" transform="translate(2205.62 1357.01) rotate(180)"/><rect class="cls-5" x="1101.57" y="668.8" width="2.13" height="19.4" transform="translate(2205.28 1357.01) rotate(180)"/><rect class="cls-5" x="1091.07" y="677.9" width="23.48" height="2.77" transform="translate(2205.62 1358.58) rotate(180)"/><rect class="cls-8" x="1043" y="668.8" width="23.48" height="19.4" rx="4" transform="translate(2109.47 1357.01) rotate(180)"/><rect class="cls-5" x="1053.5" y="668.8" width="2.13" height="19.4" transform="translate(2109.13 1357.01) rotate(180)"/><rect class="cls-5" x="1043" y="677.9" width="23.48" height="2.77" transform="translate(2109.47 1358.58) rotate(180)"/><rect class="cls-8" x="1043.39" y="569.95" width="23.48" height="19.4" rx="4" transform="translate(2110.26 1159.3) rotate(180)"/><rect class="cls-5" x="1053.89" y="569.95" width="2.13" height="19.4" transform="translate(2109.92 1159.3) rotate(180)"/><rect class="cls-5" x="1043.39" y="579.05" width="23.48" height="2.77" transform="translate(2110.26 1160.87) rotate(180)"/><rect class="cls-8" x="1136.19" y="569.95" width="23.48" height="19.4" rx="4" transform="translate(2295.85 1159.3) rotate(180)"/><rect class="cls-5" x="1146.69" y="569.95" width="2.13" height="19.4" transform="translate(2295.51 1159.3) rotate(180)"/><rect class="cls-5" x="1136.19" y="579.05" width="23.48" height="2.77" transform="translate(2295.85 1160.87) rotate(180)"/><rect class="cls-8" x="1090.35" y="569.95" width="23.48" height="19.4" rx="4" transform="translate(2204.17 1159.3) rotate(180)"/><rect class="cls-5" x="1100.85" y="569.95" width="2.13" height="19.4" transform="translate(2203.83 1159.3) rotate(180)"/><rect class="cls-5" x="1090.35" y="579.05" width="23.48" height="2.77" transform="translate(2204.17 1160.87) rotate(180)"/><rect class="cls-9" x="1186.8" y="489.55" width="102.86" height="207.45" transform="translate(2476.46 1186.54) rotate(180)"/><rect class="cls-2" x="1288.54" y="489.55" width="326.46" height="207.45" transform="translate(2903.54 1186.54) rotate(180)"/><rect class="cls-4" x="1288.54" y="667.15" width="326.46" height="29.85" transform="translate(2903.54 1364.14) rotate(180)"/><rect class="cls-4" x="1186.8" y="613.42" width="428.2" height="11.94" transform="translate(2801.8 1238.78) rotate(180)"/><rect class="cls-3" x="1186.8" y="468.65" width="101.74" height="20.89" transform="translate(2475.35 958.2) rotate(180)"/><rect class="cls-1" x="1262.94" y="471.64" width="9.19" height="13.93" transform="translate(2535.08 957.2) rotate(180)"/><rect class="cls-1" x="1276.07" y="471.64" width="9.19" height="13.93" transform="translate(2561.33 957.2) rotate(180)"/><rect class="cls-1" x="1203.21" y="471.64" width="9.19" height="13.93" transform="translate(2415.62 957.2) rotate(180)"/><rect class="cls-1" x="1215.68" y="471.64" width="9.19" height="13.93" transform="translate(2440.56 957.2) rotate(180)"/><rect class="cls-1" x="1227.5" y="471.64" width="9.19" height="13.93" transform="translate(2464.19 957.2) rotate(180)"/><rect class="cls-1" x="1239.31" y="471.64" width="9.19" height="13.93" transform="translate(2487.82 957.2) rotate(180)"/><rect class="cls-1" x="1251.13" y="471.64" width="9.19" height="13.93" transform="translate(2511.45 957.2) rotate(180)"/><rect class="cls-1" x="1190.74" y="471.64" width="9.19" height="13.93" transform="translate(2390.67 957.2) rotate(180)"/><rect class="cls-10" x="1374.42" y="671.08" width="23.48" height="19.4" rx="4" transform="translate(2772.31 1361.55) rotate(180)"/><rect class="cls-5" x="1385.09" y="671.08" width="2.13" height="19.4" transform="translate(2772.31 1361.55) rotate(180)"/><rect class="cls-5" x="1374.42" y="679.39" width="23.48" height="2.77" transform="translate(2772.31 1361.55) rotate(180)"/><rect class="cls-10" x="1507.43" y="672.33" width="23.48" height="19.4" rx="4" transform="translate(3038.34 1364.07) rotate(180)"/><rect class="cls-5" x="1518.1" y="672.33" width="2.13" height="19.4" transform="translate(3038.34 1364.07) rotate(180)"/><rect class="cls-5" x="1507.43" y="680.65" width="23.48" height="2.77" transform="translate(3038.34 1364.07) rotate(180)"/><rect class="cls-10" x="1311.78" y="672.33" width="23.48" height="19.4" rx="4" transform="translate(2647.04 1364.07) rotate(180)"/><rect class="cls-5" x="1322.45" y="672.33" width="2.13" height="19.4" transform="translate(2647.04 1364.07) rotate(180)"/><rect class="cls-5" x="1311.78" y="680.65" width="23.48" height="2.77" transform="translate(2647.04 1364.07) rotate(180)"/><rect class="cls-10" x="1440.35" y="672.33" width="23.48" height="19.4" rx="4" transform="translate(2904.18 1364.07) rotate(180)"/><rect class="cls-5" x="1451.02" y="672.33" width="2.13" height="19.4" transform="translate(2904.18 1364.07) rotate(180)"/><rect class="cls-5" x="1440.35" y="680.65" width="23.48" height="2.77" transform="translate(2904.18 1364.07) rotate(180)"/><rect class="cls-10" x="1570.04" y="672.33" width="23.48" height="19.4" rx="4" transform="translate(3163.56 1364.07) rotate(180)"/><rect class="cls-5" x="1580.71" y="672.33" width="2.13" height="19.4" transform="translate(3163.56 1364.07) rotate(180)"/><rect class="cls-5" x="1570.04" y="680.65" width="23.48" height="2.77" transform="translate(3163.56 1364.07) rotate(180)"/><rect class="cls-10" x="1225.61" y="671.8" width="23.48" height="19.4" rx="4" transform="translate(2474.69 1363) rotate(-180)"/><rect class="cls-5" x="1236.28" y="671.8" width="2.13" height="19.4" transform="translate(2474.69 1363) rotate(180)"/><rect class="cls-5" x="1225.61" y="680.11" width="23.48" height="2.77" transform="translate(2474.69 1363) rotate(180)"/><rect class="cls-8" x="1225.32" y="551.79" width="22.74" height="41.37" rx="4" transform="translate(2473.39 1144.94) rotate(180)"/><rect class="cls-5" x="1235.66" y="551.79" width="2.07" height="41.37" transform="translate(2473.39 1144.94) rotate(180)"/><rect class="cls-5" x="1225.32" y="571.06" width="22.74" height="2.98" transform="translate(2473.39 1145.11) rotate(180)"/><rect class="cls-8" x="1224.96" y="513.52" width="23.48" height="19.4" rx="4" transform="translate(2473.39 1046.44) rotate(180)"/><rect class="cls-5" x="1235.46" y="513.52" width="2.13" height="19.4" transform="translate(2473.05 1046.44) rotate(180)"/><rect class="cls-5" x="1224.96" y="522.62" width="23.48" height="2.77" transform="translate(2473.39 1048.01) rotate(180)"/><path class="cls-4" d="M1572.52,598.49h17.88c1.23,0,2.24-1.34,2.24-3v-38.8c0-1.65-1-3-2.24-3,0-11.54-17.88-11.54-17.88,0-1.23,0-2.24,1.34-2.24,3v38.8C1570.28,597.15,1571.29,598.49,1572.52,598.49Z"/><rect class="cls-5" x="1580.9" y="544.77" width="1.12" height="53.73" transform="translate(3162.92 1143.26) rotate(180)"/><rect class="cls-5" x="1570.28" y="572.38" width="22.36" height="1.49" transform="translate(3162.92 1146.24) rotate(180)"/><path class="cls-4" d="M1315.07,595.43H1333c1.23,0,2.24-1.34,2.24-3v-38.8c0-1.65-1-3-2.24-3,0-11.54-17.89-11.54-17.89,0-1.23,0-2.23,1.34-2.23,3v38.8C1312.84,594.09,1313.84,595.43,1315.07,595.43Z"/><rect class="cls-5" x="1323.46" y="541.71" width="1.12" height="53.73" transform="translate(2648.03 1137.14) rotate(180)"/><rect class="cls-5" x="1312.84" y="569.32" width="22.36" height="1.49" transform="translate(2648.03 1140.12) rotate(180)"/><path class="cls-4" d="M1443.64,596.93h17.89c1.23,0,2.24-1.35,2.24-3v-38.8c0-1.64-1-3-2.24-3,0-11.54-17.89-11.54-17.89,0-1.23,0-2.23,1.35-2.23,3v38.8C1441.41,595.58,1442.41,596.93,1443.64,596.93Z"/><rect class="cls-5" x="1452.03" y="543.2" width="1.12" height="53.73" transform="translate(2905.17 1140.12) rotate(180)"/><rect class="cls-5" x="1441.41" y="570.81" width="22.36" height="1.49" transform="translate(2905.17 1143.11) rotate(180)"/><path class="cls-4" d="M1377.68,595.43h17.89c1.23,0,2.23-1.34,2.23-3v-38.8c0-1.65-1-3-2.23-3,0-11.54-17.89-11.54-17.89,0-1.23,0-2.24,1.34-2.24,3v38.8C1375.44,594.09,1376.45,595.43,1377.68,595.43Z"/><rect class="cls-5" x="1386.06" y="541.71" width="1.12" height="53.73" transform="translate(2773.25 1137.14) rotate(180)"/><rect class="cls-5" x="1375.44" y="569.32" width="22.36" height="1.49" transform="translate(2773.25 1140.12) rotate(180)"/><path class="cls-4" d="M1510.72,598.42h17.89c1.23,0,2.24-1.34,2.24-3v-38.8c0-1.64-1-3-2.24-3,0-11.55-17.89-11.55-17.89,0-1.23,0-2.23,1.34-2.23,3v38.8C1508.49,597.08,1509.49,598.42,1510.72,598.42Z"/><rect class="cls-5" x="1519.11" y="544.69" width="1.12" height="53.73" transform="translate(3039.33 1143.11) rotate(180)"/><rect class="cls-5" x="1508.49" y="572.3" width="22.36" height="1.49" transform="translate(3039.33 1146.09) rotate(180)"/><rect class="cls-8" x="1569.92" y="635.34" width="23.48" height="19.4" rx="4" transform="translate(3163.31 1290.08) rotate(180)"/><rect class="cls-5" x="1580.42" y="635.34" width="2.13" height="19.4" transform="translate(3162.97 1290.08) rotate(180)"/><rect class="cls-5" x="1569.92" y="644.44" width="23.48" height="2.77" transform="translate(3163.31 1291.66) rotate(180)"/><rect class="cls-8" x="1313.25" y="637.03" width="23.48" height="19.4" rx="4" transform="translate(2649.98 1293.46) rotate(180)"/><rect class="cls-5" x="1323.75" y="637.03" width="2.13" height="19.4" transform="translate(2649.64 1293.46) rotate(180)"/><rect class="cls-5" x="1313.25" y="646.13" width="23.48" height="2.77" transform="translate(2649.98 1295.03) rotate(180)"/><rect class="cls-8" x="1375.86" y="635.54" width="23.48" height="19.4" rx="4" transform="translate(2775.2 1290.48) rotate(180)"/><rect class="cls-5" x="1386.36" y="635.54" width="2.13" height="19.4" transform="translate(2774.86 1290.48) rotate(180)"/><rect class="cls-5" x="1375.86" y="644.64" width="23.48" height="2.77" transform="translate(2775.2 1292.05) rotate(180)"/><rect class="cls-8" x="1440.7" y="637.03" width="23.48" height="19.4" rx="4" transform="translate(2904.89 1293.46) rotate(-180)"/><rect class="cls-5" x="1451.21" y="637.03" width="2.13" height="19.4" transform="translate(2904.55 1293.46) rotate(180)"/><rect class="cls-5" x="1440.7" y="646.13" width="23.48" height="2.77" transform="translate(2904.89 1295.03) rotate(180)"/><rect class="cls-8" x="1507.78" y="635.54" width="23.48" height="19.4" rx="4" transform="translate(3039.05 1290.48) rotate(180)"/><rect class="cls-5" x="1518.29" y="635.54" width="2.13" height="19.4" transform="translate(3038.71 1290.48) rotate(180)"/><rect class="cls-5" x="1507.78" y="644.64" width="23.48" height="2.77" transform="translate(3039.05 1292.05) rotate(180)"/><rect class="cls-4" x="1570" y="505.51" width="23.48" height="19.4" rx="4" transform="translate(3163.47 1030.43) rotate(180)"/><rect class="cls-5" x="1580.67" y="505.51" width="2.13" height="19.4" transform="translate(3163.47 1030.43) rotate(180)"/><rect class="cls-5" x="1570" y="513.83" width="23.48" height="2.77" transform="translate(3163.47 1030.43) rotate(180)"/><rect class="cls-4" x="1312.59" y="507.09" width="23.48" height="19.4" rx="4" transform="translate(2648.65 1033.58) rotate(180)"/><rect class="cls-5" x="1323.26" y="507.09" width="2.13" height="19.4" transform="translate(2648.65 1033.58) rotate(180)"/><rect class="cls-5" x="1312.59" y="515.4" width="23.48" height="2.77" transform="translate(2648.65 1033.58) rotate(180)"/><rect class="cls-4" x="1374.08" y="507.09" width="23.48" height="19.4" rx="4" transform="translate(2771.63 1033.58) rotate(180)"/><rect class="cls-5" x="1384.75" y="507.09" width="2.13" height="19.4" transform="translate(2771.63 1033.58) rotate(180)"/><rect class="cls-5" x="1374.08" y="515.4" width="23.48" height="2.77" transform="translate(2771.63 1033.58) rotate(180)"/><rect class="cls-4" x="1441.16" y="505.6" width="23.48" height="19.4" rx="4" transform="translate(2905.79 1030.59) rotate(180)"/><rect class="cls-5" x="1451.83" y="505.6" width="2.13" height="19.4" transform="translate(2905.79 1030.59) rotate(180)"/><rect class="cls-5" x="1441.16" y="513.91" width="23.48" height="2.77" transform="translate(2905.79 1030.59) rotate(180)"/><rect class="cls-4" x="1507.12" y="505.6" width="23.48" height="19.4" rx="4" transform="translate(3037.72 1030.59) rotate(180)"/><rect class="cls-5" x="1517.79" y="505.6" width="2.13" height="19.4" transform="translate(3037.72 1030.59) rotate(180)"/><rect class="cls-5" x="1507.12" y="513.91" width="23.48" height="2.77" transform="translate(3037.72 1030.59) rotate(180)"/><rect class="cls-8" x="1225.99" y="638.61" width="23.48" height="19.4" rx="4" transform="translate(2475.45 1296.63) rotate(180)"/><rect class="cls-5" x="1236.49" y="638.61" width="2.13" height="19.4" transform="translate(2475.11 1296.63) rotate(180)"/><rect class="cls-5" x="1225.99" y="647.71" width="23.48" height="2.77" transform="translate(2475.45 1298.2) rotate(180)"/><polygon class="cls-7" points="1580.79 422.53 1614.77 489.55 1546.8 489.55 1580.79 422.53"/><polygon class="cls-7" points="1322.85 422.53 1356.83 489.55 1288.86 489.55 1322.85 422.53"/><rect class="cls-7" x="1323.2" y="422.39" width="257.14" height="67.16" transform="translate(2903.54 911.93) rotate(180)"/><polygon class="cls-7" points="1480.03 359.99 1581.46 423.88 1378.6 423.88 1480.03 359.99"/><polygon class="cls-7" points="1422.39 359.99 1523.82 423.88 1320.96 423.88 1422.39 359.99"/><rect class="cls-7" x="1422.6" y="359.7" width="57.54" height="58.21" transform="translate(2902.75 777.61) rotate(180)"/><polygon class="cls-11" points="281.5 697 -77 1090 640 1090 281.5 697"/><rect class="cls-11" x="282" y="695" width="1334" height="395"/><polygon class="cls-11" points="1616.98 696 1258.48 1089 1975.48 1089 1616.98 696"/><ellipse class="cls-12" cx="380.06" cy="162.31" rx="2.35" ry="2.44"/><ellipse class="cls-12" cx="174.55" cy="195.81" rx="36.49" ry="37.93"/><ellipse class="cls-12" cx="243.05" cy="161.87" rx="44.82" ry="46.59"/><ellipse class="cls-12" cx="316.04" cy="180.06" rx="36.28" ry="37.71"/><ellipse class="cls-12" cx="377.5" cy="192.04" rx="32.87" ry="34.16"/><ellipse class="cls-12" cx="344.63" cy="239.51" rx="35.43" ry="36.83"/><ellipse class="cls-12" cx="279.76" cy="247.06" rx="49.51" ry="51.47"/><ellipse class="cls-12" cx="211.25" cy="247.28" rx="35.64" ry="37.05"/><ellipse class="cls-12" cx="276.13" cy="203.02" rx="89.85" ry="36.49"/><ellipse class="cls-12" cx="763.15" cy="248.47" rx="1.54" ry="1.58"/><ellipse class="cls-12" cx="628.53" cy="270.18" rx="23.9" ry="24.58"/><ellipse class="cls-12" cx="673.4" cy="248.19" rx="29.36" ry="30.19"/><ellipse class="cls-12" cx="721.21" cy="259.97" rx="23.77" ry="24.44"/><ellipse class="cls-12" cx="761.47" cy="267.74" rx="21.53" ry="22.14"/><ellipse class="cls-12" cx="739.94" cy="298.5" rx="23.21" ry="23.86"/><ellipse class="cls-12" cx="697.45" cy="303.39" rx="32.43" ry="33.35"/><ellipse class="cls-12" cx="652.57" cy="303.53" rx="23.35" ry="24.01"/><ellipse class="cls-12" cx="695.07" cy="274.85" rx="58.85" ry="23.65"/><ellipse class="cls-12" cx="1505.92" cy="233.15" rx="2.56" ry="2.47" transform="translate(-17.15 183.91) rotate(-6.95)"/><ellipse class="cls-12" cx="1724.63" cy="172.33" rx="39.86" ry="38.4" transform="translate(-8.18 209.92) rotate(-6.95)"/><ellipse class="cls-12" cx="1654.52" cy="215.49" rx="48.95" ry="47.16" transform="translate(-13.92 201.76) rotate(-6.95)"/><ellipse class="cls-12" cx="1573.16" cy="206.86" rx="39.62" ry="38.17" transform="translate(-13.47 191.85) rotate(-6.95)"/><ellipse class="cls-12" cx="1505.06" cy="202.94" rx="35.89" ry="34.58" transform="translate(-13.5 183.58) rotate(-6.95)"/><ellipse class="cls-12" cx="1534.88" cy="150.9" rx="38.69" ry="37.28" transform="translate(-6.98 186.81) rotate(-6.95)"/><ellipse class="cls-12" cx="1604.29" cy="134.74" rx="54.07" ry="52.1" transform="translate(-4.52 195.09) rotate(-6.95)"/><ellipse class="cls-12" cx="1678.53" cy="125.47" rx="38.92" ry="37.5" transform="translate(-2.85 204) rotate(-6.95)"/><ellipse class="cls-12" cx="1613.61" cy="178.51" rx="98.13" ry="36.94" transform="translate(-9.74 196.54) rotate(-6.95)"/><ellipse class="cls-12" cx="1290.5" cy="265.76" rx="1.36" ry="0.92"/><ellipse class="cls-12" cx="1171.85" cy="278.4" rx="21.07" ry="14.32"/><ellipse class="cls-12" cx="1211.4" cy="265.59" rx="25.87" ry="17.59"/><ellipse class="cls-12" cx="1253.54" cy="272.46" rx="20.95" ry="14.24"/><ellipse class="cls-12" cx="1289.03" cy="276.98" rx="18.97" ry="12.9"/><ellipse class="cls-12" cx="1270.05" cy="294.9" rx="20.45" ry="13.9"/><ellipse class="cls-12" cx="1232.59" cy="297.75" rx="28.59" ry="19.43"/><ellipse class="cls-12" cx="1193.04" cy="297.83" rx="20.58" ry="13.99"/><ellipse class="cls-12" cx="1230.5" cy="281.12" rx="51.87" ry="13.78"/><polygon class="cls-13" points="1379.12 851 263.12 857 625.12 792 1698.12 785 1379.12 851"/></svg>