<svg id="Layer_1" data-name="Layer 1" xmlns="http://www.w3.org/2000/svg" width="166" height="226" viewBox="0 0 166 226"><defs><style>.cls-1,.cls-2{fill:#fff5c9;}.cls-1{stroke:#000;stroke-miterlimit:10;stroke-width:5px;}.cls-3{fill:#0a2dff;}</style></defs><rect class="cls-1" x="2.5" y="2.5" width="161" height="221"/><path class="cls-2" d="M33.52,54.84A533.49,533.49,0,0,1,131.77,186.9"/><path class="cls-3" d="M28.22,60.14a533.25,533.25,0,0,1,43.11,47.78c1.69,2.11,3.38,4.24,5,6.39-.07-.09-1.12-1.46-.36-.48l.53.7,1.2,1.57q1.27,1.66,2.52,3.33,4.82,6.42,9.43,13,9.22,13.13,17.65,26.78,9.53,15.44,18,31.48a7.57,7.57,0,0,0,10.26,2.7,7.67,7.67,0,0,0,2.69-10.27,535.29,535.29,0,0,0-33.49-55.2A552.54,552.54,0,0,0,64,76Q51.86,62.33,38.82,49.53c-2.8-2.75-7.85-3-10.6,0a7.63,7.63,0,0,0,0,10.61Z"/><path class="cls-2" d="M49.34,156.05q39.32-54.21,79.47-107.83"/><path class="cls-3" d="M55.82,159.84q15.36-21.19,30.85-42.28t31-41.9Q126.44,63.83,135.29,52c1.09-1.45,1.21-4.11.75-5.78A7.48,7.48,0,0,0,126.82,41a8.69,8.69,0,0,0-4.48,3.44q-15.69,21-31.25,42t-30.86,42q-8.7,11.92-17.37,23.87a7.57,7.57,0,0,0-.75,5.78,7.65,7.65,0,0,0,3.44,4.48,7.54,7.54,0,0,0,5.78.75,8.61,8.61,0,0,0,4.49-3.44Z"/></svg>