<svg id="Layer_1" data-name="Layer 1" xmlns="http://www.w3.org/2000/svg" width="1920" height="1080" viewBox="0 0 1920 1080"><defs><style>.cls-1{fill:#b4edff;}.cls-2{fill:#999;}.cls-3{fill:#754c24;}.cls-4{fill:#666;}.cls-5{fill:#ccc;}.cls-6{fill:gray;}.cls-7{fill:#8cc63f;}.cls-8{fill:#4d4d4d;}.cls-9{fill:#42210b;}.cls-10{fill:#b4efff;}.cls-11{fill:#c69c6d;}.cls-12,.cls-23,.cls-24,.cls-28,.cls-29,.cls-30{fill:#fff;}.cls-13{fill:#404a4c;}.cls-14{fill:#ffedc9;}.cls-15{fill:#7f0015;}.cls-16,.cls-17{fill:#f40000;}.cls-17{stroke:#000;stroke-width:4px;}.cls-17,.cls-19{stroke-miterlimit:10;}.cls-18{fill:#ffa18a;}.cls-19{fill:#c9ffaa;stroke:#80ff74;stroke-width:16px;}.cls-20,.cls-21,.cls-22,.cls-23,.cls-24,.cls-25,.cls-26,.cls-27,.cls-28,.cls-29,.cls-30{isolation:isolate;}.cls-21,.cls-22,.cls-23,.cls-24{font-size:58px;}.cls-21,.cls-22,.cls-23,.cls-24,.cls-25,.cls-26,.cls-27,.cls-28,.cls-29,.cls-30{font-family:ArialRoundedMTBold, Arial Rounded MT Bold;}.cls-22,.cls-24{letter-spacing:-0.06em;}.cls-25,.cls-26,.cls-27,.cls-28,.cls-29,.cls-30{font-size:45px;}.cls-26,.cls-29{letter-spacing:-0.04em;}.cls-27,.cls-30{letter-spacing:-0.02em;}</style></defs><rect class="cls-1" x="-0.02" y="1.72" width="1918" height="1086"/><rect class="cls-2" x="882.92" y="491.51" width="129.57" height="210.43"/><rect class="cls-3" x="882.92" y="642.25" width="129.57" height="7.46"/><rect class="cls-4" x="936.16" y="579.27" width="23.84" height="51.04" rx="4"/><rect class="cls-5" x="946.99" y="579.27" width="2.17" height="51.04"/><rect class="cls-5" x="936.16" y="602.64" width="23.84" height="3.79"/><rect class="cls-4" x="936.16" y="515.52" width="22.72" height="41.37" rx="4"/><rect class="cls-5" x="946.48" y="515.52" width="2.07" height="41.37"/><rect class="cls-5" x="936.16" y="534.79" width="22.72" height="2.98"/><rect class="cls-3" x="932.07" y="672.95" width="31.28" height="29"/><ellipse class="cls-3" cx="947.71" cy="671.5" rx="15.64" ry="20.3"/><rect class="cls-6" x="947.17" y="651.2" width="1.08" height="50.74"/><polygon class="cls-6" points="944.51 666.35 936.4 673.51 935.8 672.3 943.92 665.14 944.51 666.35"/><polygon class="cls-6" points="945.23 684.34 937.12 691.5 936.53 690.29 944.64 683.13 945.23 684.34"/><polygon class="cls-6" points="945.23 675.64 937.12 682.8 936.53 681.59 944.64 674.43 945.23 675.64"/><polygon class="cls-6" points="958.28 683.36 950.83 674.99 951.53 673.87 958.97 682.25 958.28 683.36"/><polygon class="cls-6" points="958.28 692.06 950.83 683.68 951.53 682.57 958.97 690.95 958.28 692.06"/><polygon class="cls-6" points="958.28 674.66 950.83 666.29 951.53 665.17 958.97 673.55 958.28 674.66"/><polygon class="cls-7" points="996.08 444.73 979.2 469.08 1012.91 469.07 996.08 444.73"/><polygon class="cls-7" points="900.32 444.76 883.44 469.12 917.15 469.11 900.32 444.76"/><polygon class="cls-7" points="996.07 469.08 900.35 469.12 900.38 444.76 996.09 444.73 996.07 469.08"/><polygon class="cls-7" points="996.09 446.75 900.37 446.79 900.51 334.17 996.22 334.13 996.09 446.75"/><path class="cls-1" d="M967,436.62H933.31l.07-53.77c0-23.83,33.72-23.85,33.69,0Z"/><polygon class="cls-7" points="901.39 337.31 892.01 315.59 910.91 315.65 901.39 337.31"/><polygon class="cls-7" points="995.4 338.04 986.02 316.32 1004.91 316.38 995.4 338.04"/><rect class="cls-7" x="935.4" y="282.1" width="25.37" height="94.95" transform="translate(615.7 1276.68) rotate(-89.83)"/><polygon class="cls-7" points="920.5 350.16 897.54 297.03 943.78 297.17 920.5 350.16"/><polygon class="cls-7" points="974.94 350.26 951.98 297.13 998.22 297.27 974.94 350.26"/><rect class="cls-7" x="933.06" y="290.5" width="32.47" height="46.71" transform="translate(632.62 1262.21) rotate(-89.83)"/><ellipse class="cls-7" cx="949.05" cy="277.84" rx="26.89" ry="53.6" transform="translate(668.4 1226.06) rotate(-89.83)"/><rect class="cls-7" x="915.03" y="210.58" width="68.99" height="54.37" transform="translate(708.94 1186.58) rotate(-89.83)"/><rect class="cls-1" x="910.25" y="226.27" width="42.61" height="4.59" transform="translate(700.23 1159.44) rotate(-89.83)"/><rect class="cls-1" x="937.05" y="226.35" width="42.61" height="4.59" transform="translate(726.87 1186.32) rotate(-89.83)"/><rect class="cls-1" x="927.86" y="226.33" width="42.61" height="4.59" transform="translate(717.72 1177.11) rotate(-89.83)"/><rect class="cls-1" x="919.44" y="226.3" width="42.61" height="4.59" transform="translate(709.36 1168.66) rotate(-89.83)"/><rect class="cls-1" x="947" y="226.39" width="42.61" height="4.59" transform="translate(736.75 1196.31) rotate(-89.83)"/><polygon class="cls-7" points="949.9 129.2 922.49 203.18 976.85 203.35 949.9 129.2"/><path class="cls-7" d="M975,207.4l-51.46-.15a4.12,4.12,0,0,1-4.12-4.07h0a4.12,4.12,0,0,1,4.15-4l51.46.15a4.1,4.1,0,0,1,4.12,4.07h0A4.1,4.1,0,0,1,975,207.4Z"/><ellipse class="cls-7" cx="949.93" cy="142.9" rx="15.73" ry="13.4" transform="translate(803.72 1092.33) rotate(-89.8)"/><ellipse class="cls-7" cx="937.59" cy="138.65" rx="7.42" ry="10.44" transform="translate(123.89 624.64) rotate(-39.26)"/><ellipse class="cls-1" cx="937.33" cy="138.47" rx="4.38" ry="7.68" transform="translate(207.23 742.39) rotate(-48)"/><ellipse class="cls-7" cx="962.09" cy="138.47" rx="10.3" ry="7.44" transform="translate(296.58 846.91) rotate(-54.98)"/><ellipse class="cls-1" cx="961.84" cy="138.61" rx="7.53" ry="4.41" transform="translate(181.88 718.28) rotate(-44.82)"/><ellipse class="cls-7" cx="948.86" cy="127.52" rx="12.68" ry="6.28" transform="translate(811.87 1075.06) rotate(-89.43)"/><ellipse class="cls-1" cx="949.41" cy="127.29" rx="9.51" ry="3.63" transform="translate(811.03 1075.15) rotate(-89.33)"/><rect class="cls-7" x="925.98" y="124.52" width="47.72" height="2.22" transform="translate(821.39 1075.09) rotate(-89.83)"/><polygon class="cls-7" points="946.17 103.89 935.46 103.72 940.94 90.7 946.17 103.89"/><polygon class="cls-7" points="964.22 104.17 953.51 104 958.99 90.99 964.22 104.17"/><polygon class="cls-7" points="957.73 104.09 942.56 103.82 950.3 85.42 957.73 104.09"/><polygon class="cls-1" points="950.14 90.34 945.87 99.67 954.35 99.7 950.14 90.34"/><polygon class="cls-1" points="958.95 95.04 956.7 99.7 961.17 99.72 958.95 95.04"/><polygon class="cls-1" points="941 94.98 938.76 99.65 943.22 99.66 941 94.98"/><polygon class="cls-7" points="937.25 74.7 943.24 79.59 943.26 69.83 937.25 74.7"/><rect class="cls-7" x="942.14" y="71.17" width="8.77" height="7.4" transform="translate(868.85 1021.17) rotate(-89.83)"/><rect class="cls-7" x="934.05" y="71.39" width="32.59" height="1.24" transform="translate(875.52 1022.14) rotate(-89.83)"/><rect class="cls-7" x="949.9" y="58.35" width="0.54" height="8.4" transform="translate(884.8 1012.53) rotate(-89.83)"/><rect class="cls-3" x="882.92" y="467.63" width="129.57" height="23.88"/><rect class="cls-6" x="709.79" y="558.67" width="173.13" height="143.27"/><rect class="cls-7" x="709.79" y="497.48" width="173.13" height="61.19"/><rect class="cls-4" x="784.63" y="527.33" width="23.46" height="19.4" rx="4"/><rect class="cls-5" x="795.29" y="527.33" width="2.13" height="19.4"/><rect class="cls-5" x="784.63" y="535.64" width="23.46" height="2.77"/><rect class="cls-4" x="831.62" y="528.23" width="23.46" height="19.4" rx="4"/><rect class="cls-5" x="842.29" y="528.23" width="2.13" height="19.4"/><rect class="cls-5" x="831.62" y="536.54" width="23.46" height="2.77"/><rect class="cls-4" x="736.68" y="526.74" width="23.46" height="19.4" rx="4"/><rect class="cls-5" x="747.34" y="526.74" width="2.13" height="19.4"/><rect class="cls-5" x="736.68" y="535.05" width="23.46" height="2.77"/><rect class="cls-8" x="736.96" y="615.97" width="22.72" height="41.37" rx="4"/><rect class="cls-5" x="747.29" y="615.97" width="2.07" height="41.37"/><rect class="cls-5" x="736.96" y="635.24" width="22.72" height="2.98"/><rect class="cls-8" x="830.85" y="618.48" width="22.72" height="41.37" rx="4"/><rect class="cls-5" x="841.18" y="618.48" width="2.07" height="41.37"/><rect class="cls-5" x="830.85" y="637.76" width="22.72" height="2.98"/><rect class="cls-8" x="782.82" y="616.99" width="22.72" height="41.37" rx="4"/><rect class="cls-5" x="793.15" y="616.99" width="2.07" height="41.37"/><rect class="cls-5" x="782.82" y="636.27" width="22.72" height="2.98"/><rect class="cls-8" x="735.48" y="673.59" width="23.46" height="19.4" rx="4"/><rect class="cls-5" x="746.31" y="673.59" width="2.13" height="19.4"/><rect class="cls-5" x="735.48" y="682.69" width="23.46" height="2.77"/><rect class="cls-8" x="781.98" y="673.75" width="23.46" height="19.4" rx="4"/><rect class="cls-5" x="792.81" y="673.75" width="2.13" height="19.4"/><rect class="cls-5" x="781.98" y="682.85" width="23.46" height="2.77"/><rect class="cls-8" x="830.01" y="673.75" width="23.46" height="19.4" rx="4"/><rect class="cls-5" x="840.84" y="673.75" width="2.13" height="19.4"/><rect class="cls-5" x="830.01" y="682.85" width="23.46" height="2.77"/><rect class="cls-8" x="829.61" y="574.9" width="23.46" height="19.4" rx="4"/><rect class="cls-5" x="840.44" y="574.9" width="2.13" height="19.4"/><rect class="cls-5" x="829.61" y="584" width="23.46" height="2.77"/><rect class="cls-8" x="736.9" y="574.9" width="23.46" height="19.4" rx="4"/><rect class="cls-5" x="747.73" y="574.9" width="2.13" height="19.4"/><rect class="cls-5" x="736.9" y="584" width="23.46" height="2.77"/><rect class="cls-8" x="782.7" y="574.9" width="23.46" height="19.4" rx="4"/><rect class="cls-5" x="793.53" y="574.9" width="2.13" height="19.4"/><rect class="cls-5" x="782.7" y="584" width="23.46" height="2.77"/><rect class="cls-9" x="607.02" y="494.49" width="102.76" height="207.45"/><rect class="cls-2" x="281.98" y="494.49" width="326.16" height="207.45"/><rect class="cls-4" x="281.98" y="672.1" width="326.16" height="29.85"/><rect class="cls-4" x="281.98" y="618.37" width="427.81" height="11.94"/><rect class="cls-3" x="608.14" y="473.6" width="101.65" height="20.89"/><rect class="cls-1" x="624.54" y="476.59" width="9.18" height="13.93"/><rect class="cls-1" x="611.42" y="476.59" width="9.18" height="13.93"/><rect class="cls-1" x="684.21" y="476.59" width="9.18" height="13.93"/><rect class="cls-1" x="671.75" y="476.59" width="9.18" height="13.93"/><rect class="cls-1" x="659.95" y="476.59" width="9.18" height="13.93"/><rect class="cls-1" x="648.14" y="476.59" width="9.18" height="13.93"/><rect class="cls-1" x="636.34" y="476.59" width="9.18" height="13.93"/><rect class="cls-1" x="696.67" y="476.59" width="9.18" height="13.93"/><rect class="cls-10" x="498.89" y="676.02" width="23.46" height="19.4" rx="4"/><rect class="cls-5" x="509.55" y="676.02" width="2.13" height="19.4"/><rect class="cls-5" x="498.89" y="684.34" width="23.46" height="2.77"/><rect class="cls-10" x="365.99" y="677.28" width="23.46" height="19.4" rx="4"/><rect class="cls-5" x="376.66" y="677.28" width="2.13" height="19.4"/><rect class="cls-5" x="365.99" y="685.6" width="23.46" height="2.77"/><rect class="cls-10" x="561.47" y="677.28" width="23.46" height="19.4" rx="4"/><rect class="cls-5" x="572.13" y="677.28" width="2.13" height="19.4"/><rect class="cls-5" x="561.47" y="685.6" width="23.46" height="2.77"/><rect class="cls-10" x="433.01" y="677.28" width="23.46" height="19.4" rx="4"/><rect class="cls-5" x="443.67" y="677.28" width="2.13" height="19.4"/><rect class="cls-5" x="433.01" y="685.6" width="23.46" height="2.77"/><rect class="cls-10" x="303.44" y="677.28" width="23.46" height="19.4" rx="4"/><rect class="cls-5" x="314.1" y="677.28" width="2.13" height="19.4"/><rect class="cls-5" x="303.44" y="685.6" width="23.46" height="2.77"/><rect class="cls-10" x="647.56" y="676.75" width="23.46" height="19.4" rx="4"/><rect class="cls-5" x="658.22" y="676.75" width="2.13" height="19.4"/><rect class="cls-5" x="647.56" y="685.06" width="23.46" height="2.77"/><rect class="cls-8" x="648.58" y="556.74" width="22.72" height="41.37" rx="4"/><rect class="cls-5" x="658.91" y="556.74" width="2.07" height="41.37"/><rect class="cls-5" x="648.58" y="576.01" width="22.72" height="2.98"/><rect class="cls-8" x="648.21" y="518.47" width="23.46" height="19.4" rx="4"/><rect class="cls-5" x="659.05" y="518.47" width="2.13" height="19.4"/><rect class="cls-5" x="648.21" y="527.57" width="23.46" height="2.77"/><path class="cls-4" d="M324.42,603.44H306.55c-1.23,0-2.23-1.34-2.23-3V561.65c0-1.64,1-3,2.23-3,0-11.55,17.87-11.55,17.87,0,1.23,0,2.24,1.34,2.24,3v38.81C326.66,602.1,325.65,603.44,324.42,603.44Z"/><rect class="cls-5" x="314.93" y="549.72" width="1.12" height="53.73"/><rect class="cls-5" x="304.32" y="577.33" width="22.34" height="1.49"/><path class="cls-4" d="M581.64,600.38H563.76c-1.22,0-2.23-1.34-2.23-3V558.59c0-1.64,1-3,2.23-3,0-11.55,17.88-11.55,17.88,0,1.22,0,2.23,1.34,2.23,3V597.4C583.87,599,582.86,600.38,581.64,600.38Z"/><rect class="cls-5" x="572.14" y="546.65" width="1.12" height="53.73"/><rect class="cls-5" x="561.53" y="574.26" width="22.34" height="1.49"/><path class="cls-4" d="M453.18,601.88H435.31c-1.23,0-2.23-1.35-2.23-3v-38.8c0-1.64,1-3,2.23-3,0-11.54,17.87-11.54,17.87,0,1.23,0,2.24,1.35,2.24,3v38.8C455.42,600.53,454.41,601.88,453.18,601.88Z"/><rect class="cls-5" x="443.69" y="548.15" width="1.12" height="53.73"/><rect class="cls-5" x="433.08" y="575.76" width="22.34" height="1.49"/><path class="cls-4" d="M519.08,600.38H501.21c-1.23,0-2.23-1.34-2.23-3V558.59c0-1.64,1-3,2.23-3,0-11.55,17.87-11.55,17.87,0,1.23,0,2.24,1.34,2.24,3V597.4C521.32,599,520.31,600.38,519.08,600.38Z"/><rect class="cls-5" x="509.59" y="546.65" width="1.12" height="53.73"/><rect class="cls-5" x="498.98" y="574.26" width="22.34" height="1.49"/><path class="cls-4" d="M386.16,603.37H368.29c-1.23,0-2.23-1.35-2.23-3v-38.8c0-1.64,1-3,2.23-3,0-11.54,17.87-11.54,17.87,0,1.23,0,2.24,1.35,2.24,3v38.8C388.4,602,387.39,603.37,386.16,603.37Z"/><rect class="cls-5" x="376.67" y="549.64" width="1.12" height="53.73"/><rect class="cls-5" x="366.06" y="577.25" width="22.34" height="1.49"/><rect class="cls-8" x="303.56" y="640.29" width="23.46" height="19.4" rx="4"/><rect class="cls-5" x="314.4" y="640.29" width="2.13" height="19.4"/><rect class="cls-5" x="303.56" y="649.39" width="23.46" height="2.77"/><rect class="cls-8" x="560" y="641.98" width="23.46" height="19.4" rx="4"/><rect class="cls-5" x="570.83" y="641.98" width="2.13" height="19.4"/><rect class="cls-5" x="560" y="651.08" width="23.46" height="2.77"/><rect class="cls-8" x="497.45" y="640.49" width="23.46" height="19.4" rx="4"/><rect class="cls-5" x="508.28" y="640.49" width="2.13" height="19.4"/><rect class="cls-5" x="497.45" y="649.59" width="23.46" height="2.77"/><rect class="cls-8" x="432.66" y="641.98" width="23.46" height="19.4" rx="4"/><rect class="cls-5" x="443.49" y="641.98" width="2.13" height="19.4"/><rect class="cls-5" x="432.66" y="651.08" width="23.46" height="2.77"/><rect class="cls-8" x="365.64" y="640.49" width="23.46" height="19.4" rx="4"/><rect class="cls-5" x="376.47" y="640.49" width="2.13" height="19.4"/><rect class="cls-5" x="365.64" y="649.59" width="23.46" height="2.77"/><rect class="cls-4" x="303.48" y="510.46" width="23.46" height="19.4" rx="4"/><rect class="cls-5" x="314.15" y="510.46" width="2.13" height="19.4"/><rect class="cls-5" x="303.48" y="518.78" width="23.46" height="2.77"/><rect class="cls-4" x="560.66" y="512.04" width="23.46" height="19.4" rx="4"/><rect class="cls-5" x="571.32" y="512.04" width="2.13" height="19.4"/><rect class="cls-5" x="560.66" y="520.35" width="23.46" height="2.77"/><rect class="cls-4" x="499.23" y="512.04" width="23.46" height="19.4" rx="4"/><rect class="cls-5" x="509.89" y="512.04" width="2.13" height="19.4"/><rect class="cls-5" x="499.23" y="520.35" width="23.46" height="2.77"/><rect class="cls-4" x="432.21" y="510.54" width="23.46" height="19.4" rx="4"/><rect class="cls-5" x="442.87" y="510.54" width="2.13" height="19.4"/><rect class="cls-5" x="432.21" y="518.86" width="23.46" height="2.77"/><rect class="cls-4" x="366.31" y="510.54" width="23.46" height="19.4" rx="4"/><rect class="cls-5" x="376.97" y="510.54" width="2.13" height="19.4"/><rect class="cls-5" x="366.31" y="518.86" width="23.46" height="2.77"/><rect class="cls-8" x="647.18" y="643.56" width="23.46" height="19.4" rx="4"/><rect class="cls-5" x="658.01" y="643.56" width="2.13" height="19.4"/><rect class="cls-5" x="647.18" y="652.66" width="23.46" height="2.77"/><polygon class="cls-7" points="316.16 427.48 282.2 494.5 350.12 494.5 316.16 427.48"/><polygon class="cls-7" points="573.87 427.48 539.91 494.5 607.82 494.5 573.87 427.48"/><rect class="cls-7" x="316.61" y="427.33" width="256.91" height="67.16"/><polygon class="cls-7" points="416.83 364.93 315.49 428.83 518.16 428.83 416.83 364.93"/><polygon class="cls-7" points="474.41 364.93 373.07 428.83 575.75 428.83 474.41 364.93"/><rect class="cls-7" x="416.71" y="364.65" width="57.49" height="58.21"/><rect class="cls-6" x="1012.49" y="558.44" width="173.29" height="143.27"/><rect class="cls-7" x="1012.49" y="497.24" width="173.29" height="61.19"/><rect class="cls-4" x="1087.39" y="527.09" width="23.48" height="19.4" rx="4"/><rect class="cls-5" x="1098.07" y="527.09" width="2.13" height="19.4"/><rect class="cls-5" x="1087.39" y="535.41" width="23.48" height="2.77"/><rect class="cls-4" x="1040.35" y="527.99" width="23.48" height="19.4" rx="4"/><rect class="cls-5" x="1051.03" y="527.99" width="2.13" height="19.4"/><rect class="cls-5" x="1040.35" y="536.31" width="23.48" height="2.77"/><rect class="cls-4" x="1135.38" y="526.51" width="23.48" height="19.4" rx="4"/><rect class="cls-5" x="1146.06" y="526.51" width="2.13" height="19.4"/><rect class="cls-5" x="1135.38" y="534.82" width="23.48" height="2.77"/><rect class="cls-8" x="1135.85" y="615.74" width="22.74" height="41.37" rx="4"/><rect class="cls-5" x="1146.18" y="615.74" width="2.07" height="41.37"/><rect class="cls-5" x="1135.85" y="635.01" width="22.74" height="2.98"/><rect class="cls-8" x="1041.86" y="618.25" width="22.74" height="41.37" rx="4"/><rect class="cls-5" x="1052.2" y="618.25" width="2.07" height="41.37"/><rect class="cls-5" x="1041.86" y="637.53" width="22.74" height="2.98"/><rect class="cls-8" x="1089.94" y="616.76" width="22.74" height="41.37" rx="4"/><rect class="cls-5" x="1100.27" y="616.76" width="2.07" height="41.37"/><rect class="cls-5" x="1089.94" y="636.04" width="22.74" height="2.98"/><rect class="cls-8" x="1136.59" y="673.35" width="23.48" height="19.4" rx="4"/><rect class="cls-5" x="1147.1" y="673.35" width="2.13" height="19.4"/><rect class="cls-5" x="1136.59" y="682.45" width="23.48" height="2.77"/><rect class="cls-8" x="1090.05" y="673.52" width="23.48" height="19.4" rx="4"/><rect class="cls-5" x="1100.56" y="673.52" width="2.13" height="19.4"/><rect class="cls-5" x="1090.05" y="682.62" width="23.48" height="2.77"/><rect class="cls-8" x="1041.97" y="673.52" width="23.48" height="19.4" rx="4"/><rect class="cls-5" x="1052.48" y="673.52" width="2.13" height="19.4"/><rect class="cls-5" x="1041.97" y="682.62" width="23.48" height="2.77"/><rect class="cls-8" x="1042.37" y="574.67" width="23.48" height="19.4" rx="4"/><rect class="cls-5" x="1052.88" y="574.67" width="2.13" height="19.4"/><rect class="cls-5" x="1042.37" y="583.77" width="23.48" height="2.77"/><rect class="cls-8" x="1135.17" y="574.67" width="23.48" height="19.4" rx="4"/><rect class="cls-5" x="1145.67" y="574.67" width="2.13" height="19.4"/><rect class="cls-5" x="1135.17" y="583.77" width="23.48" height="2.77"/><rect class="cls-8" x="1089.32" y="574.67" width="23.48" height="19.4" rx="4"/><rect class="cls-5" x="1099.83" y="574.67" width="2.13" height="19.4"/><rect class="cls-5" x="1089.32" y="583.77" width="23.48" height="2.77"/><rect class="cls-9" x="1185.78" y="494.26" width="102.86" height="207.45"/><rect class="cls-2" x="1287.52" y="494.26" width="326.46" height="207.45"/><rect class="cls-4" x="1287.52" y="671.86" width="326.46" height="29.85"/><rect class="cls-4" x="1185.78" y="618.13" width="428.2" height="11.94"/><rect class="cls-3" x="1185.78" y="473.37" width="101.74" height="20.89"/><rect class="cls-1" x="1261.92" y="476.36" width="9.19" height="13.93"/><rect class="cls-1" x="1275.05" y="476.36" width="9.19" height="13.93"/><rect class="cls-1" x="1202.19" y="476.36" width="9.19" height="13.93"/><rect class="cls-1" x="1214.67" y="476.36" width="9.19" height="13.93"/><rect class="cls-1" x="1226.48" y="476.36" width="9.19" height="13.93"/><rect class="cls-1" x="1238.3" y="476.36" width="9.19" height="13.93"/><rect class="cls-1" x="1250.1" y="476.36" width="9.19" height="13.93"/><rect class="cls-1" x="1189.72" y="476.36" width="9.19" height="13.93"/><rect class="cls-10" x="1373.39" y="675.8" width="23.48" height="19.4" rx="4"/><rect class="cls-5" x="1384.07" y="675.8" width="2.13" height="19.4"/><rect class="cls-5" x="1373.39" y="684.11" width="23.48" height="2.77"/><rect class="cls-10" x="1506.41" y="677.05" width="23.48" height="19.4" rx="4"/><rect class="cls-5" x="1517.09" y="677.05" width="2.13" height="19.4"/><rect class="cls-5" x="1506.41" y="685.37" width="23.48" height="2.77"/><rect class="cls-10" x="1310.76" y="677.05" width="23.48" height="19.4" rx="4"/><rect class="cls-5" x="1321.44" y="677.05" width="2.13" height="19.4"/><rect class="cls-5" x="1310.76" y="685.37" width="23.48" height="2.77"/><rect class="cls-10" x="1439.33" y="677.05" width="23.48" height="19.4" rx="4"/><rect class="cls-5" x="1450.01" y="677.05" width="2.13" height="19.4"/><rect class="cls-5" x="1439.33" y="685.37" width="23.48" height="2.77"/><rect class="cls-10" x="1569.02" y="677.05" width="23.48" height="19.4" rx="4"/><rect class="cls-5" x="1579.7" y="677.05" width="2.13" height="19.4"/><rect class="cls-5" x="1569.02" y="685.37" width="23.48" height="2.77"/><rect class="cls-10" x="1224.58" y="676.52" width="23.48" height="19.4" rx="4"/><rect class="cls-5" x="1235.26" y="676.52" width="2.13" height="19.4"/><rect class="cls-5" x="1224.58" y="684.83" width="23.48" height="2.77"/><rect class="cls-8" x="1224.31" y="556.5" width="22.74" height="41.37" rx="4"/><rect class="cls-5" x="1234.64" y="556.5" width="2.07" height="41.37"/><rect class="cls-5" x="1224.31" y="575.78" width="22.74" height="2.98"/><rect class="cls-8" x="1223.94" y="518.23" width="23.48" height="19.4" rx="4"/><rect class="cls-5" x="1234.44" y="518.23" width="2.13" height="19.4"/><rect class="cls-5" x="1223.94" y="527.33" width="23.48" height="2.77"/><path class="cls-4" d="M1571.49,603.21h17.89c1.23,0,2.24-1.34,2.24-3V561.42c0-1.64-1-3-2.24-3,0-11.55-17.89-11.55-17.89,0-1.23,0-2.23,1.34-2.23,3v38.81C1569.26,601.87,1570.26,603.21,1571.49,603.21Z"/><rect class="cls-5" x="1579.88" y="549.48" width="1.12" height="53.73"/><rect class="cls-5" x="1569.26" y="577.1" width="22.36" height="1.49"/><path class="cls-4" d="M1314.05,600.15h17.89c1.23,0,2.23-1.34,2.23-3V558.36c0-1.64-1-3-2.23-3,0-11.55-17.89-11.55-17.89,0-1.23,0-2.24,1.34-2.24,3v38.81C1311.81,598.81,1312.82,600.15,1314.05,600.15Z"/><rect class="cls-5" x="1322.43" y="546.42" width="1.12" height="53.73"/><rect class="cls-5" x="1311.82" y="574.04" width="22.36" height="1.49"/><path class="cls-4" d="M1442.62,601.64h17.89c1.23,0,2.23-1.34,2.23-3V559.85c0-1.64-1-3-2.23-3,0-11.55-17.89-11.55-17.89,0-1.23,0-2.24,1.34-2.24,3v38.81C1440.38,600.3,1441.39,601.64,1442.62,601.64Z"/><rect class="cls-5" x="1451" y="547.92" width="1.12" height="53.73"/><rect class="cls-5" x="1440.39" y="575.52" width="22.36" height="1.49"/><path class="cls-4" d="M1376.66,600.15h17.89c1.23,0,2.23-1.34,2.23-3V558.36c0-1.64-1-3-2.23-3,0-11.55-17.89-11.55-17.89,0-1.23,0-2.24,1.34-2.24,3v38.81C1374.42,598.81,1375.43,600.15,1376.66,600.15Z"/><rect class="cls-5" x="1385.04" y="546.42" width="1.12" height="53.73"/><rect class="cls-5" x="1374.42" y="574.04" width="22.36" height="1.49"/><path class="cls-4" d="M1509.7,603.14h17.89c1.23,0,2.24-1.35,2.24-3v-38.8c0-1.64-1-3-2.24-3,0-11.54-17.89-11.54-17.89,0-1.23,0-2.24,1.35-2.24,3v38.8C1507.46,601.79,1508.47,603.14,1509.7,603.14Z"/><rect class="cls-5" x="1518.08" y="549.4" width="1.12" height="53.73"/><rect class="cls-5" x="1507.47" y="577.02" width="22.36" height="1.49"/><rect class="cls-8" x="1568.89" y="640.06" width="23.48" height="19.4" rx="4"/><rect class="cls-5" x="1579.4" y="640.06" width="2.13" height="19.4"/><rect class="cls-5" x="1568.89" y="649.16" width="23.48" height="2.77"/><rect class="cls-8" x="1312.23" y="641.74" width="23.48" height="19.4" rx="4"/><rect class="cls-5" x="1322.74" y="641.74" width="2.13" height="19.4"/><rect class="cls-5" x="1312.23" y="650.84" width="23.48" height="2.77"/><rect class="cls-8" x="1374.84" y="640.26" width="23.48" height="19.4" rx="4"/><rect class="cls-5" x="1385.35" y="640.26" width="2.13" height="19.4"/><rect class="cls-5" x="1374.84" y="649.36" width="23.48" height="2.77"/><rect class="cls-8" x="1439.68" y="641.74" width="23.48" height="19.4" rx="4"/><rect class="cls-5" x="1450.19" y="641.74" width="2.13" height="19.4"/><rect class="cls-5" x="1439.68" y="650.84" width="23.48" height="2.77"/><rect class="cls-8" x="1506.76" y="640.26" width="23.48" height="19.4" rx="4"/><rect class="cls-5" x="1517.27" y="640.26" width="2.13" height="19.4"/><rect class="cls-5" x="1506.76" y="649.36" width="23.48" height="2.77"/><rect class="cls-4" x="1568.97" y="510.23" width="23.48" height="19.4" rx="4"/><rect class="cls-5" x="1579.65" y="510.23" width="2.13" height="19.4"/><rect class="cls-5" x="1568.97" y="518.55" width="23.48" height="2.77"/><rect class="cls-4" x="1311.56" y="511.81" width="23.48" height="19.4" rx="4"/><rect class="cls-5" x="1322.24" y="511.81" width="2.13" height="19.4"/><rect class="cls-5" x="1311.56" y="520.12" width="23.48" height="2.77"/><rect class="cls-4" x="1373.05" y="511.81" width="23.48" height="19.4" rx="4"/><rect class="cls-5" x="1383.73" y="511.81" width="2.13" height="19.4"/><rect class="cls-5" x="1373.05" y="520.12" width="23.48" height="2.77"/><rect class="cls-4" x="1440.13" y="510.32" width="23.48" height="19.4" rx="4"/><rect class="cls-5" x="1450.81" y="510.32" width="2.13" height="19.4"/><rect class="cls-5" x="1440.13" y="518.63" width="23.48" height="2.77"/><rect class="cls-4" x="1506.09" y="510.32" width="23.48" height="19.4" rx="4"/><rect class="cls-5" x="1516.77" y="510.32" width="2.13" height="19.4"/><rect class="cls-5" x="1506.09" y="518.63" width="23.48" height="2.77"/><rect class="cls-8" x="1224.96" y="643.33" width="23.48" height="19.4" rx="4"/><rect class="cls-5" x="1235.47" y="643.33" width="2.13" height="19.4"/><rect class="cls-5" x="1224.96" y="652.43" width="23.48" height="2.77"/><polygon class="cls-7" points="1579.77 427.24 1613.75 494.26 1545.78 494.26 1579.77 427.24"/><polygon class="cls-7" points="1321.83 427.24 1355.81 494.26 1287.84 494.26 1321.83 427.24"/><rect class="cls-7" x="1322.18" y="427.1" width="257.14" height="67.16"/><polygon class="cls-7" points="1479.01 364.7 1580.44 428.6 1377.58 428.6 1479.01 364.7"/><polygon class="cls-7" points="1421.37 364.7 1522.8 428.6 1319.94 428.6 1421.37 364.7"/><rect class="cls-7" x="1421.59" y="364.41" width="57.54" height="58.21"/><polygon class="cls-11" points="280.48 701.72 -78.02 1094.72 638.98 1094.72 280.48 701.72"/><rect class="cls-11" x="280.98" y="699.72" width="1334" height="395"/><polygon class="cls-11" points="1615.96 700.72 1257.46 1093.72 1974.46 1093.72 1615.96 700.72"/><ellipse class="cls-12" cx="379.04" cy="167.03" rx="2.35" ry="2.44"/><ellipse class="cls-12" cx="173.52" cy="200.53" rx="36.49" ry="37.93"/><ellipse class="cls-12" cx="242.03" cy="166.59" rx="44.82" ry="46.59"/><ellipse class="cls-12" cx="315.02" cy="184.78" rx="36.28" ry="37.71"/><ellipse class="cls-12" cx="376.48" cy="196.76" rx="32.87" ry="34.16"/><ellipse class="cls-12" cx="343.61" cy="244.23" rx="35.43" ry="36.83"/><ellipse class="cls-12" cx="278.74" cy="251.77" rx="49.51" ry="51.47"/><ellipse class="cls-12" cx="210.23" cy="251.99" rx="35.64" ry="37.05"/><ellipse class="cls-12" cx="275.11" cy="207.74" rx="89.85" ry="36.49"/><ellipse class="cls-12" cx="762.13" cy="253.19" rx="1.54" ry="1.58"/><ellipse class="cls-12" cx="627.51" cy="274.9" rx="23.9" ry="24.58"/><ellipse class="cls-12" cx="672.38" cy="252.9" rx="29.36" ry="30.19"/><ellipse class="cls-12" cx="720.19" cy="264.69" rx="23.77" ry="24.44"/><ellipse class="cls-12" cx="760.45" cy="272.45" rx="21.53" ry="22.14"/><ellipse class="cls-12" cx="738.92" cy="303.22" rx="23.21" ry="23.86"/><ellipse class="cls-12" cx="696.42" cy="308.1" rx="32.43" ry="33.35"/><ellipse class="cls-12" cx="651.55" cy="308.25" rx="23.35" ry="24.01"/><ellipse class="cls-12" cx="694.05" cy="279.57" rx="58.85" ry="23.65"/><ellipse class="cls-12" cx="1504.91" cy="237.84" rx="2.56" ry="2.47" transform="translate(-17.72 183.85) rotate(-6.95)"/><ellipse class="cls-12" cx="1723.61" cy="177.02" rx="39.86" ry="38.4" transform="translate(-8.75 209.86) rotate(-6.95)"/><ellipse class="cls-12" cx="1653.5" cy="220.18" rx="48.95" ry="47.16" transform="translate(-14.49 201.7) rotate(-6.95)"/><ellipse class="cls-12" cx="1572.14" cy="211.54" rx="39.62" ry="38.17" transform="matrix(0.99, -0.12, 0.12, 0.99, -14.05, 191.79)"/><ellipse class="cls-12" cx="1504.04" cy="207.63" rx="35.89" ry="34.58" transform="translate(-14.07 183.52) rotate(-6.95)"/><ellipse class="cls-12" cx="1533.86" cy="155.58" rx="38.69" ry="37.28" transform="translate(-7.56 186.74) rotate(-6.95)"/><ellipse class="cls-12" cx="1603.26" cy="139.43" rx="54.07" ry="52.1" transform="translate(-5.09 195.02) rotate(-6.95)"/><ellipse class="cls-12" cx="1677.51" cy="130.16" rx="38.92" ry="37.5" transform="translate(-3.42 203.94) rotate(-6.95)"/><ellipse class="cls-12" cx="1612.59" cy="183.21" rx="98.13" ry="36.94" transform="translate(-10.32 196.47) rotate(-6.95)"/><ellipse class="cls-12" cx="1289.48" cy="270.47" rx="1.36" ry="0.92"/><ellipse class="cls-12" cx="1170.83" cy="283.12" rx="21.07" ry="14.32"/><ellipse class="cls-12" cx="1210.38" cy="270.3" rx="25.87" ry="17.59"/><ellipse class="cls-12" cx="1252.52" cy="277.17" rx="20.95" ry="14.24"/><ellipse class="cls-12" cx="1288" cy="281.69" rx="18.97" ry="12.9"/><ellipse class="cls-12" cx="1269.03" cy="299.62" rx="20.45" ry="13.9"/><ellipse class="cls-12" cx="1231.57" cy="302.46" rx="28.59" ry="19.43"/><ellipse class="cls-12" cx="1192.02" cy="302.55" rx="20.58" ry="13.99"/><ellipse class="cls-12" cx="1229.48" cy="285.84" rx="51.87" ry="13.78"/><path class="cls-13" d="M1618.17,752.71a154.38,154.38,0,0,0-53.05,43c-4.14,5.26-8,10.92-9.82,17.36-2.58,9.13-.79,19,3,27.72s9.61,16.32,15.34,23.89c4.27,5.65,10,11.94,17,10.92,6-.86,10-7.18,10.19-13.22s-2.52-11.78-5.48-17c-2-3.63-4.26-7.21-5.52-11.18s-1.51-8.45.36-12.17,5.77-6.32,8.37-9.75a18.25,18.25,0,0,0-.5-22c9.31,17.32,9.15,38.28,5.27,57.55s-11.19,37.7-15.59,56.86c-1.31,5.69-2.12,12.37,1.74,16.75,3.65,4.13,9.88,4.41,15.39,4.39l21-.1c5.47,0,11.5-.26,15.48-4,3.79-3.56,4.54-9.21,5.07-14.38l5.48-53.78"/><path d="M1617.41,751.41a156.21,156.21,0,0,0-43.5,31.87q-4.7,4.89-8.94,10.18a75.58,75.58,0,0,0-8,11.59,38,38,0,0,0-3.06,27.45c2.35,9.5,7.53,18,13.2,25.82,2.69,3.72,5.37,7.51,8.4,11,2.65,3,5.8,5.88,9.67,7.21,7.84,2.71,14.92-3.23,16.72-10.68,2.27-9.44-3.59-18.07-7.85-26-2.21-4.1-4.11-8.62-3.6-13.38s3.8-7.47,6.87-10.59a19.73,19.73,0,0,0,1.84-26.81c-1.12-1.36-3.13.38-2.36,1.82,7.92,14.87,8.79,32.38,6.44,48.78-2.6,18.13-9,35.4-13.94,53-1.23,4.35-2.44,8.73-3.32,13.17-.73,3.63-1.18,7.46-.31,11.1a12.2,12.2,0,0,0,6.19,8.07c3.25,1.71,7,2.1,10.62,2.19,4.48.11,9,0,13.43,0s9,.09,13.51-.12c3.66-.17,7.46-.7,10.66-2.58a14.79,14.79,0,0,0,6.43-8.68c1.18-3.8,1.4-7.84,1.8-11.77l1.49-14.55,2.94-28.86.73-7.16c.2-1.92-2.8-1.9-3,0-1.88,18.43-3.54,36.9-5.65,55.3-.4,3.53-1,7.29-3.11,10.26s-5.68,4.3-9.2,4.78a90.73,90.73,0,0,1-12,.35l-13.94.07c-6.46,0-15.6.3-17.87-7.37-1-3.42-.52-7.15.19-10.58.88-4.22,2-8.41,3.19-12.57,4.78-17.09,11-33.89,13.75-51.48,2.47-15.78,2.31-32.52-4-47.45-.77-1.82-1.61-3.6-2.54-5.34l-2.35,1.82a16.74,16.74,0,0,1,.26,20.18c-2.47,3.2-5.93,5.52-8,9.06s-2.31,8.12-1.38,12.19c2,8.87,8.92,15.71,11,24.61a15.87,15.87,0,0,1-1.21,11.24c-1.65,3-4.51,5.49-8.08,5.62-3.78.15-7.06-2.1-9.68-4.61a75.45,75.45,0,0,1-7.92-9.64c-5.45-7.33-10.81-15-13.83-23.71s-3.7-18.13,0-26.68c3.42-8,9.4-14.88,15.18-21.22a153.18,153.18,0,0,1,40-31.42q2.74-1.5,5.55-2.88c1.73-.85.22-3.44-1.51-2.59Z"/><path class="cls-13" d="M1641.67,744.64c-6.83-.1-14.27,0-19.59,4.29a15.61,15.61,0,0,0-3.91,18.56,16.39,16.39,0,0,0,17.17,8.42,30.64,30.64,0,0,0-8.06,3.07,10.14,10.14,0,0,0-4.94,6.76c-.52,3.47,1.39,6.79,3.17,9.81A251.87,251.87,0,0,1,1652,859.34a280,280,0,0,0-6.5-107.76c-.59-2.28-1.27-4.66-2.92-6.33s-4.58-2.35-6.35-.8"/><path d="M1641.67,743.14c-8.79-.13-19.28.41-24.21,9a16.9,16.9,0,0,0,4.75,22.21,18,18,0,0,0,13.53,3l-.8-2.89c-5.5,1.51-11.94,3.71-13.8,9.78-.93,3,0,6.18,1.35,8.94,1.46,3,3.29,5.77,4.89,8.66a249.69,249.69,0,0,1,16.51,36.34q3.84,10.62,6.7,21.55c.35,1.32,2.69,1.52,2.89,0a281.27,281.27,0,0,0-4.89-102.09c-.54-2.29-1.1-4.58-1.7-6.85a16.7,16.7,0,0,0-2.23-5.42c-2.16-3-6.32-4.47-9.45-2-1.51,1.2.62,3.31,2.12,2.12,1-.81,2.63-.39,3.61.28a7.39,7.39,0,0,1,2.5,3.9,103.8,103.8,0,0,1,2.79,11.08q2.63,11.63,4.25,23.44a279.27,279.27,0,0,1,2.38,47.84c-.32,9-1.07,18-2.27,26.89h2.89a255.72,255.72,0,0,0-12.28-35.69q-3.77-8.79-8.2-17.29-2.12-4.05-4.37-8c-1.53-2.7-3.46-5.38-4.41-8.36a7.44,7.44,0,0,1,2.31-8.19c2.53-2.28,6-3.16,9.21-4,1.89-.52,1.07-3.21-.8-2.89-7,1.21-14.64-3.27-16.4-10.29a14.43,14.43,0,0,1,1.18-10,13.94,13.94,0,0,1,8.38-6.79c4.37-1.39,9-1.36,13.57-1.29a1.5,1.5,0,0,0,0-3Z"/><path class="cls-13" d="M1692.91,751.23c13.19-4.87,28.39-.17,39.48,8.47s18.91,20.71,26.52,32.54l14.13,22c2.44,3.79,4.92,7.72,5.66,12.17,1.31,7.89-3.11,15.51-7.59,22.15-6.73,9.94-14.86,20.14-26.45,23.26-4.21,1.14-9.56.81-11.83-2.91-2-3.25-.58-7.62,1.89-10.52s5.84-4.87,8.6-7.5c8.17-7.78,9.7-21.57,3.44-31-3.35-5-8.45-8.63-12.23-13.34s-6.09-11.62-2.88-16.74a114.79,114.79,0,0,0-1.57,80c5.28,14.94,13.81,29.38,13.57,45.22-.05,3.73-.79,7.8-3.65,10.19-2.62,2.17-6.29,2.37-9.69,2.48l-29.9.89c-4,.12-8.42.14-11.68-2.26-3.06-2.24-4.41-6.09-5.48-9.73a194,194,0,0,1-6.59-77.09"/><path d="M1693.3,752.68c8.72-3.15,18.21-2.1,26.65,1.43,8.84,3.7,16.15,10,22.33,17.26,6.46,7.53,11.71,16,17.06,24.32l9.07,14.11c2.8,4.36,6.18,8.74,8,13.65,3.55,9.8-2.91,19.21-8.33,26.91-5,7.16-10.94,14.3-19,18.21-3.48,1.69-7.75,3-11.61,1.94a5.43,5.43,0,0,1-3.8-3.32,7.56,7.56,0,0,1,.86-5.89c2.26-4.15,6.83-6.37,10.1-9.6a25.06,25.06,0,0,0,6.12-10,26.3,26.3,0,0,0-3.17-23.19c-5.12-7.16-15-12.37-15.9-22a9.54,9.54,0,0,1,1.27-5.91l-2.74-1.15a116.39,116.39,0,0,0-2.23,78.9c2.84,8.49,6.76,16.57,9.81,25a78.15,78.15,0,0,1,3.61,12.81c.73,4.06,1.23,8.57.4,12.65a9.41,9.41,0,0,1-2.32,4.89,9.13,9.13,0,0,1-5.4,2.29,64.35,64.35,0,0,1-6.51.33l-7.72.23-15,.44c-4.25.13-9,.8-13.13-.69-3.9-1.41-5.58-5.28-6.73-9-1.4-4.49-2.56-9.07-3.58-13.66a193.07,193.07,0,0,1-4-57.08q.28-3.52.69-7c.22-1.91-2.78-1.89-3,0a196,196,0,0,0,2.21,59.15q1.38,7.3,3.34,14.48c1.09,4,2.09,8.45,4.61,11.85s6.55,4.84,10.78,5.09c4.9.28,9.88-.16,14.78-.31l15.45-.46c4.31-.12,9.24.24,13.15-1.93,3.56-2,5-5.85,5.51-9.71a43.49,43.49,0,0,0-.9-13.41c-1.81-9-5.63-17.5-9.12-26a129.42,129.42,0,0,1-8.11-26.59,113.76,113.76,0,0,1,3.9-55c.71-2.17,1.5-4.31,2.34-6.44.64-1.61-1.89-2.57-2.74-1.15-2.45,4.06-2,8.91-.19,13.12,2,4.62,5.58,8.09,9.12,11.54,3.37,3.28,6.72,6.7,8.38,11.2a23.93,23.93,0,0,1,1.12,12.21,23,23,0,0,1-5.21,11.28c-3.27,3.73-7.94,6-10.84,10.07-2.53,3.57-3.43,8.67-.41,12.23,2.67,3.15,7.3,3.51,11.1,2.87,9.19-1.54,16.8-8.49,22.48-15.46a119.29,119.29,0,0,0,8.43-11.8c2.77-4.4,5.22-9.2,5.91-14.41.7-5.39-1-10.33-3.71-14.93-3-5-6.26-9.84-9.41-14.74-5.84-9.1-11.47-18.42-18-27.07-6.06-8.06-13.09-15.64-21.87-20.76-8.33-4.85-18.19-7.64-27.84-6.34a32.41,32.41,0,0,0-6.94,1.69c-1.8.65-1,3.55.79,2.89Z"/><path d="M1690.7,873.44l25.36.6a1.5,1.5,0,0,0,0-3l-25.36-.6C1688.77,870.39,1688.77,873.39,1690.7,873.44Z"/><path d="M1611.58,874.31l23.26,3.44a1.57,1.57,0,0,0,1.85-1,1.52,1.52,0,0,0-1-1.85l-23.27-3.43a1.55,1.55,0,0,0-1.84,1,1.5,1.5,0,0,0,1,1.84Z"/><path class="cls-13" d="M1685.62,746.76c7,1.2,14.67,2.88,19,8.56a14.36,14.36,0,0,1-14.91,22.58c3,1.07,6.07,2.17,8.56,4.16s4.37,5.05,4.08,8.23a14.46,14.46,0,0,1-1.32,4.31L1674.92,856c-1.33-34.85-2.51-70.69,9.14-103.57.62-1.74,1.35-3.57,2.85-4.63s4-.87,4.77.82"/><path d="M1685.22,748.21c6.39,1.09,14,2.47,18.17,8a12.94,12.94,0,0,1-2.68,18,13.39,13.39,0,0,1-10.65,2.18,1.5,1.5,0,0,0-.8,2.89c4.44,1.59,10,3.62,11.36,8.72.7,2.67-.7,5.22-1.71,7.61l-3.5,8.24L1681.5,836.6l-7.88,18.54,2.8.76c-1.14-30-2.3-60.64,5.11-90,1-4,2.18-8,3.52-11.87.55-1.61,1-3.63,2.36-4.81.81-.73,2.37-1.12,3,0,.89,1.72,3.48.2,2.59-1.51-1.39-2.69-5.1-2.76-7.26-1-2.71,2.18-3.56,6.39-4.56,9.54a164.52,164.52,0,0,0-5.51,23.39c-2.6,16.08-3.18,32.41-3,48.68.1,9.18.44,18.36.79,27.54,0,1.34,2.17,2.22,2.79.76l15-35.26,7.58-17.86q1.85-4.34,3.68-8.66c1-2.49,1.77-5,1.07-7.67-1.64-6.24-8-8.86-13.46-10.82l-.8,2.89c7.88,1.84,16.39-2.64,18.88-10.44a16.61,16.61,0,0,0-.75-11.77,17.51,17.51,0,0,0-8.33-8.12,47,47,0,0,0-13-3.69c-1.89-.33-2.7,2.57-.8,2.89Z"/><path class="cls-14" d="M1596.54,874.22A14.24,14.24,0,0,0,1584,885.3c-.43,2.13,0,4.91,2.12,5.52,1.76.52,3.5-.88,4.63-2.33a20.39,20.39,0,0,0,4.26-13.93"/><path d="M1596.54,872.72a15.86,15.86,0,0,0-13.86,11.61c-.69,2.77-.35,6.69,2.76,7.84,3.82,1.4,6.86-2.82,8.42-5.68a22,22,0,0,0,2.65-11.93c-.13-1.92-3.13-1.93-3,0a19.38,19.38,0,0,1-1.34,8.52,18.64,18.64,0,0,1-2.06,3.77c-.69,1-1.68,2.32-2.94,2.56-2.12.4-1.9-3.06-1.6-4.28a12.53,12.53,0,0,1,3.7-6.1,12.36,12.36,0,0,1,7.27-3.31,1.54,1.54,0,0,0,1.5-1.5,1.51,1.51,0,0,0-1.5-1.5Z"/><path class="cls-14" d="M1732.68,870.22a16.08,16.08,0,0,1,8.91,7.21,7.64,7.64,0,0,1,1.2,5.16,3.79,3.79,0,0,1-3.75,3.21c-2-.19-3.22-2.27-4-4.15a50.14,50.14,0,0,1-2.87-10.12"/><path d="M1732.28,871.66c3.92,1.31,8,4.65,9,8.8a3.54,3.54,0,0,1-.32,2.79,2,2,0,0,1-1.89,1c-1.7-.31-2.5-2.91-3-4.27a50,50,0,0,1-2.4-8.9,1.51,1.51,0,0,0-1.84-1,1.54,1.54,0,0,0-1,1.85,50.59,50.59,0,0,0,2.65,9.58c1,2.51,2.43,5.42,5.43,5.76s5.31-2.41,5.54-5.21c.25-3-1.56-5.94-3.45-8.12a17.72,17.72,0,0,0-7.84-5.17c-1.84-.61-2.63,2.29-.8,2.89Z"/><path class="cls-13" d="M1648.65,897.49a27.33,27.33,0,0,0,27.82-.61c6.15,7.69,2.3,20.75,9.59,27.37,4.68,4.26,11.78,3.79,18.1,3.7,2.53,0,5.38.17,7,2.08s1.41,5.11,1,7.78L1706,973.25a214.72,214.72,0,0,1-82,6.64c-3.2-.37-6.68-.94-8.85-3.32-1.68-1.84-2.25-4.4-2.75-6.84l-9-43.31c6-1.89,12.47-.9,18.75-.44s13.1.23,18.12-3.57c3.69-2.8,5.89-7.22,6.9-11.75s.93-9.21.86-13.85a17.29,17.29,0,0,0,15.12,4.31"/><path d="M1647.9,898.79a29,29,0,0,0,29.33-.62l-1.82-.23c3.34,4.29,3.45,10.29,4.28,15.44.87,5.39,2.7,10.82,7.71,13.69,5.61,3.21,12.1,2.12,18.23,2.39a6.83,6.83,0,0,1,4,1.13,4.6,4.6,0,0,1,1.4,3.84,31.29,31.29,0,0,1-.67,5l-1.11,6.4-4.69,27.07,1-1a213.77,213.77,0,0,1-55.48,7.92,176.75,176.75,0,0,1-27.4-1.5,13.28,13.28,0,0,1-5.27-1.66,7.57,7.57,0,0,1-3-4.52c-1.28-4.45-2-9.13-2.9-13.66L1604.87,926l-1,1.85c8.85-2.68,18.08.64,27.08-.46a20.6,20.6,0,0,0,11.2-4.55,21,21,0,0,0,6-9.92c1.57-5.21,1.49-10.75,1.41-16.13l-2.56,1.06a19,19,0,0,0,16.58,4.7c1.89-.37,1.09-3.26-.8-2.9a15.82,15.82,0,0,1-13.66-3.92,1.52,1.52,0,0,0-2.56,1.06c.12,8,.24,17.43-6,23.41-5.93,5.68-15.07,4.54-22.52,3.92-5-.42-10.12-.64-15,.83a1.55,1.55,0,0,0-1,1.85l6.2,29.93c1,4.84,1.93,9.71,3,14.54.91,4,2.75,7.27,6.72,8.83s8.57,1.57,12.71,1.91c4.9.4,9.82.63,14.73.69a217.88,217.88,0,0,0,61-8,1.49,1.49,0,0,0,1-1.05l4.31-24.86c.69-4,1.48-7.91,2-11.88.44-3.09.34-6.56-2.32-8.66-2.49-2-5.85-1.83-8.85-1.78a41.62,41.62,0,0,1-9.78-.54,11.67,11.67,0,0,1-7.28-4.47,18.81,18.81,0,0,1-2.76-7.56c-1.15-6.24-1.21-12.86-5.28-18.09a1.51,1.51,0,0,0-1.82-.23,25.89,25.89,0,0,1-26.3.62,1.5,1.5,0,0,0-1.51,2.59Z"/><path class="cls-14" d="M1636.88,981.62l6.22,44.2a7.83,7.83,0,0,0,1.51,4.27c1.29,1.41,3.43,1.66,5.33,1.45s3.78-.81,5.69-.71,4,1.11,4.46,3a23.38,23.38,0,0,1,15.88-3.5L1685.6,978a220.14,220.14,0,0,1-49.71,2.83l.18,1.47"/><path d="M1635.43,982l4,28.24,2,14.25c.28,1.92.4,4,1.45,5.74a6,6,0,0,0,4.14,2.7c2.26.41,4.41-.18,6.64-.5,1.68-.24,4.37-.25,5,1.75a1.51,1.51,0,0,0,1.86,1,1.43,1.43,0,0,0,.34-.14,22.47,22.47,0,0,1,15.12-3.29,1.49,1.49,0,0,0,1.44-1.11l9.63-52.28a1.52,1.52,0,0,0-1.11-1.84,1.5,1.5,0,0,0-.73,0,221.27,221.27,0,0,1-49.31,2.77,1.49,1.49,0,0,0-1.5,1.48v0l.18,1.47c.23,1.89,3.23,1.92,3,0l-.18-1.47-1.5,1.5a224.17,224.17,0,0,0,50.1-2.88l-1.84-1.84-9.63,52.28,1.45-1.1a25,25,0,0,0-16.63,3.7l2.2.9c-1.24-3.89-5.47-4.38-8.94-3.82-1.79.29-3.7.85-5.5.31s-2.26-2.51-2.52-4.28c-1.38-9.39-2.65-18.79-4-28.19l-2.29-16.2c-.26-1.91-3.16-1.1-2.89.79Z"/><path class="cls-8" d="M1660.27,1033.73a5.1,5.1,0,0,0-4-2.56,15.42,15.42,0,0,0-4.88.39c-2.73.52-5.71,1.19-7.4,3.39-1.34,1.75-1.56,4.09-1.73,6.29a3.61,3.61,0,0,0,.34,2.35,3.5,3.5,0,0,0,1.82,1.14,25.65,25.65,0,0,0,14,.73,34.91,34.91,0,0,1,1.79-11.1,32.06,32.06,0,0,0-1.81,7.86,4.35,4.35,0,0,0,.33,2.61c.67,1.14,2.13,1.47,3.44,1.62a31.92,31.92,0,0,0,11.91-.94,2.78,2.78,0,0,0,1.64-.91,3,3,0,0,0,.37-1.61l.15-5.22a15.06,15.06,0,0,0-.17-3.55,5.11,5.11,0,0,0-1.73-3,6.09,6.09,0,0,0-4-1,15.33,15.33,0,0,0-10,4.25"/><path d="M1661.57,1033c-2.2-4-7.08-3.54-10.9-2.79s-7.63,2.19-9.07,6.23a15.69,15.69,0,0,0-.82,6c.17,2.34,1.91,3.3,3.94,3.93a27.57,27.57,0,0,0,14.14.52,1.51,1.51,0,0,0,1.1-1.45,35.09,35.09,0,0,1,1.73-10.7c.61-1.85-2.25-2.59-2.89-.8a34.38,34.38,0,0,0-1.7,7c-.27,2-.47,4.21,1.24,5.67,1.53,1.31,3.8,1.4,5.71,1.5a34.24,34.24,0,0,0,7.08-.41c1.84-.3,4.62-.54,5.81-2.18s.74-4.42.8-6.32c.07-2.3.28-4.71-.68-6.87a6,6,0,0,0-4.74-3.52c-4.7-.71-9.68,1.4-13.06,4.58-1.41,1.33.72,3.45,2.12,2.13,2.67-2.52,7.15-4.63,10.9-3.68,2.31.59,2.54,3,2.52,5.05,0,1.08-.06,2.17-.09,3.26l-.06,1.9a4.52,4.52,0,0,1-.06,1.42c-.3.72-1.49.78-2.22.94a27.43,27.43,0,0,1-3.24.56,28.61,28.61,0,0,1-6.92,0,3.43,3.43,0,0,1-2-.67c-.66-.7-.29-2.16-.18-3a32.61,32.61,0,0,1,1.64-6.52l-2.89-.8a37.74,37.74,0,0,0-1.84,11.5l1.1-1.44a24.38,24.38,0,0,1-10.55,0c-1.19-.26-3.65-.5-3.75-2a13.14,13.14,0,0,1,.61-4.49c.89-2.9,3.69-3.78,6.38-4.35s6.66-1.6,8.23,1.27c.92,1.69,3.52.18,2.59-1.52Z"/><path d="M1659.9,982.1a307.2,307.2,0,0,1-.58,49.47c-.18,1.92,2.82,1.91,3,0a307.2,307.2,0,0,0,.58-49.47C1662.77,980.19,1659.77,980.17,1659.9,982.1Z"/><path class="cls-15" d="M1643.42,745.67a121.94,121.94,0,0,0,40.87,1.11,319,319,0,0,0-7.18,135.63c.86,5.27,1.54,11.54-2.43,15.12a12.88,12.88,0,0,1-6.73,2.71,34.88,34.88,0,0,1-20.63-3.11A362.34,362.34,0,0,0,1645,745.22"/><path d="M1643,747.12a125.39,125.39,0,0,0,41.67,1.11l-1.85-1.85a321.18,321.18,0,0,0-10.56,107.82q.66,9.09,1.85,18.14.57,4.42,1.27,8.83a53.16,53.16,0,0,1,.87,7.44c0,2.36-.26,4.93-1.73,6.87-1.78,2.36-4.89,3-7.67,3.41a33.61,33.61,0,0,1-18.79-3l.69,1.69a363.87,363.87,0,0,0,3.73-119.42q-2.26-16.77-6.06-33.29c-.44-1.88-3.33-1.09-2.89.79a361.39,361.39,0,0,1,7.31,118.06q-1.71,16.63-5,33.06a1.52,1.52,0,0,0,.68,1.7,36.92,36.92,0,0,0,17,3.72c5.15-.15,11.37-1.06,14.13-6,2.31-4.16,1.65-9.28.93-13.78-1-6.22-1.86-12.46-2.5-18.73a316.81,316.81,0,0,1,9.63-116.45,1.52,1.52,0,0,0-1.11-1.84,1.54,1.54,0,0,0-.74,0,121.41,121.41,0,0,1-40.07-1.11c-1.89-.37-2.69,2.52-.8,2.89Z"/><path class="cls-14" d="M1659,757.87c-128.48-.11-232.93-80.73-232.84-179.7s104.56-179.3,232.88-179.3h.28c128.48.12,232.93,80.73,232.84,179.71S1787.6,757.87,1659.28,757.87Z"/><path d="M1659.08,400.87h.27A290.29,290.29,0,0,1,1749.57,415c27.54,9,52.25,21.92,73.46,38.33s37.7,35.35,49.25,56.49a140.36,140.36,0,0,1-.1,137.4c-11.57,21.11-28.16,40.08-49.29,56.38s-45.91,29.23-73.44,38.21a290,290,0,0,1-90.14,14H1659a290,290,0,0,1-90.22-14.14c-27.54-9-52.25-21.92-73.46-38.33s-37.69-35.35-49.24-56.49a140.35,140.35,0,0,1,.09-137.41c11.58-21.1,28.16-40.07,49.29-56.37s45.91-29.22,73.44-38.21a290.11,290.11,0,0,1,90.15-14.05m0-4c-129.66,0-234.8,81.13-234.89,181.3s105,181.59,234.84,181.7h.28c129.65,0,234.79-81.12,234.88-181.29s-105-181.59-234.84-181.71Z"/><path class="cls-16" d="M1432.69,595.69a14.51,14.51,0,0,1-6.07-1.41,183.13,183.13,0,0,1-2.17-28.16c0-54.81,24.31-106.34,68.32-145.1s102.67-60.19,165-60.19h.24c62.39.05,121,21.51,165.07,60.42s68.19,90.44,68.14,145.28c0,2.1,0,4.3-.14,6.66-6.51-.82-11.47-2.7-15.11-5.71-8.9-7.37-8.8-20.23-8-31.71l.26-3.75L1865,533.9a14.76,14.76,0,0,1-7.52,1.9,22.56,22.56,0,0,1-15.51-6.7c-5.94-6.19-8.07-14.63-9.5-22.83l-.2-1.17c-.84-4.94-1.72-10.06-4.67-14.53a16.59,16.59,0,0,0-13.32-7.61,12.53,12.53,0,0,0-3.17.41,23.69,23.69,0,0,0-3.57,1.37,14.35,14.35,0,0,1-3.71,1.3,6,6,0,0,1-.94.07c-5.78,0-9.27-8.08-10.2-10.55-1.31-3.5-5.31-14.13-14.35-14.13-3.76,0-6.68,1.84-9.5,3.6a22.14,22.14,0,0,1-5.6,2.82,10.25,10.25,0,0,1-2.65.35c-4.83,0-9.29-3.18-11.85-6.15a52.49,52.49,0,0,1-5.37-8,70.78,70.78,0,0,0-4.32-6.79,9.9,9.9,0,0,0-5-3.92,7.11,7.11,0,0,0-2-.29c-2.68,0-5.12,1.39-7,2.6s-3.5,2.42-5.19,3.63c-5.48,3.93-10.65,7.65-17,9a15.88,15.88,0,0,1-3.23.33c-4.58,0-9.31-1.88-11.79-4.67a6.5,6.5,0,0,1-1.78-5.19l.2-1.6-1.53-.53a9.36,9.36,0,0,0-3.1-.54c-5.08,0-9,4.19-12.68,8.24-3.35,3.64-6.52,7.07-10,7.07a5.53,5.53,0,0,1-1.66-.26c-3.11-.94-4.17-4.2-5.4-8s-2.69-8.21-6.79-10.41a10.1,10.1,0,0,0-4.78-1.21c-6.6,0-12.52,6.19-15.58,11.5-4.43,7.66-8.62,11.39-12.82,11.39a7.56,7.56,0,0,1-1.64-.18c-4.21-.94-6.5-5.22-8.92-9.75-2.76-5.16-5.89-11-12.56-11h-.45a12.44,12.44,0,0,0-5,1.33c-7,3.34-10.5,10.23-13.29,17.18l-.24.6c-2.38,5.92-4.83,12-10,15.55a13.19,13.19,0,0,1-7.2,2c-3.12,0-7.17-1.15-8.29-4.4a14.88,14.88,0,0,1-.56-3.45c-.24-2.65-.5-5.65-3.16-7.66a8.25,8.25,0,0,0-5.08-1.52,14.63,14.63,0,0,0-3.48.45c-11.34,2.78-17.66,13.12-22.69,22.6l-15.4,29c-2.14,4-4.16,5.88-6.39,5.88h-.19c-3-.14-4.26-3.17-6-8.13s-3.53-10.27-9.23-10.27h-.66c-3,.23-5.19,2.15-6.78,3.8-12.7,13.13-13.72,31-14.71,48.31-.48,8.34-1,17-2.78,24.92-1.34,5.91-4.39,13.39-11.28,15.47A11.61,11.61,0,0,1,1432.69,595.69Z"/><path d="M1657.78,362.83h.24A257,257,0,0,1,1748.23,379a234.59,234.59,0,0,1,73.54,43.79,203.57,203.57,0,0,1,49.43,64.73,181.31,181.31,0,0,1,18,79q0,2.1-.06,4.35c-5.06-.88-9-2.51-11.92-4.94-8.17-6.77-8-19-7.29-30l.52-7.5-6.51,3.76a12.92,12.92,0,0,1-6.52,1.63,20.5,20.5,0,0,1-14.07-6.08c-5.56-5.81-7.6-13.91-9-21.79l-.2-1.17c-.84-4.91-1.79-10.47-5-15.29-3.4-5.17-9.29-8.51-15-8.51a14.74,14.74,0,0,0-3.68.47,25.38,25.38,0,0,0-3.89,1.49,12.71,12.71,0,0,1-3.16,1.14,3.67,3.67,0,0,1-.66.05c-3.57,0-6.65-4.78-8.33-9.26-1.43-3.81-5.8-15.42-16.22-15.42h-.07c-4.27,0-7.57,2.08-10.49,3.9a20.92,20.92,0,0,1-5.07,2.59,8.39,8.39,0,0,1-2.12.28c-3.42,0-7.48-2.14-10.34-5.46A50.69,50.69,0,0,1,1745,453a73.8,73.8,0,0,0-4.44-7,11.79,11.79,0,0,0-6-4.65A9.39,9.39,0,0,0,1732,441c-3.21,0-6,1.57-8.06,2.93-1.79,1.19-3.55,2.45-5.24,3.67-5.31,3.81-10.32,7.42-16.21,8.68a13.26,13.26,0,0,1-2.81.28c-4,0-8.17-1.6-10.29-4a4.42,4.42,0,0,1-1.29-3.61l.39-3.21-3-1.06a11.75,11.75,0,0,0-3.76-.65c-6,0-10.31,4.72-14.15,8.89-2.92,3.15-5.93,6.42-8.5,6.42a3.59,3.59,0,0,1-1.08-.17c-1.9-.58-2.74-2.58-4.08-6.68s-2.94-9-7.74-11.54a12.07,12.07,0,0,0-5.73-1.45c-7.45,0-14,6.73-17.31,12.5-4,6.89-7.72,10.39-11.09,10.39a5.47,5.47,0,0,1-1.21-.13c-3.31-.74-5.39-4.63-7.58-8.74-2.88-5.38-6.46-12.07-14.33-12.07h-.53a14.54,14.54,0,0,0-5.74,1.53c-7.57,3.63-11.34,10.91-14.28,18.23l-.24.6c-2.26,5.64-4.6,11.47-9.31,14.64a11.06,11.06,0,0,1-6.08,1.69c-2.66,0-5.68-.94-6.4-3.06a13.28,13.28,0,0,1-.46-3c-.24-2.75-.57-6.53-4-9.07a10.16,10.16,0,0,0-6.28-1.93,16.87,16.87,0,0,0-4,.51c-12.15,3-18.75,13.74-24,23.6L1500,499.7l-7.7,14.51c-2.12,4-3.68,4.82-4.62,4.82h-.1c-1.59-.08-2.57-2.15-4.16-6.78-1.68-4.91-4-11.62-11.12-11.62h-.81c-3.69.29-6.37,2.65-8.07,4.4-13.21,13.66-14.26,31.92-15.27,49.58-.47,8.27-1,16.81-2.73,24.6-1.22,5.39-3.94,12.19-9.91,14a9.26,9.26,0,0,1-2.82.41,12,12,0,0,1-4.26-.82,181.09,181.09,0,0,1,16.17-105.73,203.31,203.31,0,0,1,49.49-64.61,234.32,234.32,0,0,1,73.53-43.67,257.35,257.35,0,0,1,90.16-16m0-4c-129.89,0-235.23,92.76-235.33,207.29a185.48,185.48,0,0,0,2.35,29.49,16.77,16.77,0,0,0,7.89,2.08,13.54,13.54,0,0,0,4-.58c7.47-2.24,11.07-9.92,12.66-16.94,5.58-24.55-1.22-53.47,17-72.28,1.47-1.52,3.27-3,5.5-3.19a4.17,4.17,0,0,1,.5,0c8.63,0,6,18,15.09,18.4h.29c3.87,0,6.44-3.72,8.15-6.94l15.41-29c4.79-9,10.78-19,21.4-21.6a12.66,12.66,0,0,1,3-.39,6.39,6.39,0,0,1,3.88,1.12c3,2.29,1.84,6.73,3,10.16,1.34,3.87,5.67,5.75,10.19,5.75a15.21,15.21,0,0,0,8.32-2.37c5.91-4,8.49-10.77,11-17.06s5.8-13,12.3-16.13a10.85,10.85,0,0,1,4.17-1.14h.37c10.6,0,10.49,18.37,21,20.71a9.59,9.59,0,0,0,2.07.23c6.44,0,11.3-6.77,14.55-12.39,2.91-5,8.36-10.5,13.85-10.5a8.08,8.08,0,0,1,3.84,1c7.11,3.83,4.71,16.14,12.54,18.52a7.5,7.5,0,0,0,2.25.35c8.61,0,14.2-15.31,22.65-15.31a7.56,7.56,0,0,1,2.45.43c-.87,7.08,7.57,12.1,15.55,12.1a17.87,17.87,0,0,0,3.65-.37c8.79-1.88,15.51-8.09,22.82-12.92,1.74-1.15,3.79-2.27,5.85-2.27a5.22,5.22,0,0,1,1.47.21,7.91,7.91,0,0,1,3.92,3.2c3.58,4.8,5.84,10.38,9.78,14.94,3.25,3.77,8.27,6.84,13.36,6.84a11.71,11.71,0,0,0,3.17-.43c5.21-1.42,9.09-6.31,14.53-6.34h0c6.71,0,10.3,7,12.48,12.83,2,5.45,6.09,11.85,12.07,11.85a8.48,8.48,0,0,0,1.23-.09c2.66-.38,4.9-2,7.5-2.72a10.38,10.38,0,0,1,2.66-.34c4.64,0,9.18,3,11.65,6.71,3,4.46,3.68,9.8,4.57,14.94,1.49,8.53,3.79,17.37,10,23.88a24.42,24.42,0,0,0,17,7.31,16.94,16.94,0,0,0,8.52-2.17c-.81,11.84-.9,25.42,8.73,33.39,5,4.12,11.49,5.79,18.29,6.39.15-2.94.24-5.9.24-8.87.1-114.6-105.2-207.6-235.2-207.71Z"/><circle class="cls-17" cx="1660.46" cy="305.01" r="73"/><path class="cls-18" d="M1683.16,359.93c-10.18-2.09-20.61-4.25-29.91-9.06a44.6,44.6,0,0,1-20.34-21.47c-4.23-9.26-5.9-19.58-6.51-29.67-.68-11.07-.21-22.83,6.5-32.16,5.58-7.77,14.74-13,24.38-13a28.56,28.56,0,0,1,24.78,14,46.75,46.75,0,0,1,5.39,16,39.18,39.18,0,0,1-.89,17.46c-2.71,9-10.53,17.57-20.43,18.16a11.16,11.16,0,0,1-7.42-1.9,15.21,15.21,0,0,1-4.46-6c-2.31-5-3.79-11.23-2.3-16.67,1.14-4.13,4.82-8.83,9.52-8.8a3.2,3.2,0,0,1,2.74,1.7,25.28,25.28,0,0,1,2.15,3.7c.76,1.71,1.51,4.65-.71,5.56-.66.28-2.52.55-2.58-.54-.11-1.92-3.11-1.93-3,0,.26,4.67,6.75,4.72,9,1.54,1.72-2.38,1-5.62-.15-8.07s-2.8-5.69-5.48-6.59-5.67.16-7.86,1.57a15.21,15.21,0,0,0-5.22,5.78c-3,5.68-2.25,12.4-.31,18.28,1.75,5.32,4.65,10.8,10.28,12.73,5.43,1.87,11.78.14,16.51-2.8,10.34-6.42,14.73-18.64,14.08-30.4-.65-12-5.16-25-15.39-32.07a32.22,32.22,0,0,0-31.75-2.47c-10.46,4.93-17.47,14.87-19.62,26.1a77.51,77.51,0,0,0-.76,19.54,108.89,108.89,0,0,0,2.41,17.24c2.54,11,7.47,21.78,16.12,29.31,8.91,7.77,20.41,11.48,31.73,14.1,2.88.66,5.78,1.27,8.67,1.86,1.89.39,2.69-2.5.8-2.89Z"/><path d="M1582.13,628.26a36.21,36.21,0,1,1,36.26-36.18A36.21,36.21,0,0,1,1582.13,628.26Z"/><path d="M1582.16,555.34v1A35.71,35.71,0,1,1,1546.43,592v0a35.54,35.54,0,0,1,35.4-35.68h.36v-1m0,0a36.71,36.71,0,0,0,0,73.42h0a36.71,36.71,0,0,0,0-73.42Z"/><rect x="1598.4" y="528.68" width="9" height="78" transform="translate(246.96 1593.83) rotate(-56.62)"/><path d="M1573,543.2l64.3,42.36-4.4,6.68-64.3-42.36,4.4-6.68m-.29-1.39-5.5,8.35,66,43.46,5.5-8.35Z"/><path d="M1749.27,628.19a35.21,35.21,0,0,1-.65-70.41h.68a35.21,35.21,0,0,1,.65,70.41Z"/><path d="M1749.3,557.27v1h0a34.71,34.71,0,0,1,.64,69.41h-.67a34.71,34.71,0,0,1-.64-69.41h.67v-1m0,0h-.69a35.71,35.71,0,0,0,.66,71.41h.69a35.71,35.71,0,0,0-.66-71.41Z"/><rect x="1689.02" y="564.04" width="78" height="9" transform="translate(-45.37 973.99) rotate(-31.09)"/><path d="M1759,545.37l4.13,6.85-66,39.78-4.13-6.85,66-39.76m.34-1.37-67.66,40.79,5.16,8.56,67.66-40.79L1759.3,544Z"/><path d="M1794.4,498.26c4.45,7.48,6.27,16.76,3.46,25.16a23.45,23.45,0,0,1-15.45,15.2,1.5,1.5,0,0,0,.8,2.89,26,26,0,0,0,15-11.82,30,30,0,0,0,3.38-20.78,36.75,36.75,0,0,0-4.64-12.17,1.5,1.5,0,1,0-2.59,1.52Z"/><path d="M1849.71,567.76c-5.16-6.89-8.09-15.86-6.27-24.45,1.57-7.38,6.56-14.2,13.68-17,1.77-.7,1-3.6-.8-2.89a25.89,25.89,0,0,0-13.86,13.42,30,30,0,0,0-1.15,21,36.75,36.75,0,0,0,5.81,11.43c1.14,1.53,3.75,0,2.59-1.51Z"/><path d="M1786.91,556.75c8.39-3,18.15-3.19,26.17,1,6.73,3.56,12.05,10.27,12.71,18,.16,1.9,3.16,1.92,3,0a25.4,25.4,0,0,0-9.13-17.14,31.46,31.46,0,0,0-20.46-7.1,39.45,39.45,0,0,0-13.09,2.29c-1.81.64-1,3.53.8,2.89Z"/><path d="M1855.45,508c-8,3.29-17.52,3.86-25.42-.15-6.65-3.38-11.94-9.88-12.89-17.4-.23-1.89-3.24-1.92-3,0a25.88,25.88,0,0,0,9.44,16.74,30,30,0,0,0,19.94,6.46,36.65,36.65,0,0,0,12.73-2.76c1.76-.72,1-3.63-.8-2.89Z"/><ellipse class="cls-12" cx="1587.69" cy="577.87" rx="7.5" ry="8"/><ellipse class="cls-12" cx="1740.69" cy="581.87" rx="7.5" ry="8"/><circle class="cls-12" cx="1558.19" cy="597.87" r="5"/><circle class="cls-12" cx="1771.19" cy="602.87" r="5"/><path d="M1649.76,673.37a16.11,16.11,0,0,1,9.72-13.73c5.61-2.43,12-.78,16.32,3.4a15.67,15.67,0,0,1,4.64,9c.27,1.9,3.16,1.09,2.89-.8-1-7.09-6.65-13-13.45-15.06a18,18,0,0,0-18.89,6.26,18.49,18.49,0,0,0-4.23,10.93c-.08,1.93,2.92,1.93,3,0Z"/><rect class="cls-19" x="314" y="257.62" width="992" height="667.65" rx="30"/><g class="cls-20"><text class="cls-21" transform="translate(643.56 385.78)">DU </text><text class="cls-22" transform="translate(745.06 385.78)">T</text><text class="cls-21" transform="translate(777.66 385.78)">ABTE...</text></g><g class="cls-20"><text class="cls-23" transform="translate(637.89 380.57)">DU </text><text class="cls-24" transform="translate(739.39 380.57)">T</text><text class="cls-23" transform="translate(771.99 380.57)">ABTE...</text></g><g class="cls-20"><text class="cls-25" transform="translate(765.83 525.56)">V! </text><text class="cls-25" transform="translate(486.97 585.56)">DU </text><text class="cls-26" transform="translate(565.72 585.56)">K</text><text class="cls-25" transform="translate(597.32 585.56)">OM IKKE I REGERINGEN</text><text class="cls-25" transform="translate(596.37 645.56)"><tspan xml:space="preserve"> I DENNE OM</tspan></text><text class="cls-26" transform="translate(879.04 645.56)">G</text><text class="cls-25" transform="translate(912.97 645.56)">AN</text><text class="cls-27" transform="translate(979.53 645.56)">G</text><text class="cls-25" transform="translate(1014.04 645.56)">.</text></g><g class="cls-20"><text class="cls-28" transform="translate(761.32 522.15)">V! </text><text class="cls-28" transform="translate(482.46 582.15)">DU </text><text class="cls-29" transform="translate(561.21 582.15)">K</text><text class="cls-28" transform="translate(592.81 582.15)">OM IKKE I REGERINGEN</text><text class="cls-28" transform="translate(591.86 642.15)"><tspan xml:space="preserve"> I DENNE OM</tspan></text><text class="cls-29" transform="translate(874.53 642.15)">G</text><text class="cls-28" transform="translate(908.46 642.15)">AN</text><text class="cls-30" transform="translate(975.02 642.15)">G</text><text class="cls-28" transform="translate(1009.53 642.15)">.</text></g></svg>