<svg id="Layer_1" data-name="Layer 1" xmlns="http://www.w3.org/2000/svg" width="474.13" height="808.12" viewBox="0 0 474.13 808.12"><defs><style>.cls-1{fill:#404a4c;}.cls-2{fill:#ffedc9;}.cls-3{fill:#4d4d4d;}.cls-4{fill:#7f0015;}.cls-5,.cls-6{fill:#f40000;}.cls-6{stroke:#000;stroke-miterlimit:10;stroke-width:4px;}.cls-7{fill:#fa8aff;}.cls-8{fill:#ffa18a;}.cls-9{fill:#740010;}.cls-10{fill:#ffaac1;}</style></defs><path class="cls-1" d="M194.54,512.68a155.28,155.28,0,0,0-53.38,43c-4.17,5.26-8,10.92-9.88,17.36-2.6,9.13-.8,19,3.06,27.72s9.68,16.32,15.44,23.89c4.3,5.65,10.05,11.93,17.11,10.92,6-.86,10.06-7.18,10.26-13.23s-2.54-11.78-5.52-17c-2.06-3.62-4.28-7.21-5.56-11.17s-1.51-8.45.37-12.17,5.81-6.33,8.42-9.75a18.14,18.14,0,0,0-.51-22c9.38,17.32,9.22,38.28,5.31,57.55S168.4,645.42,164,664.58c-1.31,5.69-2.14,12.37,1.76,16.75,3.67,4.13,9.94,4.41,15.48,4.38l21.17-.09c5.5,0,11.57-.27,15.58-4,3.81-3.57,4.57-9.21,5.1-14.38l5.52-53.78"/><path d="M193.79,511.39A157.05,157.05,0,0,0,150,543.26q-4.72,4.89-9,10.18a76.73,76.73,0,0,0-7.92,11.36,36.48,36.48,0,0,0-4.3,13.2,40.56,40.56,0,0,0,1.05,14.26c2.32,9.52,7.51,18,13.21,25.85,2.7,3.73,5.41,7.53,8.45,11,2.66,3,5.82,5.92,9.69,7.3,7.9,2.83,15.15-3.06,17-10.62,2.29-9.45-3.61-18.08-7.9-26-2.22-4.08-4.14-8.61-3.62-13.37s3.84-7.49,6.92-10.59a19.61,19.61,0,0,0,4.81-21.81,19,19,0,0,0-3-4.95c-1.12-1.36-3.13.38-2.36,1.82,8,14.92,8.85,32.52,6.45,49-2.65,18.13-9.12,35.4-14.07,53-1.22,4.34-2.44,8.71-3.31,13.13a25.63,25.63,0,0,0-.27,10.92,12.2,12.2,0,0,0,6.3,8.11c3.22,1.65,6.91,2.05,10.48,2.14,4.46.12,8.94,0,13.4,0s9.11.09,13.65-.11c3.73-.16,7.64-.66,10.92-2.58A14.82,14.82,0,0,0,223,676c1.23-3.84,1.46-8,1.87-12l1.49-14.55,3-28.87.74-7.15c.19-1.92-2.81-1.9-3,0-1.9,18.49-3.54,37-5.71,55.49-.41,3.52-1.07,7.31-3.22,10.22s-5.68,4.15-9.15,4.63a93.25,93.25,0,0,1-12.28.35l-14,.07c-6.35,0-15.36.25-17.7-7.2-1.07-3.41-.6-7.13.11-10.56.86-4.22,2-8.39,3.17-12.53,4.81-17.1,11.07-33.9,13.87-51.5,2.53-15.86,2.38-32.66-3.94-47.66q-1.15-2.73-2.55-5.34l-2.36,1.81a16.63,16.63,0,0,1,.14,20.34c-2.49,3.1-5.88,5.43-7.92,8.91-2.15,3.68-2.32,8.11-1.38,12.19,2.05,9,9.07,15.81,11.06,24.82a15.6,15.6,0,0,1-1.35,11.18c-1.68,3-4.53,5.34-8.06,5.47-3.86.15-7.22-2.17-9.88-4.74a78,78,0,0,1-8-9.7C142.4,612.32,137,604.56,134,595.76c-2.92-8.57-3.52-18,.18-26.39,3.45-7.85,9.36-14.67,15.09-20.94a154.51,154.51,0,0,1,40.45-31.58c1.84-1,3.71-2,5.59-2.87,1.73-.85.21-3.44-1.51-2.59Z"/><path class="cls-1" d="M218.2,504.62c-6.87-.1-14.37,0-19.71,4.29a15.52,15.52,0,0,0-3.94,18.56,16.53,16.53,0,0,0,17.28,8.42,30.42,30.42,0,0,0-8.11,3.06,10.18,10.18,0,0,0-5,6.77c-.53,3.47,1.4,6.79,3.19,9.81a250.84,250.84,0,0,1,26.69,63.79,278.32,278.32,0,0,0-6.53-107.77c-.6-2.27-1.29-4.65-2.95-6.33s-4.6-2.34-6.39-.79"/><path d="M218.2,503.12c-8.82-.13-19.39.39-24.36,9a16.86,16.86,0,0,0,4.77,22.21,18.25,18.25,0,0,0,13.62,3.05l-.8-2.89c-5.52,1.5-12,3.69-13.88,9.78-.94,3,0,6.18,1.35,8.94,1.47,3,3.31,5.77,4.93,8.66a248.24,248.24,0,0,1,16.62,36.34q3.86,10.62,6.74,21.54c.35,1.33,2.68,1.53,2.89,0a279.78,279.78,0,0,0,2.24-51.26,280.11,280.11,0,0,0-7.16-50.82c-.55-2.29-1.11-4.58-1.72-6.86a16.58,16.58,0,0,0-2.24-5.41c-2.17-3.06-6.35-4.46-9.5-2-1.51,1.19.62,3.3,2.13,2.12,1-.82,2.65-.39,3.64.28a7.43,7.43,0,0,1,2.52,3.9,113.72,113.72,0,0,1,2.81,11.08c1.76,7.74,3.19,15.57,4.28,23.43A276.43,276.43,0,0,1,229.47,592c-.32,9-1.08,18-2.28,26.89h2.89a255.63,255.63,0,0,0-12.36-35.69q-3.79-8.81-8.26-17.3-2.11-4-4.39-8c-1.55-2.7-3.48-5.38-4.45-8.36a7.42,7.42,0,0,1,2.33-8.19c2.56-2.29,6.06-3.16,9.28-4,1.89-.52,1.07-3.21-.8-2.89-7,1.2-14.74-3.24-16.51-10.3a14.3,14.3,0,0,1,1.18-9.95,14,14,0,0,1,8.43-6.79c4.4-1.39,9.1-1.36,13.67-1.29a1.5,1.5,0,0,0,0-3Z"/><path class="cls-1" d="M269.77,511.21c13.27-4.87,28.57-.17,39.74,8.47s19,20.7,26.68,32.53l14.23,22c2.45,3.79,4.95,7.72,5.7,12.16,1.32,7.9-3.14,15.52-7.65,22.15-6.76,10-15,20.14-26.62,23.27-4.24,1.13-9.62.81-11.9-2.91-2-3.26-.59-7.62,1.9-10.52s5.88-4.87,8.66-7.5c8.22-7.78,9.76-21.58,3.46-31-3.37-5-8.51-8.63-12.31-13.35s-6.13-11.61-2.9-16.73a114.15,114.15,0,0,0-1.58,80c5.31,14.94,13.9,29.37,13.66,45.22,0,3.72-.8,7.8-3.68,10.19-2.63,2.17-6.33,2.37-9.75,2.47l-30.09.89c-4.07.12-8.48.14-11.76-2.25-3.08-2.24-4.43-6.09-5.51-9.73a192.78,192.78,0,0,1-6.63-77.09"/><path d="M270.16,512.66c8.76-3.15,18.27-2.1,26.76,1.4,8.85,3.64,16.2,10,22.41,17.12,6.5,7.51,11.8,16,17.18,24.28l9.12,14.11c2.83,4.37,6.23,8.75,8.07,13.66,3.7,9.88-2.81,19.34-8.3,27.1-5.11,7.23-11.12,14.42-19.27,18.3-3.46,1.65-7.69,3-11.52,1.85a5.41,5.41,0,0,1-3.82-3.31,7.5,7.5,0,0,1,.86-5.89c2.31-4.21,7-6.43,10.29-9.72a25.09,25.09,0,0,0,6.14-10.25,26.09,26.09,0,0,0-3.41-23c-5.16-7.07-15-12.28-15.89-21.81a9.47,9.47,0,0,1,1.28-5.91l-2.74-1.16a115.6,115.6,0,0,0-2.1,79.32c2.88,8.48,6.83,16.55,9.88,25a78,78,0,0,1,3.54,12.7c.71,4,1.18,8.51.3,12.54a9,9,0,0,1-2.56,5A9.68,9.68,0,0,1,311,686c-4.67.58-9.51.4-14.2.54l-15.05.44c-4.19.13-8.82.74-12.88-.59s-5.74-5-6.93-8.69c-1.46-4.53-2.63-9.17-3.67-13.8a191.65,191.65,0,0,1-4.06-57.31q.28-3.52.7-7c.22-1.91-2.78-1.9-3,0a194.59,194.59,0,0,0,2.26,59.38c.94,4.86,2.07,9.7,3.38,14.48,1.13,4.08,2.16,8.52,4.82,11.92s6.61,4.58,10.74,4.79c4.83.25,9.73-.16,14.56-.3l15.54-.46c4.3-.13,9.11.21,13.07-1.76,8-4,6.44-15.89,5-23-1.77-9-5.59-17.49-9.1-25.95A129.49,129.49,0,0,1,304,611.92a113,113,0,0,1,3.89-55.26c.71-2.17,1.5-4.32,2.35-6.44.64-1.62-1.89-2.56-2.74-1.16-2.46,4.07-2,8.92-.19,13.13,2,4.56,5.53,8,9,11.4,3.35,3.24,6.71,6.6,8.44,11A23.44,23.44,0,0,1,326,597a22.88,22.88,0,0,1-5.15,11.33c-3.22,3.71-7.85,5.93-10.8,9.89-2.65,3.55-3.78,8.74-.74,12.41,2.69,3.25,7.38,3.64,11.27,3,9.22-1.53,16.89-8.48,22.61-15.46a118.14,118.14,0,0,0,8.48-11.8c2.79-4.4,5.26-9.2,6-14.41.72-5.48-1.07-10.47-3.84-15.12-2.95-4.95-6.23-9.72-9.36-14.55-6-9.22-11.69-18.67-18.35-27.41-6.11-8-13.2-15.55-22-20.59-8.34-4.76-18.17-7.47-27.79-6.17a34,34,0,0,0-6.91,1.68c-1.81.65-1,3.55.79,2.9Z"/><path d="M267.55,633.41l25.52.6c1.93,0,1.93-3,0-3l-25.52-.6c-1.93,0-1.93,3,0,3Z"/><path d="M187.91,634.29l23.42,3.43a1.56,1.56,0,0,0,1.85-1,1.52,1.52,0,0,0-1.05-1.85l-23.42-3.43a1.54,1.54,0,0,0-1.84,1.05,1.5,1.5,0,0,0,1,1.84Z"/><path class="cls-1" d="M262.44,506.74c7.05,1.19,14.76,2.88,19.07,8.56a14.67,14.67,0,0,1,.52,16.55,14.88,14.88,0,0,1-15.53,6c3,1.08,6.11,2.18,8.62,4.17s4.39,5.05,4.1,8.22a14.09,14.09,0,0,1-1.33,4.31l-26.23,61.37c-1.33-34.86-2.52-70.7,9.2-103.57.62-1.74,1.36-3.57,2.87-4.63s4-.87,4.8.81"/><path d="M262,508.19c6.42,1.09,14.12,2.46,18.29,8s3,14-2.71,18a13.53,13.53,0,0,1-10.72,2.18,1.5,1.5,0,0,0-.8,2.89c4.35,1.54,9.8,3.48,11.34,8.36.84,2.66-.4,5.1-1.43,7.51l-3.52,8.24-14.1,33-8,18.78,2.79.76c-1.14-30-2.31-60.64,5.15-90,1-4,2.19-8,3.54-11.88.56-1.61,1.06-3.62,2.38-4.81.81-.73,2.39-1.11,3,.05.9,1.71,3.49.2,2.59-1.51-1.4-2.69-5.12-2.76-7.29-1-2.72,2.19-3.58,6.39-4.59,9.55a161.62,161.62,0,0,0-5.54,23.39c-2.62,16.08-3.2,32.41-3,48.68.1,9.18.44,18.36.79,27.54.05,1.34,2.17,2.22,2.8.75L268.23,581l7.53-17.64c1.25-2.92,2.53-5.85,3.76-8.78,1-2.5,1.63-5,.81-7.68-1.87-6-8-8.53-13.43-10.45l-.8,2.89c7.9,1.83,16.47-2.61,19-10.44a16.45,16.45,0,0,0-.75-11.77A17.48,17.48,0,0,0,276,509c-4.11-2-8.63-2.93-13.12-3.69-1.88-.33-2.69,2.56-.79,2.89Z"/><path class="cls-2" d="M172.78,634.19a14.32,14.32,0,0,0-12.62,11.09c-.43,2.13,0,4.9,2.13,5.52,1.77.52,3.52-.88,4.66-2.33a20.34,20.34,0,0,0,4.29-13.94"/><path d="M172.78,632.69a15.91,15.91,0,0,0-13.94,11.62c-.7,2.78-.35,6.69,2.77,7.83,3.83,1.41,6.89-2.8,8.47-5.67a22.07,22.07,0,0,0,2.66-11.94c-.13-1.91-3.13-1.93-3,0a19.43,19.43,0,0,1-1.35,8.53,18.68,18.68,0,0,1-2.07,3.77c-.7,1-1.7,2.32-3,2.56-2.13.4-1.92-3-1.61-4.29a12.87,12.87,0,0,1,11.05-9.41,1.5,1.5,0,0,0,0-3Z"/><path class="cls-2" d="M309.79,630.2a16.19,16.19,0,0,1,9,7.21,7.69,7.69,0,0,1,1.21,5.16,3.84,3.84,0,0,1-3.78,3.21c-2-.19-3.25-2.27-4-4.15a49.55,49.55,0,0,1-2.89-10.12"/><path d="M309.39,631.64c3.93,1.3,8,4.63,9,8.8a3.53,3.53,0,0,1-.32,2.79,2,2,0,0,1-1.91,1c-1.72-.31-2.52-2.9-3-4.28a51.45,51.45,0,0,1-2.41-8.89,1.51,1.51,0,0,0-1.84-1.05,1.54,1.54,0,0,0-1.05,1.85,50.65,50.65,0,0,0,2.67,9.58c1,2.51,2.45,5.42,5.45,5.76s5.34-2.4,5.57-5.21c.25-3-1.57-5.94-3.47-8.12a17.88,17.88,0,0,0-7.89-5.17c-1.83-.61-2.62,2.29-.8,2.89Z"/><path class="cls-1" d="M225.23,657.47a27.64,27.64,0,0,0,28-.62c6.19,7.69,2.32,20.76,9.65,27.38,4.71,4.25,11.86,3.78,18.23,3.69,2.54,0,5.41.18,7.07,2.08s1.43,5.12,1,7.78Q286,715.51,283,733.23a217.46,217.46,0,0,1-82.53,6.63c-3.23-.36-6.72-.93-8.91-3.31-1.69-1.84-2.26-4.4-2.77-6.84l-9-43.31c6-1.89,12.56-.91,18.88-.44s13.18.23,18.23-3.57c3.72-2.8,5.93-7.23,6.94-11.75s.94-9.22.87-13.85a17.48,17.48,0,0,0,15.22,4.31"/><path d="M224.47,658.77a29.28,29.28,0,0,0,29.51-.62l-1.82-.24c3.36,4.29,3.48,10.29,4.31,15.44.88,5.41,2.73,10.84,7.76,13.7,5.64,3.21,12.17,2.12,18.34,2.39a7.07,7.07,0,0,1,4,1.12,4.6,4.6,0,0,1,1.4,3.85,30.54,30.54,0,0,1-.66,4.94l-1.12,6.4-4.73,27.08,1.05-1.05a216.48,216.48,0,0,1-55.44,7.91,187.08,187.08,0,0,1-27.79-1.46,14.39,14.39,0,0,1-5.19-1.51,7.33,7.33,0,0,1-3.25-4.52c-1.33-4.4-2-9.09-2.93-13.6L181.16,686l-1,1.84c8.91-2.67,18.21.64,27.28-.46a19,19,0,0,0,17.33-14.47c1.57-5.2,1.5-10.74,1.41-16.12l-2.56,1.06a19.19,19.19,0,0,0,16.67,4.69c1.9-.36,1.1-3.25-.79-2.89a16,16,0,0,1-13.76-3.92,1.51,1.51,0,0,0-2.56,1.06c.13,8.07.22,17.59-6.19,23.54-6,5.55-15.12,4.4-22.54,3.78-5.05-.41-10.18-.63-15.09.84a1.55,1.55,0,0,0-1.05,1.85L184.55,717c1,4.83,1.92,9.69,3,14.49.95,4.11,3,7.29,7.06,8.77a25.09,25.09,0,0,0,5.77,1.13c2.35.27,4.71.49,7.07.68q7.31.57,14.65.66a221.06,221.06,0,0,0,61.21-8,1.47,1.47,0,0,0,1-1l4.34-24.86c.69-4,1.5-7.91,2.06-11.89.43-3.09.33-6.55-2.34-8.65-2.5-2-5.88-1.83-8.89-1.78a42.16,42.16,0,0,1-9.85-.54,11.84,11.84,0,0,1-7.34-4.47,18.87,18.87,0,0,1-2.77-7.56c-1.17-6.24-1.22-12.87-5.32-18.09a1.51,1.51,0,0,0-1.82-.23,26.22,26.22,0,0,1-26.48.62,1.5,1.5,0,0,0-1.51,2.59Z"/><path class="cls-2" d="M213.38,741.59l6.26,44.2a7.81,7.81,0,0,0,1.52,4.28c1.3,1.41,3.45,1.66,5.37,1.45s3.8-.81,5.72-.72,4,1.12,4.49,3a23.71,23.71,0,0,1,16-3.5L262.41,738a222.38,222.38,0,0,1-50,2.82l.18,1.48"/><path d="M211.93,742l4,28.24,2,14.24c.27,1.93.4,4,1.45,5.75a6.14,6.14,0,0,0,4.17,2.7c2.27.41,4.43-.18,6.67-.5,1.68-.24,4.41-.26,5.06,1.75a1.51,1.51,0,0,0,2.2.9,22.75,22.75,0,0,1,15.22-3.3,1.49,1.49,0,0,0,1.44-1.1l9.69-52.28a1.52,1.52,0,0,0-1.84-1.84,223.56,223.56,0,0,1-49.63,2.76,1.5,1.5,0,0,0-1.5,1.5l.18,1.48c.23,1.89,3.24,1.92,3,0l-.18-1.48-1.5,1.5a226.54,226.54,0,0,0,50.43-2.87L261,737.59l-9.69,52.28,1.45-1.1A25.3,25.3,0,0,0,236,792.48l2.2.9c-1.25-3.9-5.51-4.38-9-3.82-1.81.29-3.73.85-5.55.31s-2.28-2.5-2.54-4.28c-1.39-9.39-2.67-18.79-4-28.19l-2.3-16.21c-.27-1.9-3.16-1.09-2.89.8Z"/><path class="cls-3" d="M236.92,793.71a5.17,5.17,0,0,0-4-2.56,15.38,15.38,0,0,0-4.91.39c-2.74.52-5.74,1.18-7.44,3.39-1.36,1.75-1.58,4.09-1.75,6.29a3.63,3.63,0,0,0,.35,2.35,3.5,3.5,0,0,0,1.83,1.14,26.07,26.07,0,0,0,14.09.73,34.64,34.64,0,0,1,1.8-11.1,31.73,31.73,0,0,0-1.82,7.86,4.22,4.22,0,0,0,.33,2.61c.67,1.14,2.14,1.47,3.46,1.62a32.32,32.32,0,0,0,12-.94,2.81,2.81,0,0,0,1.65-.92,2.91,2.91,0,0,0,.37-1.6l.15-5.22a15,15,0,0,0-.17-3.55,5.06,5.06,0,0,0-1.74-3,6.25,6.25,0,0,0-4-1A15.53,15.53,0,0,0,237,794.42"/><path d="M238.22,793c-2.29-4.16-7.4-3.51-11.32-2.72s-7.48,2.32-8.83,6.34a14.69,14.69,0,0,0-.71,6.27c.35,2.19,2.17,3,4.1,3.59a28.07,28.07,0,0,0,14,.46,1.52,1.52,0,0,0,1.1-1.45,34.45,34.45,0,0,1,1.74-10.7c.61-1.85-2.24-2.59-2.89-.8a33.49,33.49,0,0,0-1.71,7c-.28,2-.47,4.21,1.25,5.67,1.53,1.31,3.82,1.4,5.73,1.49a34,34,0,0,0,7.13-.4c1.85-.3,4.64-.53,5.84-2.19s.74-4.42.8-6.31c.07-2.3.28-4.72-.68-6.87a6,6,0,0,0-4.77-3.52c-4.72-.72-9.72,1.4-13.13,4.58-1.41,1.32.71,3.44,2.12,2.12,2.7-2.52,7.2-4.62,11-3.67,2.33.59,2.57,3,2.55,5,0,1.09-.06,2.18-.1,3.27l-.05,1.9a5.17,5.17,0,0,1-.06,1.42c-.31.72-1.52.78-2.25.94a30.15,30.15,0,0,1-3.27.55,28.94,28.94,0,0,1-7,0,3.47,3.47,0,0,1-2-.68c-.66-.69-.29-2.15-.18-3a32.46,32.46,0,0,1,1.65-6.52l-2.89-.8a37.15,37.15,0,0,0-1.85,11.5l1.1-1.45a24.73,24.73,0,0,1-10.28.1c-1.1-.23-3.92-.52-4.12-1.85a11.86,11.86,0,0,1,.55-4.5c.87-3,3.69-4,6.49-4.54,2.56-.54,6.71-1.61,8.29,1.27.93,1.69,3.52.18,2.59-1.52Z"/><path d="M236.56,742.08a305.92,305.92,0,0,1-.59,49.46c-.18,1.93,2.82,1.91,3,0a305.92,305.92,0,0,0,.59-49.46c-.13-1.91-3.13-1.93-3,0Z"/><path class="cls-4" d="M220,505.65a123.81,123.81,0,0,0,41.14,1.11,316.82,316.82,0,0,0-7.23,135.63c.87,5.26,1.54,11.54-2.45,15.11a12.88,12.88,0,0,1-6.78,2.72,35.26,35.26,0,0,1-20.75-3.11,360.1,360.1,0,0,0-2.35-151.92"/><path d="M219.56,507.1a127.5,127.5,0,0,0,41.93,1.11l-1.84-1.85A318.34,318.34,0,0,0,249,614.27q.66,9,1.82,17.84c.38,2.95.8,5.88,1.27,8.81a55.52,55.52,0,0,1,.9,7.48c.06,2.43-.21,5.06-1.73,7.06-1.79,2.36-4.95,3-7.72,3.41a34.1,34.1,0,0,1-18.93-3l.69,1.69A361.31,361.31,0,0,0,232.18,598a363.17,363.17,0,0,0-3.09-59.87q-2.26-16.79-6.1-33.3c-.44-1.87-3.33-1.08-2.89.8a357.48,357.48,0,0,1,8.57,58.76,361.2,361.2,0,0,1-1.21,59.29q-1.72,16.65-5,33.07a1.55,1.55,0,0,0,.69,1.7,37.32,37.32,0,0,0,17.1,3.71c5.15-.13,11.43-1,14.2-6,2.35-4.22,1.65-9.41.91-14-1-6.14-1.84-12.3-2.48-18.48a315,315,0,0,1,9.68-116.52,1.52,1.52,0,0,0-1.84-1.85,122.5,122.5,0,0,1-40.34-1.11c-1.88-.36-2.69,2.53-.8,2.9Z"/><ellipse class="cls-2" cx="237.61" cy="338.5" rx="234.52" ry="179.5"/><path d="M237.61,161a293.57,293.57,0,0,1,90.83,14.07c27.73,9,52.62,21.87,74,38.26s38,35.33,49.62,56.45c12,21.78,18.09,44.9,18.09,68.72S464,385.44,452,407.22c-11.65,21.12-28.34,40.12-49.62,56.45s-46.25,29.26-74,38.26a300.22,300.22,0,0,1-181.66,0c-27.73-9-52.62-21.87-74-38.26s-38-35.33-49.61-56.45c-12-21.78-18.09-44.9-18.09-68.72s6.08-46.94,18.09-68.72c11.64-21.12,28.33-40.12,49.61-56.45s46.25-29.26,74-38.26A293.57,293.57,0,0,1,237.61,161m0-4C107,157,1.1,238.26,1.1,338.5S107,520,237.61,520s236.52-81.26,236.52-181.5S368.23,157,237.61,157Z"/><path class="cls-5" d="M10.3,365.55a14.67,14.67,0,0,1-6.12-1.41A182.85,182.85,0,0,1,2,336c0-54.81,24.47-106.33,68.76-145.09s103.34-60.2,166.09-60.2h.24c62.8.05,121.8,21.51,166.15,60.42s68.62,90.44,68.58,145.28c0,2.12-.05,4.31-.15,6.67-6.56-.83-11.56-2.71-15.23-5.73-9-7.36-8.86-20.22-8.06-31.7l.26-3.74-3.25,1.87a15,15,0,0,1-7.58,1.9,22.78,22.78,0,0,1-15.63-6.7c-6-6.2-8.12-14.64-9.56-22.83l-.2-1.17c-.85-4.95-1.73-10.06-4.7-14.54a16.73,16.73,0,0,0-13.4-7.59,12.54,12.54,0,0,0-3.18.4,22.1,22.1,0,0,0-3.59,1.37,14.14,14.14,0,0,1-3.74,1.3,6.16,6.16,0,0,1-.95.07c-5.83,0-9.34-8.08-10.28-10.56-1.32-3.49-5.34-14.12-14.43-14.12-3.77,0-6.71,1.84-9.55,3.6a22.54,22.54,0,0,1-5.64,2.82,10.37,10.37,0,0,1-2.68.35c-4.86,0-9.35-3.18-11.93-6.15a52.54,52.54,0,0,1-5.41-8,70.48,70.48,0,0,0-4.34-6.79,9.91,9.91,0,0,0-5-3.92,7.34,7.34,0,0,0-2-.29c-2.69,0-5.15,1.39-7,2.6s-3.52,2.41-5.22,3.62c-5.51,3.94-10.72,7.66-17.07,9a15.57,15.57,0,0,1-3.25.33c-4.63,0-9.41-1.89-11.9-4.7a6.39,6.39,0,0,1-1.77-5.15l.2-1.61-1.53-.53a9.53,9.53,0,0,0-3.12-.54c-5.11,0-9,4.19-12.75,8.24-3.38,3.63-6.57,7.07-10.05,7.07a5.49,5.49,0,0,1-1.68-.26c-3.13-.95-4.2-4.2-5.44-8s-2.7-8.2-6.82-10.4a10.19,10.19,0,0,0-4.81-1.21c-6.63,0-12.58,6.19-15.66,11.49-4.46,7.67-8.69,11.4-12.92,11.4a8,8,0,0,1-1.66-.18c-4.24-.94-6.54-5.22-9-9.75-2.78-5.16-5.92-11-12.63-11h-.45a12.74,12.74,0,0,0-5,1.33c-7,3.34-10.57,10.23-13.38,17.18l-.23.58c-2.39,5.92-4.86,12.05-10.12,15.57a13.39,13.39,0,0,1-7.26,2c-3.15,0-7.23-1.15-8.36-4.41a15,15,0,0,1-.57-3.44c-.23-2.65-.49-5.65-3.17-7.66a8.3,8.3,0,0,0-5.1-1.52,14.6,14.6,0,0,0-3.49.45C99,236.22,92.66,246.56,87.59,256l-15.5,29c-2.15,4-4.19,5.89-6.44,5.89h-.19c-3-.14-4.3-3.17-6-8.14-1.66-4.81-3.54-10.26-9.27-10.26l-.66,0c-3,.23-5.21,2.15-6.81,3.8-12.79,13.12-13.82,31-14.81,48.31-.48,8.34-1,17-2.8,24.92-1.35,5.91-4.41,13.39-11.36,15.47A11.9,11.9,0,0,1,10.3,365.55Z"/><path d="M236.85,132.69h.24a260.56,260.56,0,0,1,90.81,16.13,236.42,236.42,0,0,1,74,43.8,203.83,203.83,0,0,1,49.75,64.73,180.36,180.36,0,0,1,18.14,79c0,1.41,0,2.85-.06,4.36-5.11-.89-9.07-2.52-12-5-8.23-6.76-8.1-19-7.34-30l.52-7.48-6.5,3.73a13,13,0,0,1-6.58,1.64,20.68,20.68,0,0,1-14.19-6.09c-5.6-5.81-7.65-13.9-9-21.79l-.2-1.17c-.84-4.9-1.8-10.47-5-15.29a18.78,18.78,0,0,0-15.07-8.49,14.61,14.61,0,0,0-3.68.46,24.92,24.92,0,0,0-3.92,1.49,12.64,12.64,0,0,1-3.19,1.14,3.78,3.78,0,0,1-.67.05c-3.61,0-6.71-4.78-8.41-9.26-1.44-3.82-5.83-15.42-16.3-15.42h-.07c-4.28,0-7.6,2.08-10.53,3.9a20.85,20.85,0,0,1-5.12,2.58,8,8,0,0,1-2.15.29c-3.45,0-7.54-2.15-10.42-5.46a51.19,51.19,0,0,1-5.19-7.74,73.7,73.7,0,0,0-4.47-7,11.79,11.79,0,0,0-6-4.64,9.32,9.32,0,0,0-2.59-.37c-3.23,0-6,1.57-8.09,2.93-1.8,1.18-3.57,2.44-5.28,3.67-5.34,3.81-10.38,7.41-16.33,8.68a13.58,13.58,0,0,1-2.83.28c-4.09,0-8.27-1.62-10.41-4a4.45,4.45,0,0,1-1.28-3.58l.4-3.21-3.06-1.06a11.54,11.54,0,0,0-3.77-.65c-6,0-10.35,4.72-14.22,8.88-2.93,3.16-6,6.43-8.58,6.43A3.93,3.93,0,0,1,237,229c-1.92-.59-2.77-2.58-4.12-6.68s-2.95-9-7.78-11.54a12,12,0,0,0-5.75-1.45c-7.48,0-14,6.73-17.39,12.49-4,6.9-7.78,10.4-11.19,10.4a5.69,5.69,0,0,1-1.22-.13c-3.35-.74-5.44-4.63-7.66-8.75-2.89-5.37-6.49-12.06-14.39-12.06H167a14.72,14.72,0,0,0-5.76,1.52c-7.61,3.64-11.4,10.91-14.36,18.24l-.24.59c-2.38,5.9-4.63,11.47-9.38,14.64a11.28,11.28,0,0,1-6.14,1.7c-2.69,0-5.74-1-6.47-3.06a13.25,13.25,0,0,1-.46-3c-.25-2.76-.58-6.54-4-9.08a10.28,10.28,0,0,0-6.3-1.92,16.63,16.63,0,0,0-4,.51c-12.21,3-18.85,13.74-24.12,23.59L75.71,274l-5.38,10.08c-1.69,3.16-3.31,4.83-4.68,4.83h-.1c-1.63-.08-2.62-2.16-4.22-6.79-1.69-4.9-4-11.61-11.16-11.61l-.82,0c-3.69.28-6.39,2.64-8.09,4.39C28,288.62,26.91,306.89,25.89,324.55c-.47,8.26-1,16.81-2.74,24.59-1.24,5.4-4,12.2-10,14a10.14,10.14,0,0,1-2.86.41A12.36,12.36,0,0,1,6,362.73,180,180,0,0,1,22.27,257a203.62,203.62,0,0,1,49.8-64.62,236.51,236.51,0,0,1,74-43.67,260.52,260.52,0,0,1,90.76-16m0-4C106.12,128.69.1,221.45,0,336a183.26,183.26,0,0,0,2.37,29.49,17,17,0,0,0,7.93,2.08,13.73,13.73,0,0,0,4-.58C21.82,364.73,25.44,357.05,27,350c5.62-24.56-1.22-53.48,17.09-72.29,1.48-1.52,3.3-3,5.53-3.19a4.52,4.52,0,0,1,.51,0c8.68,0,6,18,15.19,18.4h.29c3.89,0,6.48-3.72,8.2-6.94l15.51-29c4.82-9,10.85-19,21.54-21.6a13.3,13.3,0,0,1,3-.39,6.45,6.45,0,0,1,3.9,1.12c3.06,2.29,1.86,6.73,3.05,10.16,1.34,3.87,5.7,5.75,10.25,5.75a15.33,15.33,0,0,0,8.37-2.37c5.95-4,8.55-10.77,11.1-17.06s5.83-13,12.38-16.13a10.85,10.85,0,0,1,4.18-1.14h.38c10.67,0,10.56,18.37,21.18,20.71a9.55,9.55,0,0,0,2.09.23c6.48,0,11.38-6.77,14.64-12.39,2.93-5,8.42-10.5,13.94-10.5a8.13,8.13,0,0,1,3.86,1c7.16,3.83,4.75,16.14,12.63,18.53a8,8,0,0,0,2.26.34c8.67,0,14.3-15.31,22.8-15.31a7.59,7.59,0,0,1,2.46.43c-.87,7.08,7.62,12.1,15.66,12.1a17.92,17.92,0,0,0,3.67-.37c8.84-1.88,15.61-8.09,23-12.92,1.74-1.15,3.81-2.27,5.89-2.27a5.4,5.4,0,0,1,1.48.21,8,8,0,0,1,3.94,3.2c3.6,4.8,5.87,10.38,9.84,14.94,3.28,3.77,8.32,6.84,13.44,6.84a12.09,12.09,0,0,0,3.2-.43c5.24-1.42,9.15-6.31,14.62-6.34h0c6.75,0,10.37,7,12.56,12.83,2.06,5.45,6.13,11.85,12.15,11.85a10.73,10.73,0,0,0,1.24-.08c2.68-.39,4.93-2,7.55-2.73a10.56,10.56,0,0,1,2.67-.33c4.67,0,9.25,2.95,11.73,6.7,3,4.46,3.7,9.8,4.6,14.94,1.49,8.53,3.82,17.37,10.09,23.88a24.6,24.6,0,0,0,17.07,7.31,17.07,17.07,0,0,0,8.57-2.17c-.82,11.84-.91,25.42,8.79,33.39,5,4.12,11.56,5.79,18.41,6.39.14-2.94.23-5.9.23-8.87.11-114.6-105.88-207.6-236.72-207.71Z"/><ellipse class="cls-6" cx="239.62" cy="75" rx="73.47" ry="73"/><ellipse class="cls-7" cx="358.24" cy="384.94" rx="16.1" ry="16"/><ellipse class="cls-7" cx="119.71" cy="384.94" rx="16.1" ry="16"/><path d="M255,332.31c2.48-15.35,13.51-28.59,27.75-34.63,14.72-6.24,31.51-3.32,44.14,6.2a44.47,44.47,0,0,1,15.42,20.94,1.53,1.53,0,0,0,2.21.9l21-9.32c1.77-.78.24-3.37-1.51-2.59l-21,9.32,2.2.9c-5.39-15.87-19.64-28-35.91-31.6-16.53-3.69-33.62,2.39-45,14.72a47.36,47.36,0,0,0-12.17,24.37c-.3,1.89,2.59,2.7,2.9.79Z"/><path d="M346.13,324.67,354,303.44c.67-1.81-2.22-2.6-2.89-.8l-7.89,21.23c-.68,1.81,2.22,2.59,2.89.8Z"/><path d="M228.66,330.5c-2.7-16.5-14.95-30.45-30.22-36.75-15.76-6.49-33.91-3.37-47.37,6.83A47.89,47.89,0,0,0,134.51,323l2.2-.9-21.27-9.32c-1.76-.77-3.28,1.82-1.52,2.59l21.28,9.32a1.52,1.52,0,0,0,2.2-.89c5.17-15,19-26.17,34.3-29.53,15.68-3.43,31.83,2.45,42.65,14.09a44.38,44.38,0,0,1,11.42,22.93c.31,1.9,3.2,1.09,2.89-.8Z"/><path d="M136.44,322.85l-8-21.23c-.67-1.79-3.57-1-2.89.8l8,21.23c.67,1.79,3.58,1,2.89-.8Z"/><path class="cls-8" d="M257.74,126.61c-10.3-2.1-20.87-4.26-30.28-9.13A44.7,44.7,0,0,1,207.05,96c-4.23-9.26-5.9-19.59-6.51-29.68-.67-11.08-.16-22.83,6.63-32.13,5.66-7.75,14.89-12.88,24.56-12.88A28.73,28.73,0,0,1,256.45,35,46,46,0,0,1,262,51a39.25,39.25,0,0,1-.72,17.25c-2.64,9.18-10.46,17.87-20.47,18.59a11.48,11.48,0,0,1-7.69-1.88,15,15,0,0,1-4.41-5.82c-2.37-5-3.89-11.21-2.46-16.67,1.11-4.22,4.84-9,9.63-9a3.22,3.22,0,0,1,2.77,1.7,23.21,23.21,0,0,1,2.16,3.7c.77,1.7,1.53,4.65-.71,5.56-.65.27-2.55.56-2.61-.54-.12-1.92-3.12-1.94-3,0,.26,4.68,6.78,4.71,9.07,1.54,1.72-2.39,1-5.62-.16-8.08s-2.83-5.69-5.51-6.58-5.7.16-7.91,1.58a15.34,15.34,0,0,0-5.24,5.78c-3,5.67-2.25,12.4-.3,18.28,1.81,5.45,4.87,11.08,10.75,12.85,5.45,1.64,11.67-.09,16.36-3,10.27-6.45,14.65-18.59,14-30.32-.67-12.09-5.31-25.23-15.75-32.21a32.59,32.59,0,0,0-31.38-2.44c-10.65,4.85-17.87,14.89-20,26.27A77,77,0,0,0,197.59,67a108.54,108.54,0,0,0,2.39,17c2.55,11.09,7.55,22,16.29,29.5,9,7.77,20.56,11.46,31.95,14.06,2.9.67,5.81,1.27,8.73,1.86,1.88.38,2.69-2.51.79-2.89Z"/><path class="cls-9" d="M222.93,434.4c.37,3.66.88,7.3,1.5,10.93a66.81,66.81,0,0,1,28-23.35,1.55,1.55,0,0,1,.91-.12l2.34-20.92a1.33,1.33,0,0,1,.06-.3c-.9.28-1.8.55-2.71.78a60.37,60.37,0,0,1-30.15-.06A165.07,165.07,0,0,0,222.93,434.4Z"/><path class="cls-10" d="M225.54,449.12a1.59,1.59,0,0,1-.34.38c.89,4.47,1.79,9.17,4.19,13.12,2.06,3.38,5.68,6.27,9.85,6.12,3.95-.14,7-3.38,8.51-6.73,2-4.4,2.19-9.54,2.72-14.27q.87-7.8,1.75-15.6c.26-2.37.53-4.75.79-7.12A64.11,64.11,0,0,0,225.54,449.12Z"/><path d="M263.9,394a56.73,56.73,0,0,1-43.12,3.63,53.64,53.64,0,0,1-11.37-5.14,1.5,1.5,0,0,0-1.53,2.59,56.83,56.83,0,0,0,12.08,5.4l0-.27c.2-1.9,3.22-1.91,3,0,0,.37-.07.74-.1,1.11a60.37,60.37,0,0,0,30.15.06c.91-.23,1.81-.5,2.71-.78a1.68,1.68,0,0,1,2.5-.86,58.46,58.46,0,0,0,7.16-3.15C267.14,395.72,265.62,393.13,263.9,394Z"/><path d="M255.71,400.94l-2.34,20.92c1.3.21,2.07,2.07.62,2.71-.33.14-.65.3-1,.45-.26,2.37-.53,4.75-.79,7.12q-.89,7.8-1.75,15.6c-.53,4.73-.69,9.87-2.72,14.27-1.55,3.35-4.56,6.59-8.51,6.73-4.17.15-7.79-2.74-9.85-6.12-2.4-3.95-3.3-8.65-4.19-13.12-1.16,1-3.2-.4-2.27-1.89.48-.77,1-1.53,1.5-2.28-.62-3.63-1.13-7.27-1.5-10.93a165.07,165.07,0,0,1,0-33c-1-.25-2-.54-2.95-.84a165.87,165.87,0,0,0-.19,32.44q.73,8,2.24,15.9c.93,4.87,1.87,9.93,4.24,14.34,2.06,3.82,5.49,7.1,9.8,8.18a11.66,11.66,0,0,0,11.43-3.6c3.28-3.51,4.52-8.17,5.17-12.81.75-5.44,1.25-10.93,1.87-16.39q2.1-18.82,4.21-37.64a1.22,1.22,0,0,0-.46-1.16c-.83.3-1.66.6-2.5.86A1.33,1.33,0,0,0,255.71,400.94Z"/><path d="M223,400.25c.2-1.91-2.82-1.9-3,0l0,.27c1,.3,2,.59,2.95.84C222.94,401,223,400.62,223,400.25Z"/><path d="M255.77,400.64c.84-.26,1.67-.56,2.5-.86A1.68,1.68,0,0,0,255.77,400.64Z"/><path d="M252.46,422a66.81,66.81,0,0,0-28,23.35c.24,1.39.49,2.77.77,4.16h0a1.59,1.59,0,0,0,.34-.38A64.11,64.11,0,0,1,253,425l.36-3.16A1.55,1.55,0,0,0,252.46,422Z"/><path d="M224.43,445.33c-.51.75-1,1.51-1.5,2.28-.93,1.49,1.11,2.85,2.27,1.89h0C224.92,448.1,224.67,446.72,224.43,445.33Z"/><path d="M254,424.57c1.45-.64.68-2.5-.62-2.71L253,425C253.34,424.87,253.66,424.71,254,424.57Z"/></svg>