<svg id="Layer_1" data-name="Layer 1" xmlns="http://www.w3.org/2000/svg" width="564.83" height="507.03" viewBox="0 0 564.83 507.03"><defs><style>.cls-1{fill:#ff74af;stroke:#ff357f;stroke-miterlimit:10;stroke-width:17px;}.cls-2{fill:#f9b4ff;}</style></defs><path class="cls-1" d="M282,495,69.82,282.87C-98,115,114.11-97.11,282,70.74,451.4-98.71,663.53,113.43,494.09,282.87Z"/><path class="cls-2" d="M68.47,75.39c-11.58,9.92-19.76,23.29-25,37.48a100.31,100.31,0,0,0-5.3,23.47,93.38,93.38,0,0,0,.14,22.6A117.06,117.06,0,0,0,41,174a110.21,110.21,0,0,0,5.18,14.39c1.09,2.56,4.62,4.81,7.17,5.51a12.25,12.25,0,0,0,9.25-1.21,12.12,12.12,0,0,0,5.51-7.17l.43-3.19a12,12,0,0,0-1.64-6.06l-.17-.39L68,178.77a89.79,89.79,0,0,1-6-22.37l.43,3.19a94,94,0,0,1,0-24.79L61.91,138a88.24,88.24,0,0,1,6-22.15l-1.21,2.87a82.85,82.85,0,0,1,10.57-18.22l-1.87,2.43a72.54,72.54,0,0,1,10-10.56C87.67,90.45,89,86.71,89,83.87a12,12,0,0,0-12-12,13.34,13.34,0,0,0-8.48,3.52Z"/><path class="cls-2" d="M123.24,66.32c.54-.25,1.08-.48,1.63-.72L122,66.81a78.86,78.86,0,0,1,20.11-5.46l-3.19.42a79.15,79.15,0,0,1,20.4,0l-3.19-.43c.89.13,1.76.26,2.64.41,3.27.55,6.29.52,9.25-1.21a12,12,0,0,0,4.3-16.42c-1.59-2.47-4.14-5-7.17-5.51a89.1,89.1,0,0,0-26.23-.86,98.85,98.85,0,0,0-14.07,2.66,99.8,99.8,0,0,0-13.72,5.16c-2.58,1.16-4.8,4.57-5.52,7.18A12.27,12.27,0,0,0,106.82,62,12.13,12.13,0,0,0,114,67.53l3.19.43a12,12,0,0,0,6.06-1.64Z"/></svg>