<svg id="Layer_1" data-name="Layer 1" xmlns="http://www.w3.org/2000/svg" width="480" height="820" viewBox="0 0 480 820"><defs><style>.cls-1{fill:#404a4c;}.cls-2{fill:#ffedc9;}.cls-3{fill:#4d4d4d;}.cls-4{fill:#7f0015;}.cls-5,.cls-6{fill:#f40000;}.cls-6{stroke:#000;stroke-miterlimit:10;stroke-width:4px;}.cls-7{fill:#ffa18a;}.cls-8{fill:#fa8aff;}.cls-9{fill:#fff;}</style></defs><path class="cls-1" d="M193.61,521.65a154.68,154.68,0,0,0-53.05,43c-4.13,5.26-8,10.93-9.81,17.37-2.58,9.12-.8,19,3.05,27.71s9.61,16.33,15.33,23.89c4.28,5.65,10,11.94,17,10.93,6-.87,10-7.19,10.2-13.23s-2.52-11.78-5.49-17c-2-3.63-4.25-7.21-5.52-11.18s-1.5-8.45.36-12.17,5.77-6.32,8.37-9.75a18.23,18.23,0,0,0-.5-22c9.31,17.31,9.16,38.27,5.28,57.54s-11.2,37.7-15.6,56.86c-1.3,5.7-2.12,12.37,1.75,16.75,3.64,4.13,9.87,4.41,15.38,4.39l21-.1c5.46,0,11.5-.26,15.48-4,3.78-3.56,4.53-9.21,5.06-14.38l5.49-53.77"/><path d="M192.85,520.35a156.55,156.55,0,0,0-43.5,31.87q-4.69,4.89-8.94,10.19a77.15,77.15,0,0,0-8,11.58,38,38,0,0,0-3,27.45c2.34,9.5,7.52,18,13.2,25.82,2.68,3.72,5.37,7.51,8.39,11,2.65,3,5.81,5.88,9.68,7.22,7.83,2.7,14.92-3.23,16.71-10.69,2.28-9.44-3.59-18.06-7.85-26-2.2-4.09-4.11-8.62-3.6-13.37s3.81-7.48,6.87-10.6A19.7,19.7,0,0,0,177.56,563a19,19,0,0,0-2.95-4.94c-1.11-1.37-3.12.37-2.35,1.81,7.92,14.87,8.79,32.38,6.44,48.78-2.6,18.13-9,35.4-13.95,53-1.22,4.35-2.43,8.74-3.32,13.17a26.15,26.15,0,0,0-.31,11.1,12.23,12.23,0,0,0,6.19,8.08c3.25,1.7,7,2.09,10.63,2.18,4.47.11,9,0,13.43,0s9,.09,13.51-.12c3.65-.17,7.45-.7,10.66-2.58a14.85,14.85,0,0,0,6.43-8.68c1.17-3.79,1.4-7.84,1.8-11.77l1.48-14.55,2.95-28.86.73-7.15c.19-1.92-2.81-1.91-3,0-1.88,18.43-3.55,36.89-5.65,55.3-.41,3.53-1,7.28-3.12,10.25s-5.67,4.3-9.19,4.78a91.76,91.76,0,0,1-12,.36l-13.94.06c-6.46,0-15.6.3-17.87-7.37-1-3.42-.51-7.15.2-10.57.88-4.23,2-8.42,3.18-12.57,4.79-17.1,11-33.89,13.75-51.49,2.48-15.78,2.32-32.52-4-47.45-.76-1.82-1.61-3.6-2.53-5.34l-2.36,1.82a16.74,16.74,0,0,1,.26,20.18c-2.47,3.2-5.93,5.53-8,9.06s-2.31,8.12-1.38,12.2c2,8.87,8.91,15.7,10.94,24.6a15.85,15.85,0,0,1-1.2,11.24c-1.66,3-4.51,5.49-8.08,5.63-3.78.14-7.07-2.1-9.68-4.61a75.55,75.55,0,0,1-7.92-9.65c-5.46-7.32-10.81-15-13.84-23.7s-3.7-18.14,0-26.69c3.42-8,9.41-14.87,15.19-21.22a153.53,153.53,0,0,1,40-31.42c1.83-1,3.69-2,5.56-2.88s.21-3.44-1.52-2.59Z"/><path class="cls-1" d="M217.11,513.58c-6.83-.1-14.27,0-19.58,4.29a15.61,15.61,0,0,0-3.91,18.57,16.37,16.37,0,0,0,17.16,8.42,30,30,0,0,0-8.05,3.06,10.11,10.11,0,0,0-4.94,6.77c-.53,3.47,1.39,6.78,3.17,9.8a252,252,0,0,1,26.52,63.79A279.8,279.8,0,0,0,221,520.52c-.6-2.28-1.28-4.65-2.93-6.33s-4.57-2.34-6.35-.79"/><path d="M217.11,512.08c-8.78-.12-19.28.42-24.21,9a16.93,16.93,0,0,0,4.75,22.22,18.07,18.07,0,0,0,13.53,3l-.79-2.89c-5.51,1.51-11.95,3.71-13.8,9.79-.93,3,0,6.17,1.34,8.94,1.46,3,3.29,5.76,4.9,8.65a249.32,249.32,0,0,1,16.51,36.35q3.82,10.61,6.69,21.54c.35,1.33,2.69,1.53,2.9,0a282.57,282.57,0,0,0,2.23-51.27A282.73,282.73,0,0,0,224,526.6c-.54-2.3-1.1-4.59-1.71-6.86a16.67,16.67,0,0,0-2.22-5.41c-2.16-3.06-6.32-4.47-9.46-2-1.51,1.19.63,3.3,2.13,2.12,1-.82,2.62-.39,3.61.28a7.34,7.34,0,0,1,2.49,3.9c1.2,3.59,2,7.38,2.8,11.07q2.63,11.63,4.24,23.44A278.26,278.26,0,0,1,228.31,601q-.5,13.5-2.28,26.89h2.9a256.9,256.9,0,0,0-12.28-35.68q-3.78-8.81-8.21-17.3c-1.4-2.7-2.86-5.36-4.36-8s-3.46-5.37-4.42-8.36a7.43,7.43,0,0,1,2.31-8.19c2.53-2.28,6-3.16,9.21-4,1.9-.52,1.08-3.21-.79-2.89-7,1.21-14.65-3.27-16.4-10.29a14.44,14.44,0,0,1,1.17-10,13.93,13.93,0,0,1,8.38-6.79c4.37-1.39,9-1.35,13.57-1.29,1.93,0,1.93-3,0-3Z"/><path class="cls-1" d="M268.35,520.17c13.19-4.86,28.39-.16,39.49,8.47s18.91,20.71,26.51,32.54l14.13,22c2.44,3.79,4.93,7.72,5.67,12.16,1.31,7.9-3.12,15.52-7.6,22.15-6.72,10-14.86,20.14-26.45,23.26-4.21,1.14-9.55.82-11.82-2.91-2-3.25-.59-7.62,1.88-10.51s5.85-4.88,8.61-7.5c8.16-7.79,9.7-21.58,3.44-31-3.35-5-8.46-8.62-12.23-13.34s-6.1-11.61-2.88-16.73a114.79,114.79,0,0,0-1.58,80c5.28,14.94,13.81,29.38,13.58,45.23-.06,3.72-.8,7.8-3.66,10.18-2.61,2.18-6.29,2.38-9.68,2.48l-29.91.89c-4,.12-8.42.14-11.68-2.25-3.05-2.25-4.4-6.1-5.47-9.73a194,194,0,0,1-6.59-77.09"/><path d="M268.75,521.62c8.72-3.15,18.21-2.09,26.65,1.43,8.84,3.7,16.15,10.05,22.33,17.26,6.45,7.53,11.71,16,17.06,24.32l9.07,14.12c2.8,4.35,6.17,8.74,7.95,13.64,3.55,9.8-2.91,19.21-8.32,26.91-5,7.16-10.95,14.3-19,18.21-3.48,1.7-7.75,3-11.61,1.94a5.4,5.4,0,0,1-3.79-3.32,7.47,7.47,0,0,1,.86-5.89c2.25-4.15,6.83-6.37,10.1-9.59a25.27,25.27,0,0,0,6.12-10c2.52-7.66,1.56-16.58-3.18-23.2-5.12-7.16-15-12.37-15.89-21.95a9.5,9.5,0,0,1,1.26-5.92l-2.74-1.15A116,116,0,0,0,298,611a114.6,114.6,0,0,0,5.4,26.29c2.83,8.5,6.75,16.57,9.81,25a80.48,80.48,0,0,1,3.61,12.81c.73,4.06,1.23,8.57.39,12.65a9.38,9.38,0,0,1-2.32,4.89,9.08,9.08,0,0,1-5.4,2.29,61.24,61.24,0,0,1-6.5.33l-7.73.23-15,.44c-4.26.13-9,.8-13.14-.68-3.89-1.42-5.58-5.28-6.73-9-1.4-4.49-2.55-9.07-3.57-13.66a192.73,192.73,0,0,1-4-57.08q.27-3.53.69-7c.22-1.92-2.79-1.9-3,0a196.23,196.23,0,0,0,2.2,59.14q1.4,7.3,3.35,14.49c1.09,4,2.08,8.44,4.61,11.84s6.54,4.85,10.78,5.09c4.89.28,9.88-.16,14.77-.3l15.45-.46c4.31-.13,9.25.24,13.15-1.93,3.57-2,5.05-5.86,5.51-9.72a43.53,43.53,0,0,0-.89-13.41c-1.81-9-5.64-17.49-9.13-26a128.7,128.7,0,0,1-8.1-26.58,113.6,113.6,0,0,1,3.9-55q1.07-3.25,2.33-6.43c.64-1.62-1.89-2.57-2.74-1.16-2.44,4.07-2,8.91-.18,13.13,2,4.61,5.58,8.09,9.12,11.53,3.37,3.29,6.71,6.71,8.37,11.2a23.83,23.83,0,0,1,1.12,12.21,23,23,0,0,1-5.2,11.29c-3.27,3.72-7.95,6-10.85,10.06-2.53,3.57-3.43,8.67-.4,12.23,2.67,3.15,7.3,3.51,11.1,2.87,9.19-1.54,16.8-8.49,22.47-15.45a119.42,119.42,0,0,0,8.43-11.81c2.77-4.4,5.23-9.19,5.91-14.41.71-5.39-1-10.32-3.71-14.93-3-5-6.26-9.84-9.4-14.74-5.85-9.1-11.47-18.41-18-27.07-6.06-8.06-13.08-15.63-21.87-20.76-8.32-4.85-18.18-7.64-27.84-6.34a33.17,33.17,0,0,0-6.94,1.69c-1.8.65-1,3.55.8,2.89Z"/><path d="M266.15,642.38l25.35.6c1.93,0,1.93-3,0-3l-25.35-.6c-1.93,0-1.93,3,0,3Z"/><path d="M187,643.26l23.27,3.43a1.55,1.55,0,0,0,1.84-1.05,1.51,1.51,0,0,0-1-1.84l-23.26-3.44a1.57,1.57,0,0,0-1.85,1,1.52,1.52,0,0,0,1.05,1.85Z"/><path class="cls-1" d="M261.07,515.71c7,1.19,14.67,2.87,18.95,8.55a14.36,14.36,0,0,1-14.92,22.58c3,1.07,6.07,2.18,8.57,4.16s4.36,5,4.08,8.23a14.75,14.75,0,0,1-1.33,4.31L250.36,624.9c-1.32-34.85-2.51-70.69,9.15-103.57.61-1.73,1.34-3.56,2.85-4.63s4-.87,4.76.82"/><path d="M260.67,517.15c6.38,1.1,14,2.47,18.17,8s3,14-2.69,18a13.37,13.37,0,0,1-10.65,2.18,1.5,1.5,0,0,0-.8,2.89c4.44,1.59,10,3.63,11.37,8.73.7,2.66-.7,5.21-1.72,7.6l-3.5,8.25L257,605.6l-7.88,18.55,2.79.75c-1.14-30-2.3-60.63,5.12-90,1-4,2.17-8,3.52-11.87.55-1.61,1-3.62,2.36-4.81.8-.73,2.36-1.12,3,0,.89,1.71,3.47.2,2.59-1.52-1.4-2.68-5.1-2.75-7.26-1-2.71,2.18-3.56,6.39-4.57,9.55a163,163,0,0,0-5.5,23.38c-2.61,16.09-3.19,32.41-3,48.68.1,9.19.44,18.37.78,27.54.06,1.35,2.18,2.23,2.8.76l15-35.26,7.59-17.86q1.84-4.34,3.68-8.66c1.05-2.49,1.77-5,1.06-7.67-1.63-6.23-8-8.86-13.46-10.82l-.8,2.89c7.89,1.84,16.39-2.63,18.88-10.44a16.53,16.53,0,0,0-.75-11.76A17.38,17.38,0,0,0,274.5,518a46.72,46.72,0,0,0-13-3.7c-1.89-.32-2.7,2.57-.8,2.89Z"/><path class="cls-2" d="M172,643.16a14.26,14.26,0,0,0-12.54,11.09c-.42,2.12,0,4.9,2.12,5.52,1.77.52,3.5-.89,4.64-2.33a20.46,20.46,0,0,0,4.25-13.94"/><path d="M172,641.66a15.83,15.83,0,0,0-13.85,11.61c-.7,2.78-.36,6.69,2.75,7.84,3.82,1.41,6.87-2.82,8.43-5.68A22.11,22.11,0,0,0,172,643.5c-.12-1.92-3.13-1.93-3,0a19.56,19.56,0,0,1-1.33,8.53,19.35,19.35,0,0,1-2.06,3.76c-.69,1-1.68,2.32-2.95,2.56-2.11.4-1.9-3.06-1.59-4.28a12.56,12.56,0,0,1,3.69-6.1,12.39,12.39,0,0,1,7.27-3.31,1.54,1.54,0,0,0,1.5-1.5,1.51,1.51,0,0,0-1.5-1.5Z"/><path class="cls-2" d="M308.12,639.16a16.22,16.22,0,0,1,8.92,7.21,7.7,7.7,0,0,1,1.2,5.16,3.81,3.81,0,0,1-3.76,3.21c-2-.18-3.22-2.27-4-4.14a49.41,49.41,0,0,1-2.87-10.13"/><path d="M307.72,640.61c3.92,1.3,7.95,4.64,9,8.8a3.55,3.55,0,0,1-.31,2.78,2,2,0,0,1-1.9,1c-1.7-.3-2.49-2.9-3-4.27a50.62,50.62,0,0,1-2.39-8.9,1.5,1.5,0,0,0-2.9.8,49.69,49.69,0,0,0,2.66,9.58c1,2.51,2.42,5.42,5.42,5.77s5.31-2.42,5.54-5.22c.25-3-1.56-5.93-3.45-8.12a17.89,17.89,0,0,0-7.84-5.17c-1.84-.61-2.62,2.29-.8,2.9Z"/><path class="cls-1" d="M224.1,666.44a27.31,27.31,0,0,0,27.81-.62c6.16,7.69,2.3,20.75,9.59,27.38,4.68,4.25,11.79,3.78,18.11,3.69,2.53,0,5.37.17,7,2.08s1.42,5.11,1,7.78l-6.15,35.44a214.74,214.74,0,0,1-82,6.64c-3.21-.36-6.68-.94-8.86-3.32-1.68-1.83-2.24-4.4-2.75-6.84l-9-43.31c6-1.89,12.48-.9,18.76-.43s13.09.23,18.11-3.58c3.7-2.8,5.89-7.22,6.9-11.75s.94-9.21.86-13.85a17.26,17.26,0,0,0,15.12,4.31"/><path d="M223.34,667.73a29,29,0,0,0,29.33-.62l-1.82-.23c3.35,4.29,3.46,10.29,4.29,15.44.86,5.39,2.69,10.82,7.71,13.69,5.6,3.21,12.09,2.13,18.23,2.4a6.87,6.87,0,0,1,4,1.12,4.62,4.62,0,0,1,1.39,3.84,31.82,31.82,0,0,1-.66,5l-1.11,6.4L280,741.8l1.05-1a213.77,213.77,0,0,1-55.49,7.91,176.61,176.61,0,0,1-27.39-1.49,13.4,13.4,0,0,1-5.28-1.67,7.55,7.55,0,0,1-3-4.52c-1.28-4.44-2-9.13-2.9-13.65L180.32,695l-1,1.85c8.85-2.68,18.08.64,27.09-.46a20.57,20.57,0,0,0,11.19-4.54,21.1,21.1,0,0,0,6-9.93c1.56-5.21,1.49-10.74,1.4-16.13l-2.56,1.06a19,19,0,0,0,16.58,4.7c1.89-.37,1.09-3.26-.8-2.89a15.87,15.87,0,0,1-13.66-3.93,1.52,1.52,0,0,0-2.56,1.06c.13,8,.25,17.44-6,23.42-5.93,5.67-15.08,4.53-22.53,3.91-5-.42-10.12-.64-15,.84a1.53,1.53,0,0,0-1,1.84l6.19,29.93c1,4.85,1.93,9.72,3,14.54.91,4,2.75,7.27,6.72,8.83s8.58,1.58,12.72,1.91q7.35.6,14.73.69a215.49,215.49,0,0,0,28.95-1.6,219.09,219.09,0,0,0,32.09-6.42,1.47,1.47,0,0,0,1-1l4.32-24.86c.68-4,1.48-7.91,2-11.88.43-3.09.34-6.56-2.33-8.66-2.49-2-5.84-1.83-8.84-1.77a42.19,42.19,0,0,1-9.79-.55A11.69,11.69,0,0,1,261,690.4a19,19,0,0,1-2.75-7.56c-1.16-6.24-1.21-12.86-5.29-18.08a1.5,1.5,0,0,0-1.81-.24,25.91,25.91,0,0,1-26.31.62,1.5,1.5,0,0,0-1.51,2.59Z"/><path class="cls-2" d="M212.32,750.56l6.23,44.2a7.66,7.66,0,0,0,1.51,4.27c1.29,1.41,3.43,1.67,5.33,1.45a35.4,35.4,0,0,1,5.69-.71c1.91.09,4,1.12,4.46,3a23.41,23.41,0,0,1,15.87-3.5L261,747a220.69,220.69,0,0,1-49.71,2.82l.18,1.48"/><path d="M210.87,751l4,28.24,2,14.24c.27,1.93.39,4,1.44,5.74a6.06,6.06,0,0,0,4.15,2.7c2.26.41,4.4-.18,6.63-.5,1.68-.24,4.37-.25,5,1.76a1.52,1.52,0,0,0,2.21.89,22.43,22.43,0,0,1,15.11-3.29,1.5,1.5,0,0,0,1.45-1.1l9.63-52.28a1.53,1.53,0,0,0-1.85-1.85,220.08,220.08,0,0,1-49.31,2.77,1.5,1.5,0,0,0-1.5,1.5l.18,1.48c.23,1.89,3.24,1.91,3,0l-.18-1.48-1.5,1.5a223.67,223.67,0,0,0,50.11-2.88l-1.85-1.84L250,798.84l1.45-1.1a25,25,0,0,0-16.63,3.7l2.21.9c-1.24-3.88-5.47-4.38-8.94-3.81-1.79.29-3.7.85-5.51.3s-2.26-2.51-2.52-4.28c-1.38-9.39-2.65-18.79-4-28.18l-2.28-16.21c-.27-1.9-3.16-1.09-2.9.8Z"/><path class="cls-3" d="M235.72,802.67a5.11,5.11,0,0,0-4-2.55,15.11,15.11,0,0,0-4.87.38c-2.73.52-5.71,1.19-7.4,3.39-1.35,1.75-1.57,4.09-1.74,6.29a3.68,3.68,0,0,0,.34,2.35,3.38,3.38,0,0,0,1.83,1.14,25.65,25.65,0,0,0,14,.74,34.58,34.58,0,0,1,1.78-11.1,32,32,0,0,0-1.8,7.86,4.3,4.3,0,0,0,.32,2.61c.67,1.13,2.14,1.47,3.44,1.61a32.1,32.1,0,0,0,11.91-.93,2.81,2.81,0,0,0,1.65-.92,2.94,2.94,0,0,0,.36-1.61l.16-5.22a15,15,0,0,0-.18-3.55,5.13,5.13,0,0,0-1.72-3,6.09,6.09,0,0,0-4-1,15.3,15.3,0,0,0-10,4.26"/><path d="M237,801.92c-2.2-4-7.07-3.54-10.89-2.79s-7.64,2.19-9.08,6.22a15.78,15.78,0,0,0-.82,6.06c.18,2.33,1.92,3.29,3.94,3.92a27.57,27.57,0,0,0,14.14.52,1.52,1.52,0,0,0,1.11-1.44,34.5,34.5,0,0,1,1.73-10.71c.6-1.85-2.25-2.59-2.9-.79a34,34,0,0,0-1.7,7c-.27,2-.46,4.22,1.25,5.68,1.53,1.3,3.8,1.39,5.71,1.49a34.19,34.19,0,0,0,7.07-.41c1.85-.29,4.62-.53,5.81-2.18s.75-4.42.8-6.31c.07-2.3.28-4.72-.68-6.88a6,6,0,0,0-4.74-3.52c-4.7-.71-9.67,1.41-13,4.59-1.41,1.32.71,3.44,2.12,2.12,2.67-2.51,7.14-4.62,10.89-3.67,2.32.58,2.55,3,2.53,5,0,1.09-.06,2.18-.09,3.26l-.06,1.9a4.8,4.8,0,0,1-.06,1.42c-.3.73-1.5.78-2.22,1a29.79,29.79,0,0,1-3.25.55,28.61,28.61,0,0,1-6.92,0,3.47,3.47,0,0,1-2-.67c-.66-.7-.29-2.16-.17-3a32,32,0,0,1,1.64-6.53l-2.9-.79a37.38,37.38,0,0,0-1.83,11.5l1.1-1.45A24.58,24.58,0,0,1,223,813c-1.18-.27-3.64-.5-3.75-2a13.33,13.33,0,0,1,.61-4.48c.9-2.9,3.69-3.79,6.39-4.36,2.54-.53,6.65-1.6,8.22,1.27.93,1.7,3.52.18,2.59-1.51Z"/><path d="M235.35,751.05a308.23,308.23,0,0,1-.59,49.46c-.18,1.92,2.82,1.91,3,0a308.23,308.23,0,0,0,.59-49.46c-.13-1.92-3.14-1.93-3,0Z"/><path class="cls-4" d="M218.87,514.62a122.21,122.21,0,0,0,40.87,1.11,318.83,318.83,0,0,0-7.19,135.62c.87,5.27,1.54,11.54-2.42,15.12a12.9,12.9,0,0,1-6.74,2.72,35,35,0,0,1-20.62-3.11,362.39,362.39,0,0,0-2.33-151.92"/><path d="M218.47,516.06a125.33,125.33,0,0,0,41.66,1.11l-1.84-1.84a320.26,320.26,0,0,0-10.56,107.81q.66,9.09,1.84,18.14.59,4.43,1.27,8.83a51.87,51.87,0,0,1,.87,7.44c0,2.37-.25,4.93-1.72,6.87-1.79,2.36-4.9,3.06-7.67,3.42a33.66,33.66,0,0,1-18.8-3.06l.69,1.7A364.63,364.63,0,0,0,231,606.92a364.14,364.14,0,0,0-3.08-59.86q-2.25-16.78-6.06-33.3c-.43-1.88-3.32-1.08-2.89.8a359.39,359.39,0,0,1,8.52,58.76,363.47,363.47,0,0,1-1.21,59.29q-1.71,16.64-5,33.07a1.53,1.53,0,0,0,.69,1.69,36.88,36.88,0,0,0,17,3.72c5.15-.14,11.37-1.06,14.12-6,2.32-4.16,1.65-9.28.94-13.77-1-6.23-1.86-12.46-2.5-18.73a316.4,316.4,0,0,1,9.62-116.45,1.52,1.52,0,0,0-1.84-1.85,121.15,121.15,0,0,1-40.07-1.11c-1.89-.37-2.7,2.52-.8,2.89Z"/><path class="cls-2" d="M241.23,526.92c-62.33-.06-120.9-18.84-164.9-52.89s-68-79-67.94-126.82C8.47,248.35,113,167.92,241.27,167.92h.28c62.33.05,120.89,18.84,164.9,52.89,43.85,33.93,68,79,67.94,126.82-.09,98.86-104.56,179.29-232.89,179.29Z"/><path d="M241.27,169.92h.27a290.34,290.34,0,0,1,90.22,14.14c27.54,9,52.26,21.92,73.46,38.33s37.7,35.35,49.25,56.49a140.33,140.33,0,0,1-.1,137.41c-11.57,21.1-28.15,40.07-49.28,56.38s-45.92,29.22-73.44,38.21a290.27,290.27,0,0,1-90.15,14h-.27A290.1,290.1,0,0,1,151,510.77c-27.54-9-52.26-21.92-73.46-38.32S39.85,437.09,28.3,416C16.39,394.16,10.36,371,10.39,347.21a141.76,141.76,0,0,1,18-68.66c11.57-21.1,28.15-40.07,49.28-56.38S123.6,193,151.13,184a289.87,289.87,0,0,1,90.14-14m0-4C111.61,165.92,6.48,247,6.39,347.21S111.44,528.8,241.22,528.92h.28c129.66,0,234.8-81.13,234.89-181.29S371.33,166,241.55,165.92Z"/><path class="cls-5" d="M13.85,368.6a14.48,14.48,0,0,1-6.07-1.41A184.09,184.09,0,0,1,5.61,339c0-54.81,24.31-106.34,68.32-145.09s102.68-60.2,165-60.2h.25c128.69.11,233.3,92.39,233.2,205.7,0,2.1-.05,4.3-.14,6.67-6.51-.83-11.46-2.71-15.11-5.72-8.9-7.37-8.8-20.23-8-31.71l.26-3.75-3.25,1.88a14.88,14.88,0,0,1-7.53,1.9A22.55,22.55,0,0,1,423.1,302c-5.93-6.2-8.07-14.63-9.49-22.83L413.4,278c-.84-4.94-1.72-10.05-4.66-14.52a16.61,16.61,0,0,0-13.33-7.6,12.46,12.46,0,0,0-3.17.4,23.21,23.21,0,0,0-3.57,1.37A14.43,14.43,0,0,1,385,259a7.69,7.69,0,0,1-1,.06c-5.78,0-9.27-8.08-10.2-10.55-1.31-3.5-5.31-14.13-14.35-14.13-3.76,0-6.68,1.84-9.5,3.6a22.15,22.15,0,0,1-5.6,2.82,10.14,10.14,0,0,1-2.65.35c-4.82,0-9.28-3.18-11.85-6.15a52.59,52.59,0,0,1-5.37-8,72,72,0,0,0-4.31-6.78,9.78,9.78,0,0,0-5-3.93,7.29,7.29,0,0,0-2-.29c-2.68,0-5.12,1.39-6.95,2.6s-3.5,2.42-5.18,3.63c-5.48,3.93-10.66,7.65-17,9a15.38,15.38,0,0,1-3.23.33c-4.57,0-9.31-1.87-11.79-4.67a6.45,6.45,0,0,1-1.77-5.19l.19-1.6-1.52-.53a9.43,9.43,0,0,0-3.11-.54c-5.08,0-8.94,4.19-12.68,8.24-3.35,3.64-6.52,7.07-10,7.07a5.42,5.42,0,0,1-1.66-.26c-3.1-.94-4.17-4.2-5.4-8s-2.69-8.2-6.79-10.41a10.07,10.07,0,0,0-4.78-1.21c-6.6,0-12.52,6.19-15.58,11.5-4.43,7.67-8.62,11.39-12.82,11.39a7.7,7.7,0,0,1-1.64-.18c-4.21-.94-6.49-5.22-8.92-9.75-2.76-5.16-5.89-11-12.56-11h-.45a12.65,12.65,0,0,0-5,1.33c-7,3.34-10.5,10.23-13.29,17.18l-.24.59c-2.37,5.92-4.83,12.05-10,15.56a13.19,13.19,0,0,1-7.2,2c-3.12,0-7.17-1.15-8.29-4.4a14.64,14.64,0,0,1-.56-3.45c-.23-2.65-.5-5.65-3.16-7.65A8.18,8.18,0,0,0,116.8,236a14.5,14.5,0,0,0-3.47.45c-11.35,2.78-17.67,13.13-22.7,22.6l-15.4,29c-2.13,4-4.16,5.88-6.38,5.88h-.2c-3-.14-4.26-3.17-6-8.13s-3.52-10.27-9.22-10.27l-.67,0c-3,.23-5.19,2.15-6.78,3.8-12.7,13.13-13.72,31-14.71,48.31-.48,8.34-1,17-2.78,24.92-1.34,5.91-4.38,13.39-11.28,15.47A11.75,11.75,0,0,1,13.85,368.6Z"/><path d="M239,135.74h.23a257.37,257.37,0,0,1,90.22,16.13,234.67,234.67,0,0,1,73.53,43.79,203.51,203.51,0,0,1,49.43,64.73,181.27,181.27,0,0,1,18,79.05q0,2.1-.06,4.35c-5.06-.88-9-2.51-11.91-4.94-8.18-6.76-8.05-19.05-7.29-30l.52-7.5-6.52,3.76a12.84,12.84,0,0,1-6.51,1.63,20.42,20.42,0,0,1-14.07-6.08c-5.57-5.81-7.6-13.91-9-21.79l-.21-1.17c-.83-4.91-1.78-10.47-5-15.29a18.62,18.62,0,0,0-15-8.5,14.18,14.18,0,0,0-3.68.47,24.91,24.91,0,0,0-3.89,1.48,13,13,0,0,1-3.16,1.15,4.87,4.87,0,0,1-.66,0c-3.57,0-6.64-4.78-8.33-9.26-1.43-3.81-5.79-15.42-16.22-15.42h-.07c-4.26,0-7.57,2.08-10.49,3.9a20.48,20.48,0,0,1-5.07,2.59,8.27,8.27,0,0,1-2.12.28c-3.42,0-7.47-2.14-10.33-5.45a51.07,51.07,0,0,1-5.16-7.74,73.29,73.29,0,0,0-4.44-7,11.72,11.72,0,0,0-6-4.65,9.44,9.44,0,0,0-2.6-.37c-3.21,0-6,1.57-8.05,2.93-1.8,1.19-3.55,2.45-5.25,3.67-5.31,3.82-10.31,7.42-16.21,8.68a13.39,13.39,0,0,1-2.81.28c-4,0-8.17-1.6-10.29-4a4.46,4.46,0,0,1-1.29-3.61l.39-3.21-3.05-1.06a11.49,11.49,0,0,0-3.76-.65c-6,0-10.31,4.72-14.15,8.89-2.91,3.15-5.92,6.42-8.5,6.42a3.85,3.85,0,0,1-1.08-.17c-1.9-.58-2.74-2.58-4.08-6.68s-2.94-9-7.74-11.54a12,12,0,0,0-5.73-1.45c-7.45,0-14,6.73-17.31,12.5-4,6.9-7.72,10.39-11.09,10.39a5.51,5.51,0,0,1-1.2-.13c-3.32-.74-5.39-4.62-7.59-8.74-2.88-5.38-6.46-12.07-14.33-12.07h-.53a14.61,14.61,0,0,0-5.73,1.53c-7.58,3.63-11.34,10.91-14.29,18.24l-.24.59c-2.26,5.64-4.59,11.47-9.3,14.64a11.13,11.13,0,0,1-6.09,1.69c-2.66,0-5.67-.94-6.4-3.06a13.25,13.25,0,0,1-.46-3c-.24-2.75-.57-6.53-3.94-9.07A10.19,10.19,0,0,0,116.8,234a16.47,16.47,0,0,0-4,.51c-12.15,3-18.75,13.75-24,23.6l-15.41,29c-2.11,4-3.68,4.82-4.62,4.82h-.09c-1.6-.07-2.58-2.15-4.17-6.78-1.68-4.91-4-11.62-11.11-11.62l-.82,0c-3.69.29-6.37,2.65-8.07,4.4-13.21,13.66-14.26,31.92-15.27,49.59-.47,8.26-1,16.8-2.73,24.59-1.22,5.39-3.93,12.19-9.91,14a9.48,9.48,0,0,1-2.82.41,12.09,12.09,0,0,1-4.26-.82A181,181,0,0,1,25.77,260.05a203.44,203.44,0,0,1,49.48-64.61,234.53,234.53,0,0,1,73.54-43.67,257.23,257.23,0,0,1,90.16-16m0-4C109.05,131.74,3.72,224.5,3.61,339A186.75,186.75,0,0,0,6,368.52a16.84,16.84,0,0,0,7.89,2.08,13.65,13.65,0,0,0,4-.58c7.46-2.24,11.06-9.92,12.66-16.93,5.57-24.56-1.23-53.48,17-72.29,1.47-1.52,3.28-3,5.5-3.19a4.35,4.35,0,0,1,.51,0c8.62,0,6,18,15.09,18.4h.28c3.87,0,6.44-3.72,8.15-6.94L92.4,260c4.79-9,10.78-19,21.4-21.6a13.2,13.2,0,0,1,3-.39,6.39,6.39,0,0,1,3.88,1.12c3,2.29,1.84,6.73,3,10.16,1.33,3.87,5.66,5.75,10.18,5.75a15.19,15.19,0,0,0,8.32-2.37c5.92-4,8.5-10.77,11-17.06s5.79-13,12.3-16.13a10.53,10.53,0,0,1,4.16-1.13h.37c10.61,0,10.49,18.37,21.05,20.71a9.38,9.38,0,0,0,2.07.23c6.45,0,11.31-6.77,14.55-12.39,2.91-5,8.36-10.5,13.85-10.5a8.08,8.08,0,0,1,3.84,1c7.11,3.83,4.71,16.14,12.55,18.53a7.77,7.77,0,0,0,2.24.34c8.61,0,14.2-15.31,22.65-15.31a7.54,7.54,0,0,1,2.45.43c-.86,7.08,7.57,12.1,15.55,12.1a17.66,17.66,0,0,0,3.65-.37c8.79-1.88,15.51-8.09,22.82-12.92,1.74-1.15,3.8-2.27,5.85-2.27a5.35,5.35,0,0,1,1.48.21,7.93,7.93,0,0,1,3.91,3.2c3.58,4.8,5.84,10.38,9.78,14.94,3.26,3.77,8.27,6.84,13.36,6.84a12.41,12.41,0,0,0,3.18-.42c5.2-1.43,9.08-6.32,14.52-6.35h.05c6.71,0,10.3,7,12.48,12.83C374,254.62,378,261,384,261a8.65,8.65,0,0,0,1.23-.08c2.67-.39,4.91-2,7.5-2.73a10.48,10.48,0,0,1,2.66-.33c4.64,0,9.19,2.95,11.66,6.7,2.94,4.46,3.67,9.8,4.56,14.94,1.49,8.53,3.8,17.37,10,23.88a24.36,24.36,0,0,0,17,7.31,16.92,16.92,0,0,0,8.52-2.17c-.82,11.84-.91,25.42,8.73,33.39,5,4.12,11.48,5.79,18.29,6.39.14-2.94.23-5.9.23-8.87.11-114.6-105.2-207.6-235.2-207.71Z"/><circle class="cls-6" cx="241.63" cy="77.92" r="73"/><path class="cls-7" d="M264.32,132.84c-10.18-2.09-20.6-4.25-29.91-9.06a44.65,44.65,0,0,1-20.34-21.47c-4.23-9.26-5.9-19.58-6.51-29.67-.67-11.07-.21-22.83,6.5-32.16,5.58-7.77,14.74-13,24.38-13a28.52,28.52,0,0,1,24.78,14,46.74,46.74,0,0,1,5.39,16,39.16,39.16,0,0,1-.88,17.46C265,83.9,257.19,92.44,247.29,93a11.13,11.13,0,0,1-7.42-1.9,15,15,0,0,1-4.45-6c-2.32-5-3.8-11.23-2.3-16.67,1.13-4.13,4.81-8.83,9.51-8.8a3.18,3.18,0,0,1,2.74,1.7,23.6,23.6,0,0,1,2.15,3.7c.76,1.71,1.52,4.65-.7,5.57-.67.27-2.53.55-2.59-.55-.11-1.92-3.11-1.93-3,0,.26,4.67,6.75,4.72,9,1.54,1.72-2.38,1-5.62-.15-8.07s-2.8-5.69-5.48-6.59-5.66.16-7.86,1.57a15.35,15.35,0,0,0-5.22,5.78c-3,5.68-2.25,12.4-.31,18.28,1.75,5.32,4.65,10.8,10.28,12.73,5.43,1.87,11.78.14,16.51-2.8,10.34-6.42,14.73-18.64,14.08-30.4-.65-12-5.16-25-15.39-32.06A32.2,32.2,0,0,0,225,27.58c-10.45,4.93-17.47,14.87-19.62,26.1a77.47,77.47,0,0,0-.75,19.54A107.72,107.72,0,0,0,207,90.46c2.54,11,7.48,21.78,16.12,29.31,8.91,7.77,20.41,11.48,31.73,14.1,2.88.67,5.78,1.27,8.68,1.86,1.88.39,2.69-2.5.79-2.89Z"/><circle class="cls-8" cx="338.88" cy="388.27" r="16"/><path d="M298.94,394.77a45.34,45.34,0,0,1-6.36-.45,44.5,44.5,0,0,1,6.25-88.56,43.89,43.89,0,0,1,6.36.46,44.5,44.5,0,0,1-6.25,88.55Z"/><path d="M298.83,305.26v1a44,44,0,1,1-28.65,10.66,44.25,44.25,0,0,1,28.65-10.66v-1m0,0a45,45,0,1,0,6.43.46,45,45,0,0,0-6.43-.46Z"/><circle class="cls-9" cx="281.21" cy="332.58" r="7"/><circle class="cls-9" cx="310.19" cy="373.61" r="9.5"/><circle class="cls-8" cx="152.88" cy="395.27" r="16"/><circle cx="188.88" cy="353.27" r="44.5"/><path d="M188.88,309.27a44,44,0,1,1-44,44,44,44,0,0,1,44-44m0-1a45,45,0,1,0,45,45,45,45,0,0,0-45-45Z"/><circle class="cls-9" cx="168.88" cy="338.27" r="7"/><circle class="cls-9" cx="203.38" cy="374.77" r="9.5"/><path d="M206.81,443.5c-2.71,6.95-.37,15.35,5.09,20.32,5.72,5.21,14.07,5.61,20.72,1.94a18.21,18.21,0,0,0,8.18-9.25h-2.89a17.51,17.51,0,0,0,14.69,11.12c6.74.68,13.06-3.34,16-9.32a16.94,16.94,0,0,0,1.5-10.93c-.38-1.89-3.27-1.09-2.89.8,1.37,6.78-3.15,14.28-9.87,16.1a14.32,14.32,0,0,1-16.55-8.57,1.51,1.51,0,0,0-2.89,0c-2.29,5.8-8.56,9.52-14.68,9.52-6.43,0-11.76-4.53-13.72-10.52a15.29,15.29,0,0,1,.19-10.42c.71-1.8-2.19-2.58-2.89-.79Z"/></svg>