<svg id="Layer_1" data-name="Layer 1" xmlns="http://www.w3.org/2000/svg" width="160" height="170" viewBox="0 0 160 170"><defs><style>.cls-1{fill:#fbffc9;stroke-width:2px;}.cls-1,.cls-2,.cls-3,.cls-4,.cls-5{stroke:#000;stroke-miterlimit:10;}.cls-2{fill:#ffeed4;}.cls-2,.cls-3,.cls-4{stroke-width:0.5px;}.cls-4{fill:#ffe974;}.cls-5{fill:#ffc62a;stroke-width:0.25px;}</style></defs><rect class="cls-1" x="3.85" y="3.5" width="119.5" height="163"/><polygon class="cls-2" points="59.18 149.86 71.25 130.15 78.72 147.91 59.18 149.86"/><polygon class="cls-3" points="59.36 149.71 68.28 148.89 64.82 140.67 59.36 149.71"/><polygon class="cls-4" points="149.26 76.5 71.18 130 78.77 148.03 156.84 94.53 149.26 76.5"/><polygon class="cls-5" points="153.52 86.62 75.44 140.12 74.91 138.85 152.99 85.36 153.52 86.62"/><polygon class="cls-5" points="155.65 91.68 77.57 145.18 77.03 143.92 155.12 90.42 155.65 91.68"/><polygon class="cls-5" points="151.39 81.56 73.31 135.06 72.78 133.79 150.85 80.3 151.39 81.56"/></svg>