<svg id="Layer_1" data-name="Layer 1" xmlns="http://www.w3.org/2000/svg" width="480" height="820" viewBox="0 0 480 820"><defs><style>.cls-1{fill:#404a4c;}.cls-2{fill:#ffedc9;}.cls-3{fill:#4d4d4d;}.cls-4{fill:#7f0015;}.cls-5,.cls-6{fill:#f40000;}.cls-6{stroke:#000;stroke-miterlimit:10;stroke-width:4px;}.cls-7{fill:#ffa18a;}.cls-8{fill:#fff;}</style></defs><path class="cls-1" d="M199.84,523.63a154.65,154.65,0,0,0-53,43c-4.14,5.27-8,10.93-9.82,17.37-2.58,9.13-.79,19,3.05,27.72s9.61,16.32,15.34,23.89c4.27,5.65,10,11.93,17,10.92,6-.86,10-7.18,10.19-13.23s-2.52-11.78-5.49-17c-2-3.62-4.25-7.21-5.52-11.17s-1.5-8.45.37-12.17,5.77-6.33,8.37-9.75a18.25,18.25,0,0,0-.5-22c9.31,17.32,9.15,38.28,5.27,57.55s-11.19,37.69-15.59,56.85c-1.31,5.7-2.13,12.38,1.74,16.76,3.65,4.13,9.88,4.41,15.38,4.38l21-.09c5.47,0,11.5-.27,15.48-4,3.79-3.57,4.54-9.21,5.07-14.39l5.48-53.77"/><path d="M199.09,522.34a156.15,156.15,0,0,0-43.5,31.87q-4.69,4.89-8.94,10.18a75.3,75.3,0,0,0-8,11.59,38,38,0,0,0-3.06,27.45c2.35,9.5,7.53,18,13.2,25.82,2.68,3.71,5.37,7.5,8.4,11,2.65,3,5.8,5.88,9.67,7.21,7.84,2.7,14.92-3.23,16.72-10.68,2.27-9.44-3.59-18.07-7.85-26-2.21-4.09-4.11-8.61-3.6-13.37s3.8-7.48,6.87-10.59A19.71,19.71,0,0,0,183.8,565a19.49,19.49,0,0,0-3-4.94c-1.12-1.37-3.13.38-2.36,1.82,7.92,14.86,8.79,32.38,6.44,48.77-2.6,18.13-9,35.4-13.94,53-1.23,4.36-2.44,8.74-3.33,13.18-.72,3.62-1.17,7.45-.3,11.1a12.22,12.22,0,0,0,6.18,8.07c3.26,1.7,7,2.09,10.63,2.18,4.47.11,9,0,13.43,0s9,.09,13.51-.12c3.66-.17,7.46-.69,10.66-2.57a14.8,14.8,0,0,0,6.43-8.69c1.18-3.79,1.4-7.84,1.8-11.76l1.49-14.56,2.94-28.86.73-7.15c.2-1.92-2.81-1.91-3,0-1.88,18.43-3.54,36.9-5.65,55.3-.4,3.53-1,7.29-3.11,10.26s-5.68,4.3-9.2,4.78a93.39,93.39,0,0,1-11.95.35l-13.94.06c-6.46,0-15.6.3-17.87-7.36-1-3.42-.52-7.15.19-10.58.88-4.23,2-8.41,3.18-12.57,4.79-17.09,11-33.89,13.76-51.49,2.47-15.78,2.31-32.51-3.95-47.44-.77-1.82-1.61-3.6-2.54-5.35l-2.36,1.82a16.74,16.74,0,0,1,.27,20.19c-2.48,3.19-5.93,5.52-8,9.06s-2.31,8.12-1.38,12.19c2,8.87,8.92,15.7,10.95,24.6a15.84,15.84,0,0,1-1.21,11.24c-1.65,3-4.51,5.49-8.08,5.63-3.78.15-7.06-2.1-9.68-4.61a75.55,75.55,0,0,1-7.92-9.65c-5.46-7.32-10.81-15-13.84-23.7s-3.69-18.13,0-26.68c3.43-8,9.41-14.88,15.19-21.23a153.63,153.63,0,0,1,40.05-31.42q2.74-1.49,5.55-2.87c1.73-.86.21-3.45-1.51-2.59Z"/><path class="cls-1" d="M223.35,515.56c-6.83-.1-14.28,0-19.59,4.3a15.59,15.59,0,0,0-3.91,18.56A16.39,16.39,0,0,0,217,546.84,30.09,30.09,0,0,0,209,549.9a10.17,10.17,0,0,0-4.94,6.77c-.52,3.47,1.39,6.78,3.17,9.81a251.83,251.83,0,0,1,26.53,63.79,280.06,280.06,0,0,0-6.5-107.77c-.59-2.27-1.27-4.65-2.92-6.33s-4.58-2.34-6.35-.79"/><path d="M223.35,514.06c-8.79-.12-19.29.42-24.21,9a16.9,16.9,0,0,0,4.74,22.21,18,18,0,0,0,13.54,3l-.8-2.9c-5.51,1.51-11.94,3.72-13.8,9.79-.93,3.05,0,6.18,1.35,8.94,1.46,3,3.29,5.76,4.89,8.66a249.69,249.69,0,0,1,16.51,36.34q3.84,10.62,6.7,21.54c.35,1.33,2.69,1.53,2.89,0a282.46,282.46,0,0,0,2.23-51.26,280.94,280.94,0,0,0-7.12-50.82c-.54-2.29-1.1-4.58-1.7-6.86a16.78,16.78,0,0,0-2.23-5.41c-2.16-3-6.32-4.47-9.45-2-1.52,1.2.62,3.31,2.12,2.12,1-.82,2.62-.39,3.61.28a7.45,7.45,0,0,1,2.5,3.9,113.63,113.63,0,0,1,2.79,11.08c1.75,7.74,3.17,15.57,4.25,23.43A279.43,279.43,0,0,1,234.54,603c-.32,9-1.07,18-2.27,26.89h2.89a255.28,255.28,0,0,0-12.28-35.69q-3.76-8.8-8.2-17.3-2.12-4-4.37-8c-1.53-2.7-3.46-5.38-4.41-8.36a7.43,7.43,0,0,1,2.31-8.19c2.53-2.28,6-3.16,9.21-4,1.89-.52,1.07-3.22-.8-2.9-7,1.21-14.64-3.27-16.4-10.29a14.41,14.41,0,0,1,1.18-10,13.9,13.9,0,0,1,8.37-6.79c4.37-1.39,9-1.36,13.58-1.3,1.93,0,1.93-3,0-3Z"/><path class="cls-1" d="M274.58,522.16c13.2-4.87,28.39-.17,39.49,8.47s18.91,20.7,26.51,32.53l14.14,22c2.43,3.79,4.92,7.72,5.66,12.16,1.31,7.9-3.11,15.52-7.59,22.15-6.73,9.95-14.86,20.14-26.45,23.27-4.22,1.13-9.56.81-11.83-2.91-2-3.26-.58-7.62,1.89-10.52s5.84-4.87,8.6-7.5c8.17-7.78,9.7-21.58,3.44-31-3.35-5-8.45-8.63-12.23-13.35s-6.09-11.61-2.88-16.73a114.87,114.87,0,0,0-1.58,80C317,655.7,325.57,670.13,325.33,686c-.05,3.72-.79,7.8-3.66,10.18-2.61,2.18-6.28,2.38-9.68,2.48l-29.9.89c-4,.12-8.42.14-11.68-2.25-3.06-2.24-4.41-6.09-5.48-9.73a194,194,0,0,1-6.59-77.09"/><path d="M275,523.61c8.72-3.16,18.21-2.1,26.65,1.43,8.84,3.7,16.15,10,22.33,17.25,6.45,7.54,11.71,16,17.06,24.33l9.07,14.11c2.8,4.36,6.18,8.74,8,13.65,3.55,9.79-2.91,19.2-8.32,26.9-5,7.17-10.94,14.3-19,18.21-3.48,1.7-7.75,3.06-11.61,1.94a5.42,5.42,0,0,1-3.8-3.31,7.54,7.54,0,0,1,.86-5.89c2.25-4.15,6.83-6.38,10.1-9.6a25.09,25.09,0,0,0,6.12-10C335,604.93,334,596,329.26,589.4c-5.12-7.17-15-12.38-15.9-22a9.53,9.53,0,0,1,1.27-5.91l-2.75-1.16a116.41,116.41,0,0,0-2.22,78.9c2.83,8.5,6.76,16.57,9.81,25a77.87,77.87,0,0,1,3.61,12.81c.73,4.06,1.23,8.57.4,12.65a9.45,9.45,0,0,1-2.32,4.89,9.23,9.23,0,0,1-5.4,2.29,61.55,61.55,0,0,1-6.51.32l-7.72.23-15,.45c-4.25.13-9,.79-13.13-.69-3.9-1.41-5.58-5.28-6.73-9-1.41-4.49-2.56-9.07-3.58-13.67a193,193,0,0,1-4-57.07q.28-3.53.69-7c.22-1.91-2.78-1.9-3,0A196.21,196.21,0,0,0,259,669.6c.93,4.87,2,9.71,3.35,14.49,1.09,4,2.08,8.44,4.61,11.85s6.55,4.84,10.78,5.08c4.89.28,9.88-.15,14.77-.3l15.45-.46c4.31-.13,9.25.24,13.16-1.93,3.56-2,5-5.85,5.5-9.71a43.26,43.26,0,0,0-.89-13.42c-1.81-9-5.63-17.49-9.12-26a129.61,129.61,0,0,1-8.11-26.59,113.8,113.8,0,0,1,3.9-55c.71-2.17,1.5-4.32,2.34-6.44.64-1.62-1.9-2.57-2.74-1.16-2.45,4.07-2,8.91-.19,13.13,2,4.62,5.58,8.09,9.12,11.54,3.37,3.28,6.71,6.7,8.37,11.2a23.68,23.68,0,0,1,1.12,12.2,23,23,0,0,1-5.2,11.29c-3.27,3.72-7.94,6-10.84,10.06-2.53,3.57-3.43,8.68-.41,12.24,2.67,3.14,7.3,3.51,11.1,2.87,9.19-1.54,16.8-8.5,22.47-15.46a121.05,121.05,0,0,0,8.44-11.8c2.76-4.4,5.22-9.2,5.91-14.41.7-5.4-1-10.33-3.71-14.93-3-5-6.26-9.85-9.41-14.74-5.84-9.1-11.47-18.42-18-27.07-6.06-8.06-13.09-15.64-21.87-20.76-8.33-4.86-18.19-7.64-27.85-6.35a33.71,33.71,0,0,0-6.93,1.69c-1.81.65-1,3.55.79,2.9Z"/><path d="M272.38,644.36l25.36.6c1.93,0,1.93-3,0-3l-25.36-.6c-1.93,0-1.93,3,0,3Z"/><path d="M193.25,645.24l23.27,3.43a1.56,1.56,0,0,0,1.85-1,1.51,1.51,0,0,0-1.05-1.84l-23.27-3.43a1.54,1.54,0,0,0-1.84,1,1.5,1.5,0,0,0,1,1.84Z"/><path class="cls-1" d="M267.3,517.69c7,1.19,14.67,2.88,18.95,8.55a14.35,14.35,0,0,1-14.91,22.58c3,1.07,6.07,2.18,8.56,4.17s4.37,5,4.08,8.22a14.35,14.35,0,0,1-1.32,4.31L256.6,626.89c-1.33-34.86-2.51-70.7,9.14-103.57.62-1.74,1.34-3.57,2.85-4.63s4-.87,4.77.81"/><path d="M266.9,519.14c6.39,1.09,14.05,2.47,18.17,8s3,14-2.69,18a13.39,13.39,0,0,1-10.64,2.18,1.5,1.5,0,0,0-.8,2.89c4.44,1.58,10,3.62,11.36,8.72.7,2.67-.7,5.22-1.71,7.61l-3.5,8.24-13.91,32.74-7.88,18.55,2.8.76c-1.14-30-2.3-60.64,5.11-90q1.52-6,3.52-11.88c.55-1.61,1-3.62,2.36-4.81.8-.73,2.37-1.11,3,0,.89,1.71,3.48.2,2.59-1.51-1.39-2.69-5.1-2.76-7.26-1-2.71,2.19-3.56,6.4-4.56,9.55a163.17,163.17,0,0,0-5.51,23.39c-2.6,16.08-3.18,32.41-3,48.68.1,9.18.44,18.36.79,27.54.05,1.34,2.17,2.22,2.79.75l15-35.26,7.58-17.86q1.85-4.32,3.68-8.66c1.05-2.49,1.77-5,1.07-7.67-1.64-6.23-8-8.86-13.46-10.81l-.8,2.89c7.88,1.83,16.39-2.64,18.87-10.44a16.55,16.55,0,0,0-.74-11.77,17.51,17.51,0,0,0-8.33-8.12,47.58,47.58,0,0,0-13-3.7c-1.89-.32-2.7,2.57-.8,2.9Z"/><path class="cls-2" d="M178.22,645.14a14.27,14.27,0,0,0-12.54,11.09c-.43,2.13,0,4.9,2.12,5.52,1.76.52,3.49-.88,4.63-2.33a20.42,20.42,0,0,0,4.26-13.94"/><path d="M178.22,643.64a15.84,15.84,0,0,0-13.86,11.62c-.69,2.77-.35,6.69,2.76,7.83,3.82,1.41,6.86-2.81,8.42-5.68a22,22,0,0,0,2.65-11.93c-.13-1.91-3.13-1.93-3,0a19.43,19.43,0,0,1-1.34,8.53,18.64,18.64,0,0,1-2.06,3.77c-.69,1-1.68,2.32-2.95,2.56-2.11.4-1.89-3.06-1.59-4.29A12.58,12.58,0,0,1,171,650a12.42,12.42,0,0,1,7.27-3.31,1.54,1.54,0,0,0,1.5-1.5,1.51,1.51,0,0,0-1.5-1.5Z"/><path class="cls-2" d="M314.36,641.15a16.08,16.08,0,0,1,8.91,7.21,7.63,7.63,0,0,1,1.2,5.16,3.8,3.8,0,0,1-3.75,3.21c-2-.19-3.22-2.28-4-4.15a50.14,50.14,0,0,1-2.87-10.12"/><path d="M314,642.59c3.91,1.3,8,4.64,9,8.8a3.57,3.57,0,0,1-.32,2.79,2,2,0,0,1-1.89,1.05c-1.7-.31-2.5-2.91-3-4.28a50.51,50.51,0,0,1-2.39-8.89,1.5,1.5,0,1,0-2.89.8,50.59,50.59,0,0,0,2.65,9.58c1,2.5,2.43,5.42,5.43,5.76s5.31-2.42,5.54-5.21c.24-3-1.56-5.94-3.45-8.12a17.81,17.81,0,0,0-7.85-5.17c-1.83-.61-2.62,2.28-.79,2.89Z"/><path class="cls-1" d="M230.33,668.42a27.33,27.33,0,0,0,27.82-.62c6.15,7.69,2.3,20.76,9.59,27.38,4.68,4.25,11.78,3.78,18.1,3.69,2.53,0,5.38.18,7,2.08s1.41,5.12.95,7.78l-6.15,35.45a214.72,214.72,0,0,1-82,6.63c-3.2-.36-6.68-.93-8.85-3.31-1.68-1.84-2.25-4.4-2.75-6.84l-9-43.31c6-1.89,12.47-.91,18.75-.44s13.1.23,18.12-3.57c3.69-2.81,5.89-7.23,6.89-11.75s.94-9.22.87-13.85a17.28,17.28,0,0,0,15.12,4.31"/><path d="M229.57,669.71a28.93,28.93,0,0,0,29.33-.61l-1.81-.24c3.34,4.29,3.45,10.3,4.28,15.44.87,5.4,2.69,10.83,7.71,13.7,5.6,3.21,12.1,2.12,18.23,2.39a6.92,6.92,0,0,1,4,1.12,4.63,4.63,0,0,1,1.4,3.85,30.55,30.55,0,0,1-.67,4.94l-1.11,6.4-4.69,27.08,1-1a213.71,213.71,0,0,1-55.48,7.92,176.75,176.75,0,0,1-27.4-1.5,13.35,13.35,0,0,1-5.27-1.67,7.52,7.52,0,0,1-3-4.52c-1.28-4.44-2-9.12-2.9-13.65L186.55,697l-1,1.84c8.85-2.67,18.08.65,27.08-.46a20.51,20.51,0,0,0,11.19-4.54,21,21,0,0,0,6.05-9.93c1.57-5.21,1.49-10.74,1.41-16.12l-2.56,1.06a19,19,0,0,0,16.58,4.69c1.89-.37,1.09-3.26-.8-2.89a15.84,15.84,0,0,1-13.66-3.92,1.51,1.51,0,0,0-2.56,1.06c.12,8,.24,17.43-6,23.41-5.93,5.67-15.07,4.54-22.52,3.91-5-.42-10.12-.64-15,.84a1.53,1.53,0,0,0-1.05,1.85l6.2,29.92c1,4.85,1.93,9.72,3,14.55.9,4,2.75,7.26,6.72,8.83s8.57,1.57,12.71,1.91q7.35.59,14.73.68a217.14,217.14,0,0,0,61-8,1.47,1.47,0,0,0,1.05-1l4.31-24.86c.69-4,1.48-7.91,2-11.89.44-3.09.34-6.55-2.32-8.66-2.49-2-5.85-1.82-8.85-1.77a42.13,42.13,0,0,1-9.78-.54,11.72,11.72,0,0,1-7.28-4.47,18.91,18.91,0,0,1-2.76-7.56c-1.16-6.24-1.21-12.87-5.28-18.09a1.51,1.51,0,0,0-1.82-.23,25.92,25.92,0,0,1-26.3.61c-1.68-1-3.2,1.64-1.52,2.59Z"/><path class="cls-2" d="M218.56,752.54l6.22,44.2a7.8,7.8,0,0,0,1.51,4.28c1.29,1.41,3.43,1.66,5.33,1.44s3.78-.8,5.69-.71,4,1.12,4.46,3a23.42,23.42,0,0,1,15.87-3.5l9.63-52.28a220.1,220.1,0,0,1-49.71,2.82l.19,1.48"/><path d="M217.11,752.94l4,28.24,2,14.24c.27,1.93.39,4.05,1.45,5.75a6.09,6.09,0,0,0,4.14,2.7c2.26.41,4.41-.18,6.64-.5,1.67-.24,4.37-.26,5,1.75a1.51,1.51,0,0,0,2.2.9,22.45,22.45,0,0,1,15.11-3.3,1.5,1.5,0,0,0,1.45-1.1l9.63-52.28a1.52,1.52,0,0,0-1.84-1.85,220.17,220.17,0,0,1-49.32,2.77,1.51,1.51,0,0,0-1.5,1.5l.19,1.48c.23,1.89,3.23,1.91,3,0l-.19-1.48-1.5,1.5a224.25,224.25,0,0,0,50.11-2.87l-1.84-1.85-9.63,52.28,1.44-1.1A25,25,0,0,0,241,803.43l2.2.89c-1.24-3.88-5.47-4.37-8.94-3.81-1.79.29-3.7.85-5.5.31s-2.26-2.51-2.52-4.29c-1.38-9.38-2.65-18.79-4-28.18L220,752.14c-.27-1.9-3.16-1.09-2.89.8Z"/><path class="cls-3" d="M242,804.66a5.13,5.13,0,0,0-4-2.56,15.18,15.18,0,0,0-4.88.39c-2.73.52-5.71,1.18-7.4,3.39-1.35,1.75-1.57,4.09-1.73,6.29a3.58,3.58,0,0,0,.34,2.34,3.43,3.43,0,0,0,1.82,1.15,25.75,25.75,0,0,0,14,.73,34.9,34.9,0,0,1,1.78-11.1,32.61,32.61,0,0,0-1.8,7.86,4.29,4.29,0,0,0,.33,2.61c.66,1.13,2.13,1.47,3.44,1.61a31.71,31.71,0,0,0,11.91-.93,2.17,2.17,0,0,0,2-2.53l.16-5.21a15,15,0,0,0-.17-3.55,5.09,5.09,0,0,0-1.73-3,6.2,6.2,0,0,0-4-1A15.32,15.32,0,0,0,242,805.37"/><path d="M243.25,803.9c-2.2-4-7.08-3.54-10.9-2.79s-7.63,2.19-9.07,6.23a15.73,15.73,0,0,0-.83,6c.18,2.33,1.92,3.3,4,3.93a27.68,27.68,0,0,0,14.14.52,1.52,1.52,0,0,0,1.1-1.45,34.73,34.73,0,0,1,1.73-10.7c.6-1.85-2.25-2.6-2.89-.8a34,34,0,0,0-1.7,7c-.27,2-.47,4.21,1.24,5.67,1.53,1.31,3.8,1.4,5.71,1.49a32.91,32.91,0,0,0,7.08-.41c1.84-.29,4.61-.53,5.81-2.18s.74-4.42.8-6.31c.07-2.3.28-4.72-.68-6.87a6,6,0,0,0-4.74-3.52c-4.7-.72-9.68,1.4-13.06,4.58-1.41,1.33.72,3.45,2.12,2.12,2.67-2.51,7.14-4.62,10.9-3.67,2.31.59,2.54,3,2.52,5,0,1.09-.06,2.18-.09,3.27l-.06,1.9a4.5,4.5,0,0,1-.06,1.42c-.3.72-1.49.77-2.22.94a29.62,29.62,0,0,1-3.24.55,28.11,28.11,0,0,1-6.92,0,3.45,3.45,0,0,1-2-.67c-.65-.69-.28-2.15-.17-3a31.78,31.78,0,0,1,1.64-6.52l-2.89-.8a37.74,37.74,0,0,0-1.84,11.5l1.1-1.45a24.27,24.27,0,0,1-10.56,0c-1.18-.27-3.64-.5-3.74-2a12.88,12.88,0,0,1,.61-4.48c.89-2.9,3.69-3.78,6.38-4.35s6.66-1.6,8.23,1.27c.92,1.69,3.51.18,2.59-1.52Z"/><path d="M241.58,753a307.07,307.07,0,0,1-.58,49.46c-.18,1.92,2.82,1.91,3,0a307.07,307.07,0,0,0,.58-49.46c-.13-1.91-3.13-1.93-3,0Z"/><path class="cls-4" d="M225.1,516.6A122.21,122.21,0,0,0,266,517.71a319,319,0,0,0-7.18,135.63c.86,5.26,1.53,11.54-2.43,15.11a12.79,12.79,0,0,1-6.74,2.72A34.85,34.85,0,0,1,229,668.06a362.4,362.4,0,0,0-2.33-151.92"/><path d="M224.7,518.05a125.93,125.93,0,0,0,41.67,1.11l-1.85-1.85A321.07,321.07,0,0,0,254,625.13q.66,9.09,1.84,18.13c.39,3,.81,5.9,1.28,8.84a53.16,53.16,0,0,1,.87,7.44c0,2.36-.26,4.92-1.73,6.87-1.78,2.35-4.89,3.05-7.67,3.41a33.62,33.62,0,0,1-18.79-3.05l.69,1.69a364.5,364.5,0,0,0,6.8-59.55A364.25,364.25,0,0,0,234.18,549q-2.27-16.78-6.06-33.3c-.44-1.88-3.33-1.08-2.9.8a359.72,359.72,0,0,1,8.53,58.76,363.45,363.45,0,0,1-1.21,59.29q-1.71,16.65-5,33.07a1.55,1.55,0,0,0,.69,1.7,37,37,0,0,0,17,3.71c5.15-.14,11.37-1.06,14.13-6,2.31-4.17,1.65-9.29.93-13.78-1-6.22-1.86-12.46-2.5-18.73a316.63,316.63,0,0,1,9.63-116.45,1.53,1.53,0,0,0-1.85-1.85,120.88,120.88,0,0,1-40.07-1.11c-1.89-.37-2.69,2.52-.8,2.9Z"/><path class="cls-2" d="M240.71,528.8C112.23,528.69,7.78,448.07,7.87,349.09S112.43,169.8,240.75,169.8H241c128.48.12,232.93,80.73,232.84,179.71S369.31,528.8,241,528.8Z"/><path d="M240.75,171.8H241A290.15,290.15,0,0,1,331.25,186c27.54,9,52.25,21.92,73.46,38.32S442.4,259.63,454,280.76c11.91,21.8,17.94,44.92,17.92,68.75a141.76,141.76,0,0,1-18,68.66c-11.58,21.1-28.16,40.07-49.29,56.38s-45.91,29.22-73.44,38.21a289.89,289.89,0,0,1-90.15,14h-.27a290.43,290.43,0,0,1-90.22-14.14c-27.54-9-52.25-21.92-73.46-38.33S39.34,439,27.78,417.84a140.39,140.39,0,0,1,.1-137.41c11.57-21.1,28.16-40.07,49.29-56.38s45.91-29.22,73.44-38.2a289.88,289.88,0,0,1,90.14-14m0-4C111.1,167.8,6,248.93,5.87,349.09S110.92,530.69,240.71,530.8H241c129.66,0,234.8-81.12,234.89-181.29S370.82,167.92,241,167.8Z"/><path class="cls-5" d="M14.36,366.62a14.56,14.56,0,0,1-6.06-1.41,183,183,0,0,1-2.17-28.16c0-54.81,24.31-106.34,68.32-145.1s102.67-60.2,165-60.2h.24c128.69.12,233.31,92.4,233.21,205.71,0,2.11-.05,4.3-.14,6.66-6.51-.82-11.47-2.7-15.11-5.72-8.91-7.36-8.8-20.22-8-31.7l.26-3.75-3.26,1.88a14.82,14.82,0,0,1-7.52,1.9,22.53,22.53,0,0,1-15.51-6.7c-5.94-6.2-8.07-14.64-9.5-22.83l-.2-1.17c-.84-4.95-1.72-10.06-4.67-14.53s-8.28-7.61-13.32-7.61a12.41,12.41,0,0,0-3.17.41,22.34,22.34,0,0,0-3.58,1.37,13.9,13.9,0,0,1-3.7,1.3,6,6,0,0,1-.94.07c-5.78,0-9.27-8.08-10.2-10.56C373,243,369,232.35,360,232.35c-3.76,0-6.68,1.85-9.51,3.61a21.89,21.89,0,0,1-5.59,2.81,9.81,9.81,0,0,1-2.66.35c-4.82,0-9.28-3.17-11.84-6.14a52.35,52.35,0,0,1-5.37-8,70.24,70.24,0,0,0-4.32-6.79,9.86,9.86,0,0,0-5-3.92,7.22,7.22,0,0,0-2-.29c-2.68,0-5.12,1.39-6.95,2.6s-3.51,2.41-5.19,3.62c-5.48,3.94-10.65,7.66-16.95,9a15.38,15.38,0,0,1-3.23.33c-4.58,0-9.31-1.88-11.79-4.67a6.47,6.47,0,0,1-1.78-5.19l.2-1.6-1.53-.53a9.38,9.38,0,0,0-3.11-.54c-5.07,0-8.94,4.19-12.67,8.24-3.36,3.63-6.52,7.06-10,7.06a5.62,5.62,0,0,1-1.66-.25c-3.11-1-4.17-4.2-5.41-8s-2.68-8.2-6.78-10.4a10,10,0,0,0-4.78-1.22c-6.6,0-12.52,6.2-15.58,11.5-4.43,7.67-8.63,11.4-12.82,11.4a7.7,7.7,0,0,1-1.64-.18c-4.21-.94-6.5-5.22-8.92-9.75-2.76-5.16-5.89-11-12.56-11h-.45a12.55,12.55,0,0,0-4.95,1.34c-7,3.34-10.5,10.23-13.29,17.18l-.24.59c-2.38,5.92-4.83,12-10,15.56a13.19,13.19,0,0,1-7.2,2c-3.13,0-7.17-1.15-8.3-4.41a15,15,0,0,1-.55-3.45c-.24-2.64-.5-5.64-3.16-7.65a8.24,8.24,0,0,0-5.08-1.52,14.65,14.65,0,0,0-3.48.45c-11.34,2.78-17.66,13.12-22.69,22.6l-15.41,29c-2.13,4-4.16,5.89-6.38,5.89h-.19c-3-.14-4.26-3.16-6-8.13-1.65-4.81-3.53-10.27-9.23-10.27l-.66,0c-3,.23-5.19,2.15-6.78,3.8-12.7,13.13-13.72,31-14.71,48.31-.48,8.34-1,17-2.78,24.92-1.34,5.91-4.39,13.39-11.28,15.47A12.12,12.12,0,0,1,14.36,366.62Z"/><path d="M239.46,133.75h.24a257.33,257.33,0,0,1,90.21,16.14,234.34,234.34,0,0,1,73.54,43.79,203.58,203.58,0,0,1,49.43,64.73,181.38,181.38,0,0,1,18,79c0,1.4,0,2.84-.06,4.35-5.06-.89-9-2.52-11.92-4.95-8.17-6.76-8.05-19-7.29-30l.52-7.5-6.51,3.77a12.88,12.88,0,0,1-6.52,1.63,20.47,20.47,0,0,1-14.07-6.08c-5.56-5.82-7.6-13.91-9-21.8l-.2-1.17c-.84-4.9-1.79-10.46-5-15.29-3.41-5.16-9.29-8.5-15-8.5a14.62,14.62,0,0,0-3.68.47,24.52,24.52,0,0,0-3.89,1.49A12.47,12.47,0,0,1,385.2,255a5,5,0,0,1-.66,0c-3.58,0-6.65-4.78-8.33-9.26-1.43-3.82-5.8-15.43-16.22-15.43h-.08c-4.26,0-7.57,2.09-10.48,3.91a20.59,20.59,0,0,1-5.07,2.58,7.88,7.88,0,0,1-2.13.28c-3.41,0-7.47-2.14-10.33-5.45a50,50,0,0,1-5.15-7.74,74.45,74.45,0,0,0-4.44-7,11.74,11.74,0,0,0-6-4.65,9,9,0,0,0-2.59-.37c-3.21,0-6,1.57-8.06,2.93-1.79,1.18-3.55,2.45-5.25,3.67-5.3,3.81-10.31,7.41-16.2,8.68a14.17,14.17,0,0,1-2.81.28c-4,0-8.17-1.61-10.29-4a4.45,4.45,0,0,1-1.29-3.62l.39-3.2-3.05-1.06a11.5,11.5,0,0,0-3.77-.65c-5.95,0-10.3,4.72-14.14,8.88-2.92,3.16-5.93,6.43-8.5,6.43a3.79,3.79,0,0,1-1.08-.17c-1.9-.58-2.74-2.58-4.08-6.68s-2.94-9-7.74-11.54a11.94,11.94,0,0,0-5.73-1.46c-7.45,0-14,6.74-17.31,12.5-4,6.9-7.72,10.4-11.09,10.4a5.69,5.69,0,0,1-1.21-.14c-3.31-.73-5.39-4.62-7.59-8.73-2.87-5.38-6.45-12.08-14.32-12.08h-.53a14.78,14.78,0,0,0-5.74,1.53c-7.57,3.64-11.34,10.92-14.28,18.24l-.24.6c-2.26,5.64-4.6,11.47-9.31,14.64a11.18,11.18,0,0,1-6.08,1.69c-2.66,0-5.68-1-6.41-3.06a13.92,13.92,0,0,1-.45-3c-.24-2.76-.58-6.53-4-9.08a10.22,10.22,0,0,0-6.28-1.92,16.9,16.9,0,0,0-3.95.5c-12.15,3-18.75,13.75-24,23.61l-8.8,16.58L74,285.19c-2.12,4-3.68,4.82-4.62,4.82h-.1c-1.6-.08-2.57-2.16-4.16-6.79-1.68-4.9-4-11.62-11.12-11.62a7.44,7.44,0,0,0-.81,0c-3.69.28-6.37,2.64-8.07,4.4C31.89,289.7,30.84,308,29.83,325.62c-.47,8.26-1,16.81-2.73,24.6-1.22,5.39-3.94,12.19-9.91,14a9.83,9.83,0,0,1-2.83.41,12,12,0,0,1-4.25-.82A181.1,181.1,0,0,1,26.28,258.07a203.47,203.47,0,0,1,49.49-64.62,234.38,234.38,0,0,1,73.53-43.66,257.28,257.28,0,0,1,90.16-16m0-4C109.57,129.75,4.23,222.52,4.13,337a184.22,184.22,0,0,0,2.35,29.49,16.81,16.81,0,0,0,7.88,2.09,13.6,13.6,0,0,0,4-.58c7.47-2.25,11.07-9.92,12.66-16.94,5.58-24.55-1.22-53.47,17-72.28,1.47-1.53,3.27-3,5.49-3.2l.51,0c8.62,0,6,18,15.09,18.4h.29c3.87,0,6.44-3.72,8.15-6.95q7.71-14.51,15.4-29c4.8-9,10.79-19,21.41-21.6a12.53,12.53,0,0,1,3-.39,6.3,6.3,0,0,1,3.87,1.12c3,2.29,1.85,6.73,3,10.16,1.34,3.87,5.67,5.75,10.19,5.75a15.19,15.19,0,0,0,8.32-2.37c5.91-4,8.49-10.77,11-17.07s5.79-13,12.3-16.12a10.76,10.76,0,0,1,4.16-1.14h.38c10.6,0,10.49,18.37,21,20.72a9.31,9.31,0,0,0,2.07.23c6.44,0,11.3-6.78,14.55-12.4,2.9-5,8.36-10.5,13.85-10.5a7.94,7.94,0,0,1,3.83,1c7.12,3.82,4.72,16.13,12.55,18.52a7.52,7.52,0,0,0,2.25.35c8.61,0,14.2-15.31,22.64-15.31a7.29,7.29,0,0,1,2.46.43c-.87,7.08,7.56,12.1,15.55,12.1a17.66,17.66,0,0,0,3.65-.37c8.79-1.89,15.51-8.09,22.82-12.92,1.73-1.15,3.79-2.27,5.85-2.27a5,5,0,0,1,1.47.21,7.91,7.91,0,0,1,3.92,3.2c3.58,4.8,5.84,10.37,9.77,14.94,3.26,3.77,8.28,6.83,13.36,6.83a11.88,11.88,0,0,0,3.18-.42c5.21-1.42,9.09-6.32,14.53-6.35H360c6.71,0,10.3,7,12.48,12.84,2,5.44,6.09,11.85,12.07,11.85a8.45,8.45,0,0,0,1.22-.09c2.67-.38,4.91-2,7.51-2.72a10.49,10.49,0,0,1,2.66-.34c4.64,0,9.18,3,11.65,6.71,2.95,4.46,3.68,9.8,4.57,14.94,1.48,8.53,3.79,17.36,10,23.87a24.41,24.41,0,0,0,17,7.32,16.86,16.86,0,0,0,8.52-2.17c-.81,11.83-.9,25.41,8.73,33.38,5,4.12,11.49,5.79,18.29,6.4.15-2.95.24-5.9.24-8.88.1-114.6-105.2-207.59-235.21-207.71Z"/><circle class="cls-6" cx="242.14" cy="75.93" r="73"/><path class="cls-7" d="M264.84,130.86c-10.18-2.09-20.61-4.25-29.91-9.06a44.56,44.56,0,0,1-20.34-21.47c-4.23-9.26-5.9-19.58-6.51-29.67-.68-11.07-.21-22.83,6.5-32.17,5.57-7.76,14.74-13,24.38-13a28.53,28.53,0,0,1,24.78,14,46.79,46.79,0,0,1,5.39,16,39.13,39.13,0,0,1-.89,17.45c-2.72,9-10.53,17.58-20.43,18.17a11.27,11.27,0,0,1-7.43-1.9,15.23,15.23,0,0,1-4.45-6c-2.31-5-3.79-11.23-2.3-16.67,1.14-4.13,4.81-8.83,9.52-8.8a3.17,3.17,0,0,1,2.74,1.7,23.94,23.94,0,0,1,2.15,3.7c.76,1.7,1.51,4.65-.71,5.56-.66.27-2.52.55-2.59-.54-.1-1.92-3.1-1.94-3,0,.27,4.66,6.76,4.72,9,1.54,1.72-2.38,1-5.62-.15-8.07s-2.8-5.69-5.48-6.59-5.67.16-7.86,1.57a15.21,15.21,0,0,0-5.22,5.78c-3,5.67-2.25,12.39-.31,18.28,1.75,5.32,4.65,10.79,10.28,12.73,5.43,1.87,11.78.14,16.5-2.8,10.35-6.43,14.74-18.64,14.09-30.41-.66-12-5.17-25-15.39-32.06a32.2,32.2,0,0,0-31.75-2.47C215,30.53,208,40.46,205.87,51.69a77.57,77.57,0,0,0-.76,19.55,108.6,108.6,0,0,0,2.41,17.23c2.54,11,7.47,21.78,16.12,29.32,8.91,7.77,20.41,11.47,31.73,14.09,2.88.67,5.78,1.27,8.67,1.87,1.89.39,2.69-2.51.8-2.89Z"/><path d="M163.81,399.19A36.2,36.2,0,1,1,200.07,363a36,36,0,0,1-36.26,36.18Z"/><path d="M163.84,326.27l0,1A35.71,35.71,0,1,1,128.11,363a35.77,35.77,0,0,1,35.76-35.68v-1m0,0a36.71,36.71,0,1,0,0,73.42h0a36.71,36.71,0,1,0,0-73.42Z"/><rect x="180.09" y="299.64" width="9" height="78" transform="translate(-199.75 306.48) rotate(-56.62)"/><path d="M154.65,314.12,219,356.48l-4.41,6.68-64.3-42.36,4.41-6.68m-.29-1.38-5.5,8.35,66,43.46,5.5-8.35-66-43.46Z"/><path d="M331,399.12a35.21,35.21,0,0,1-.65-70.41H331a35.21,35.21,0,0,1,.65,70.41Z"/><path d="M331,328.2v1h0a34.71,34.71,0,0,1,.64,69.41H331a34.71,34.71,0,0,1-.64-69.41H331v-1m0,0h-.69a35.71,35.71,0,0,0,.66,71.41h.69A35.71,35.71,0,0,0,331,328.2Z"/><rect x="270.73" y="335.1" width="78" height="9" transform="translate(-130.86 208.69) rotate(-31.09)"/><path d="M340.64,316.3l4.13,6.85L278.82,362.9l-4.13-6.85,65.95-39.75m.34-1.38-67.66,40.79,5.16,8.57,67.66-40.79L341,314.92Z"/><path d="M376.08,269.18c4.45,7.49,6.27,16.76,3.46,25.16a23.43,23.43,0,0,1-15.45,15.2,1.51,1.51,0,0,0,.8,2.9,25.94,25.94,0,0,0,15-11.82,30,30,0,0,0,3.38-20.78,36.75,36.75,0,0,0-4.64-12.17,1.5,1.5,0,0,0-2.59,1.51Z"/><path d="M431.39,338.68c-5.16-6.89-8.09-15.86-6.27-24.45,1.57-7.37,6.56-14.2,13.68-17,1.77-.71,1-3.61-.8-2.89a25.82,25.82,0,0,0-13.86,13.42,30,30,0,0,0-1.15,21,36.75,36.75,0,0,0,5.81,11.43c1.14,1.53,3.74,0,2.59-1.52Z"/><path d="M368.59,327.68c8.39-3,18.15-3.2,26.17,1.05,6.73,3.56,12.05,10.26,12.7,18,.17,1.91,3.17,1.93,3,0a25.41,25.41,0,0,0-9.12-17.14,31.56,31.56,0,0,0-20.46-7.1,39.45,39.45,0,0,0-13.09,2.29c-1.81.64-1,3.54.8,2.9Z"/><path d="M437.13,278.89c-8,3.29-17.52,3.87-25.42-.15-6.65-3.38-11.94-9.87-12.89-17.4-.24-1.89-3.24-1.91-3,0a25.79,25.79,0,0,0,9.44,16.74,30,30,0,0,0,19.93,6.46,36.87,36.87,0,0,0,12.74-2.75c1.76-.73,1-3.63-.8-2.9Z"/><ellipse class="cls-8" cx="169.37" cy="348.8" rx="7.5" ry="8"/><ellipse class="cls-8" cx="322.37" cy="352.8" rx="7.5" ry="8"/><circle class="cls-8" cx="139.87" cy="368.8" r="5"/><circle class="cls-8" cx="352.87" cy="373.8" r="5"/><path d="M231.44,444.3a16.11,16.11,0,0,1,9.72-13.73,15,15,0,0,1,16.32,3.4,15.57,15.57,0,0,1,4.63,9c.28,1.91,3.17,1.1,2.9-.79-1-7.09-6.65-13.06-13.45-15.06a18,18,0,0,0-18.89,6.25,18.54,18.54,0,0,0-4.23,10.94c-.08,1.93,2.92,1.92,3,0Z"/></svg>