<svg xmlns="http://www.w3.org/2000/svg" width="256" height="256" viewBox="0 0 100 100"><rect width="100" height="100" rx="20" fill="#f58d19"></rect><path fill="#fff" d="M54.34 64.74L54.34 64.74Q53.62 65.25 52.45 65.66Q51.28 66.06 49.85 66.06L49.85 66.06Q48.22 66.06 46.94 65.56Q45.67 65.05 45.16 63.92L45.16 63.92Q39.65 52.50 35.67 43.01Q31.69 33.53 29.24 27.30L29.24 27.30L28.84 27.30Q28.53 34.95 28.17 41.53Q27.82 48.11 27.41 54.39Q27.00 60.66 26.59 67.09Q26.18 73.51 25.77 80.86L25.77 80.86Q25.16 81.06 24.19 81.26Q23.23 81.47 22.10 81.47L22.10 81.47Q19.86 81.47 18.94 80.55Q18.02 79.63 18.02 77.90L18.02 77.90Q18.02 76.88 18.18 73.51Q18.33 70.15 18.63 65.35Q18.94 60.56 19.30 54.74Q19.66 48.93 20.11 42.91Q20.57 36.89 21.03 31.08Q21.49 25.27 21.90 20.47L21.90 20.47Q22.72 19.76 24.25 19.14Q25.77 18.53 27.71 18.53L27.71 18.53Q32.41 18.53 34.24 22.31L34.24 22.31Q36.18 26.28 38.17 30.72Q40.16 35.16 42.15 39.75Q44.14 44.34 46.02 48.83Q47.91 53.31 49.64 57.40L49.64 57.40L50.05 57.40Q52.30 51.99 54.54 46.74Q56.78 41.48 58.92 36.59Q61.07 31.69 63.01 27.41Q64.94 23.12 66.47 19.55L66.47 19.55Q67.39 19.04 68.82 18.79Q70.25 18.53 71.47 18.53L71.47 18.53Q76.27 18.53 76.98 21.80L76.98 21.80Q77.39 23.63 77.90 27.87Q78.41 32.10 78.92 37.61Q79.43 43.12 79.89 49.44Q80.35 55.76 80.75 61.63Q81.16 67.49 81.47 72.44Q81.77 77.39 81.98 80.24L81.98 80.24Q80.14 81.47 77.69 81.47L77.69 81.47Q76.16 81.47 74.99 80.70Q73.82 79.94 73.61 77.90L73.61 77.90Q73.10 70.45 72.70 63.11Q72.29 55.76 71.93 49.13Q71.57 42.50 71.27 36.94Q70.96 31.38 70.76 27.51L70.76 27.51L70.35 27.51Q69.23 30.37 67.75 33.94Q66.27 37.51 64.28 41.99Q62.29 46.48 59.84 52.14Q57.40 57.80 54.34 64.74Z"></path></svg>